<?xml version="1.0" encoding="utf-8"?>
<!-- Generator: Adobe Illustrator 21.0.2, SVG Export Plug-In . SVG Version: 6.00 Build 0)  -->
<svg version="1.1" id="Layer_1" xmlns="http://www.w3.org/2000/svg" xmlns:xlink="http://www.w3.org/1999/xlink" x="0px" y="0px"
	 viewBox="0 0 283.5 283.5" style="enable-background:new 0 0 283.5 283.5;" xml:space="preserve">
<title>Untitled-2</title>
<path d="M66.2,187.9H53.5V64.8h12.7V187.9z"/>
<path d="M227.5,187.9h-9.7V64.8h9.7V187.9z"/>
<path d="M172.7,64.7h9.7v123.2h-9.7V64.7z"/>
<path d="M204.8,187.9h-9.4V64.8h9.4V187.9z"/>
<path d="M150.2,64.7h9.4v123.2h-9.4V64.7z"/>
<path d="M75.9,64.7h6.3v123.2h-6.3V64.7z"/>
<path d="M111.4,187.9h-6.3V64.8h6.3V187.9z"/>
<path d="M114.6,64.7h6.3v123.2h-6.3V64.7z"/>
<path d="M37.1,205.2h-2.9V64.8h2.9V205.2z"/>
<path d="M249.9,205.2H247V64.7h2.9V205.2z"/>
<path d="M243.5,64.7v140.5h-2.9V64.7H243.5z"/>
<path d="M43.5,205.2h-2.9V64.7h2.9V205.2z"/>
<path d="M140.3,205.2h-2.9V64.7h2.9V205.2z"/>
<path d="M143.8,64.7h2.9v140.5h-2.9V64.7z"/>
<path d="M211.4,187.9V64.7h3.2v123.2H211.4z"/>
<path d="M166.2,64.7h3.2v123.2h-3.2V64.7z"/>
<path d="M50,187.9H47V64.8H50L50,187.9z"/>
<path d="M85.7,64.7h2.9v123.2h-2.9V64.7z"/>
<path d="M133.8,187.9h-2.9V64.7h2.9V187.9z"/>
<path d="M191.9,187.9h-2.9V64.7h2.9V187.9z"/>
<path d="M237,187.9h-2.9V64.8h2.9V187.9z"/>
<path d="M98.6,64.7h3v123.2h-3V64.7z"/>
<path d="M69.5,200.2c-0.7,0.1-1.2,0.3-1.7,0.4c-0.6,0.2-1.2-0.1-1.4-0.7c0,0,0-0.1,0-0.1c-0.8-2.2-3.2-3.4-5.4-2.6
	c-0.6,0.2-1.2,0.6-1.6,1c-2.1,2-2.4,4.6-2.4,7.4c0.2-0.1,0.4-0.3,0.6-0.4c1.8-2.3,4.8-3.1,7.5-2.1c2.7,0.8,4.7,3.2,4.9,6.1
	c0.4,3.4-0.4,6.4-3.4,8.4c-3.5,2.3-8.3,1.4-10.6-2.2c-0.3-0.5-0.6-1-0.8-1.6c-1.7-4.8-1.6-10.1,0.4-14.9c1.6-3.8,5.9-5.7,9.8-4.3
	C67.8,195.5,69.1,197.5,69.5,200.2z M62.3,205.5c-2.6-0.1-4.9,2-5,4.6c0,0.1,0,0.1,0,0.2c-0.2,2.9,2,5.3,4.8,5.5c0.1,0,0.1,0,0.2,0
	c2.8,0,4.7-2.1,4.7-5.3C67,207.6,65.1,205.5,62.3,205.5L62.3,205.5z"/>
<path d="M92.3,212.8l2.6-0.4c1.2,3.5,3.7,4,6,3c1-0.5,1.8-1.2,2.3-2.1c1.1-1.8,1.6-3.9,1.5-6c-1.2,1-2.5,1.8-3.9,2.4
	c-3.4,1.1-7-0.6-8.3-3.9c-1.5-3.5-0.6-8,2-10.1c3.3-2.7,8.3-2.2,11,1.1c0.8,0.9,1.3,2.1,1.6,3.2c1.1,4.1,1,8.5-0.3,12.6
	c-1.1,4.2-5.4,6.7-9.6,5.6c-0.1,0-0.1,0-0.2-0.1C94.3,217.8,92.4,215.5,92.3,212.8z M99.6,207.3c2.9,0,4.8-2,4.8-5.1
	c0-3-1.9-5.2-4.7-5.2c-2.8,0.1-5.1,2.4-5,5.3c0,0.1,0,0.1,0,0.2c-0.1,2.6,2,4.8,4.6,4.9C99.4,207.3,99.5,207.3,99.6,207.3z"/>
<path d="M110.7,212l2.9-0.4c0.1,0.3,0.2,0.5,0.3,0.7c0.7,2.4,2.1,3.5,4.4,3.5c2.5,0,4.3-1.1,4.9-3.5c0.3-1.4,0.3-2.9,0-4.3
	c-1-3.3-5.6-4.2-8.3-1.8c-1.3,1.1-1.9,1.2-3.6,0.3c0.4-2,0.7-4,1.1-6c0.3-1.8,0.7-3.5,1.1-5.3c0.1-0.3,0.5-0.8,0.7-0.8
	c3.8-0.1,7.5,0,11.4,0v3h-9.6l-1.3,6.3c2.9-1.8,5.6-2.2,8.4-0.5c1.8,1,3.1,2.8,3.5,4.9c1.1,5.1-2,10-6.9,10.6
	C114.3,219.2,110.8,215.9,110.7,212z"/>
<path d="M88.9,206.5c-0.4,2.3-0.6,4.6-1.2,6.8c-0.9,3.5-3.5,5.4-6.6,5.4c-3.7,0-6.2-1.7-7.2-5.3c-1.4-4.5-1.4-9.3,0-13.8
	c1-3.8,4.8-6.2,8.7-5.2c1.2,0.3,2.3,0.9,3.2,1.7c1.7,1.8,2.6,4.2,2.8,6.6c0.2,1.2,0.2,2.5,0.2,3.7L88.9,206.5z M85.8,206.2
	c-0.2-2-0.5-4-1-6c-0.4-2-2.3-3.4-4.4-3.2c-2,0.1-3.5,1.5-4.1,4.1c-0.6,3.2-0.7,6.6-0.2,9.9c0.1,1.8,1.1,3.4,2.6,4.4
	c2.6,1.4,5.5-0.1,6.3-3.4C85.5,210.2,85.6,208.3,85.8,206.2z"/>
<path d="M173.7,206.5c-0.5,2.7-1.1,5.4-1.9,8c-1.1,3-3.6,4.3-6.8,4.2c-2.8,0.1-5.3-1.7-6.2-4.4c-1.9-5-1.9-10.6-0.1-15.6
	c0.9-2.8,3.5-4.6,6.4-4.5c3.3-0.1,5.7,1.4,6.8,4.5C172.7,201.2,173.3,203.8,173.7,206.5z M170.5,206.1c-0.2-2.1-0.6-4.1-1.1-6.1
	c-0.5-1.8-2.2-3-4-3c-1.9-0.1-3.5,1.2-4,3c-1.2,4.1-1.3,8.4-0.1,12.6c0.5,2.1,2.5,3.5,4.7,3.2c2-0.4,3.5-1.9,3.8-3.9
	C170.1,210.1,170.2,208.3,170.5,206.1L170.5,206.1z"/>
<path d="M192.5,206.5c-0.5,2.7-1.1,5.3-1.9,7.9c-1.1,3.1-3.7,4.4-6.9,4.2c-2.8,0-5.2-1.8-6.1-4.5c-1.5-3.8-1.4-7.8-1-11.8
	c0.1-2.3,1.1-4.6,2.7-6.3c3-3,8.5-2.6,10.7,1.1c0.9,1.7,1.5,3.6,1.9,5.5c0.2,1.2,0.3,2.5,0.3,3.7L192.5,206.5z M189.3,206.5
	c-0.3-2.2-0.5-4.3-1-6.3c-0.4-1.9-2.1-3.2-4-3.2c-2.3,0-4,1.5-4.5,4.2c-0.6,3.2-0.7,6.4-0.2,9.6c0.1,0.7,0.3,1.3,0.5,2
	c0.6,1.8,2.2,3,4,3c1.9,0,3.5-1.2,4-3C188.8,210.8,189,208.6,189.3,206.5z"/>
<path d="M230,206.4c-0.4,2.3-0.6,4.6-1.2,6.8c-0.7,3.1-3.4,5.4-6.6,5.4c-3.7,0-6.2-1.7-7.3-5.3c-1.4-4.5-1.4-9.3,0-13.8
	c0.7-3,3.3-5.2,6.5-5.4c3.7-0.1,6,1.5,7.3,5c0.4,1.2,0.7,2.4,0.9,3.6c0.2,1.2,0.2,2.4,0.2,3.6L230,206.4z M227,206.6
	c-0.3-2.2-0.5-4.3-1-6.4c-0.4-1.9-2.1-3.2-4-3.2c-2.3,0-4.1,1.5-4.4,4.3c-0.3,3.1-0.2,6.3-0.2,9.5c0,0.7,0.2,1.4,0.5,2
	c0.5,1.8,2.1,3,4,3.1c1.9,0.1,3.6-1.2,4.1-3.1C226.4,210.7,226.7,208.7,227,206.6L227,206.6z"/>
<path d="M211,207.6c-0.2,2-0.6,4-1.1,5.9c-0.6,2.7-2.9,4.8-5.6,5.1c-2.5,0.5-5.1-0.4-6.7-2.4c-1.2-1.7-2-3.6-2.1-5.7
	c-0.5-3.4-0.4-7,0.4-10.4c0.8-2.9,2.4-5.1,5.6-5.9c2.9-0.7,5.9,0.5,7.5,3C210.7,200.1,210.9,203.2,211,207.6z M208.1,206.6
	c-0.3-2.1-0.5-4.2-1-6.2c-0.4-2-2.1-3.4-4.2-3.3c-2-0.1-3.7,1.3-4.1,3.3c-1.1,4-1.1,8.2,0,12.2c0.4,2,2.2,3.4,4.2,3.3
	c2,0,3.7-1.4,4.1-3.3C207.7,210.6,207.8,208.6,208.1,206.6z"/>
</svg>
