<?xml version="1.0" encoding="utf-8"?>
<!-- Generator: Adobe Illustrator 21.0.2, SVG Export Plug-In . SVG Version: 6.00 Build 0)  -->
<svg version="1.1" id="Layer_1" xmlns="http://www.w3.org/2000/svg" xmlns:xlink="http://www.w3.org/1999/xlink" x="0px" y="0px"
	 viewBox="0 0 283.5 283.5" style="enable-background:new 0 0 283.5 283.5;" xml:space="preserve">
<title>Untitled-2</title>
<path d="M66.2,64.7v123.2H53.3V64.7H66.2z"/>
<path d="M82.2,64.7v123.2H69.3V64.7H82.2z"/>
<path d="M182.3,64.7v123.2h-9.8V64.7H182.3z"/>
<path d="M204.7,64.7v123.2h-9.5V64.7H204.7z"/>
<path d="M159.6,64.7v123.2H150V64.7H159.6z"/>
<path d="M104.9,64.7v123.2h-6.5V64.7H104.9z"/>
<path d="M133.8,64.7v123.2h-6.2V64.7H133.8z"/>
<path d="M37,64.7v140.5h-3.1V64.7H37z"/>
<path d="M249.9,64.7v140.5h-3.1V64.7H249.9z"/>
<path d="M243.4,64.7v140.5h-3.1V64.7H243.4z"/>
<path d="M43.5,64.7v140.5h-3.1V64.7H43.5z"/>
<path d="M146.7,64.7v140.5h-3.1V64.7H146.7z"/>
<path d="M140.2,64.7v140.5h-3.1V64.7H140.2z"/>
<path d="M214.5,64.7v123.2h-3.4V64.7H214.5z"/>
<path d="M111.3,64.7v123.2H108V64.7H111.3z"/>
<path d="M169.4,64.7v123.2H166V64.7H169.4z"/>
<path d="M49.9,64.7v123.2h-3.1V64.7H49.9z"/>
<path d="M88.6,64.7v123.2h-3.1V64.7H88.6z"/>
<path d="M191.8,64.7v123.2h-3.1V64.7H191.8z"/>
<path d="M220.7,64.7v123.2h-3.1V64.7H220.7z"/>
<path d="M233.6,64.7v123.2h-3.1V64.7H233.6z"/>
<path d="M120.9,64.7v123.2h-2.8V64.7H120.9z"/>
<path d="M69.4,200.3c-0.4,0-0.7,0-1.1,0.1c-1.2,0.5-1.8,0.2-2.3-1.1c-1-2.6-4.6-3.2-6.7-1.2c-2.2,2-2.5,4.6-2.5,7.2
	c1.2-0.9,2.5-1.7,3.9-2.3c3.7-1.1,7.6,0.9,8.7,4.6c0,0.1,0,0.1,0.1,0.2c1.1,3.6-0.2,7.8-3.1,9.7c-3.6,2.4-8.4,1.4-10.7-2.2
	c-0.3-0.5-0.6-1-0.8-1.5c-1.8-4.9-1.6-10.2,0.4-15c1.7-3.9,6.2-5.7,10.1-4.1c0.3,0.1,0.7,0.3,1,0.5
	C68.1,196.4,69.2,198.2,69.4,200.3z M62.2,205.5c-2.6-0.1-4.9,2-5,4.6c0,0.1,0,0.1,0,0.2c-0.2,2.9,1.9,5.3,4.8,5.6
	c0.1,0,0.1,0,0.2,0c2.8,0,4.7-2.1,4.7-5.2C66.9,207.6,65,205.6,62.2,205.5z"/>
<path d="M157.1,206.3c0.3-2.4,0.8-4.9,1.5-7.3c0.8-2.9,3.4-4.9,6.4-4.9c3.5,0,5.8,1.4,7,4.7c1.8,5,1.8,10.5-0.2,15.5
	c-1.2,3-3.6,4.4-6.9,4.3c-2.8,0-5.3-1.8-6.2-4.4c-1-2.5-1.4-5.2-1.3-7.9L157.1,206.3z M170.3,206.2c-0.2-2-0.6-4.1-1-6.1
	c-0.6-2.2-2.8-3.6-5.1-3.1c-2,0.6-3,2.1-3.3,4c-0.7,3.5-0.7,7.2,0,10.7c0.2,1.6,1.2,2.9,2.6,3.6c2.6,1.2,5.3-0.3,6-3.4
	C170,210.2,170.1,208.4,170.3,206.2L170.3,206.2z"/>
<path d="M192.4,206.5c-0.4,2.7-1.1,5.3-1.8,8c-1.1,3.1-3.6,4.4-6.9,4.2c-2.8,0-5.2-1.8-6.2-4.4c-1.6-3.8-1.4-7.8-1-11.8
	c0.1-2.3,1.1-4.6,2.7-6.3c3-3.1,8.5-2.6,10.7,1c0.9,1.8,1.6,3.7,2,5.6c0.2,1.2,0.3,2.4,0.3,3.6L192.4,206.5z M189.2,206.5
	c-0.3-2.1-0.5-4.2-1-6.3c-0.4-1.9-2.1-3.2-4-3.2c-2.3,0-4.1,1.5-4.4,4.3c-0.3,3.1-0.2,6.3-0.2,9.5c0,0.6,0.2,1.2,0.4,1.7
	c0.5,1.9,2.2,3.3,4.2,3.3c2,0,3.6-1.4,4-3.4C188.7,210.6,188.9,208.6,189.2,206.5L189.2,206.5z"/>
<path d="M107.4,206.3c-0.1,2.9-0.2,5.7-1.4,8.3c-1.2,2.8-4,4.5-7,4.1c-2.8,0-5.2-1.8-6-4.4c-2-5.2-1.9-11,0.2-16.1
	c1.7-3.5,5.9-5,9.4-3.3c1.5,0.7,2.6,1.9,3.3,3.4c0.6,1.5,1,3,1.3,4.5C107.3,204,107.4,205.1,107.4,206.3z M104.6,206.8
	c-0.2-2.2-0.6-4.4-1.1-6.5c-0.5-2.3-2.8-3.7-5-3.1c-0.5,0.1-0.9,0.3-1.3,0.5c-1.2,0.9-2,2.2-2.2,3.7c-0.6,3.2-0.7,6.4-0.2,9.6
	c0.1,0.8,0.3,1.6,0.7,2.3c0.6,1.6,2.1,2.6,3.8,2.6c1.7,0.1,3.3-0.9,3.9-2.6C103.9,211.1,104.3,208.9,104.6,206.8L104.6,206.8z"/>
<path d="M210.9,207.6c-0.2,2-0.6,4-1.1,5.9c-0.6,2.7-2.9,4.8-5.6,5.1c-2.5,0.5-5.1-0.4-6.7-2.4c-1.2-1.7-2-3.6-2.1-5.7
	c-0.5-3.4-0.4-7,0.4-10.4c0.8-2.9,2.4-5.1,5.6-5.9c2.8-0.7,5.8,0.5,7.4,2.9C210.6,200.1,210.7,203.2,210.9,207.6z M208,206.5
	c-0.3-2.1-0.5-4.3-1.1-6.4c-0.5-1.9-2.2-3.1-4.1-3.1c-1.9-0.1-3.5,1.2-4,3c-1.2,4.1-1.2,8.5-0.1,12.6c0.5,1.9,2.2,3.3,4.1,3.2
	c2,0,3.7-1.4,4.1-3.3C207.5,210.6,207.7,208.6,208,206.5z"/>
<path d="M113.5,201.4l-2.8-0.4c0.3-5.6,4.9-7.5,9.4-6.7c4,0.7,6.2,3.4,5.9,6.8c-0.1,2-1,3.8-2.4,5.1c-2.4,2.3-4.9,4.4-7.3,6.7
	c-0.7,0.7-1.3,1.4-2.3,2.4h12v3h-15.9c-0.1-1.5,0.5-3,1.6-4.2c1.3-1.5,2.9-2.9,4.4-4.3c1.7-1.6,3.5-3,5-4.6c0.9-1,1.5-2.2,1.8-3.5
	c0.5-2.3-1-4.2-3.3-4.7c-2.3-0.6-4.8,0.6-5.7,2.8C113.8,200.4,113.7,200.8,113.5,201.4z"/>
<path d="M72.8,212.1l2.9-0.6c0.6,2,1.4,4,3.7,4.3c1.2,0.1,2.5,0,3.6-0.5c2.2-1,3.1-3.6,2.2-5.8c-0.9-2.3-2.8-3.3-6.5-2.7l0.3-2.5
	c1.1-0.2,2.1-0.4,3.1-0.8c1.6-0.4,2.6-1.9,2.3-3.5c-0.3-1.7-1.7-2.9-3.4-2.9c-2.6-0.2-3.7,0.7-5,3.8l-2.7-0.5
	c0.3-4.2,4.3-6.8,8.5-6.1c1.8,0.2,3.4,1.2,4.5,2.6c2,2.8,1.4,5.7-1.8,8.1c0.7,0.4,1.5,0.8,2.1,1.3c2.2,1.9,2.3,4.4,1.7,7
	c-0.9,3.3-4.1,5.5-8.2,5.4c-3.3,0-6.2-2.2-7.1-5.4C72.9,212.9,72.9,212.5,72.8,212.1z"/>
<path d="M217.5,218.4c0.6-7.6,3.5-14.9,8.4-20.8h-11.7v-3.1h15.5c0.3,1.3-0.1,2.7-0.9,3.7c-4.5,5.5-7.4,12.2-8.1,19.3
	c0,0.3-0.1,0.6-0.1,0.9L217.5,218.4z"/>
</svg>
