<?xml version="1.0" encoding="utf-8"?>
<!-- Generator: Adobe Illustrator 21.0.2, SVG Export Plug-In . SVG Version: 6.00 Build 0)  -->
<svg version="1.1" id="Layer_1" xmlns="http://www.w3.org/2000/svg" xmlns:xlink="http://www.w3.org/1999/xlink" x="0px" y="0px"
	 viewBox="0 0 283.5 283.5" style="enable-background:new 0 0 283.5 283.5;" xml:space="preserve">
<title>Untitled-2</title>
<path d="M111.4,187.9h-9.9V64.7h9.9V187.9z"/>
<path d="M182.3,187.9h-9.6V64.7h9.6L182.3,187.9z"/>
<path d="M233.9,187.9h-9.6V64.7h9.6L233.9,187.9z"/>
<path d="M195.4,64.7h9.4v123.2h-9.4L195.4,64.7z"/>
<path d="M150.2,64.7h9.4v123.2h-9.4V64.7z"/>
<path d="M91.9,187.9V64.8h6.6v123.2H91.9z"/>
<path d="M127.5,64.7h6.3v123.2h-6.3V64.7z"/>
<path d="M75.8,187.9h-6.3V64.8h6.3L75.8,187.9z"/>
<path d="M56.4,187.9h-6V64.7h6V187.9z"/>
<path d="M249.9,205.2H247V64.8h2.9V205.2z"/>
<path d="M243.5,205.2h-2.9V64.7h2.9V205.2z"/>
<path d="M140.3,205.2h-2.9V64.8h2.9V205.2z"/>
<path d="M146.7,205.2h-2.9V64.7h2.9V205.2z"/>
<path d="M40.6,64.7h2.9v140.5h-2.9V64.7z"/>
<path d="M37.1,205.2h-2.9V64.8h2.9V205.2z"/>
<path d="M221,188h-3.2V64.8h3.2V188z"/>
<path d="M214.6,187.9h-3.2V64.7h3.2V187.9z"/>
<path d="M166.2,64.7h3.2v123.2h-3.2V64.7z"/>
<path d="M114.6,64.7h3.2V188h-3.2V64.7z"/>
<path d="M188.9,64.7h2.9v123.2h-2.9V64.7z"/>
<path d="M85.7,64.7h2.9v123.2h-2.9V64.7z"/>
<path d="M63.3,64.7h2.9v123.2h-2.9V64.7z"/>
<path d="M96,205.1c-2.9-1.7-3.9-3.7-3.2-6.2c0.7-2.8,2.9-4.5,6.1-4.7c2.1-0.2,4.1,0.4,5.7,1.7c2.7,2.3,2.8,7.4-1,8.9
	c-0.1,0-0.2,0.2-0.3,0.3c3,1,4.8,3.9,4.2,7c-0.2,2.9-2.2,5.3-5,6.1c-4.6,1.6-9.5-0.7-10.6-4.9C91,209.6,92.4,206.6,96,205.1z
	 M99.7,215.9c2.5,0.2,4.6-1.7,4.8-4.1c0-0.1,0-0.3,0-0.4c0.2-2.7-1.8-5.1-4.5-5.3c-2.7-0.2-5.1,1.8-5.3,4.5s1.8,5.1,4.5,5.3
	C99.4,215.9,99.6,215.9,99.7,215.9z M99.7,203.7c2.2,0,3.9-1.5,3.9-3.4c0-1.8-1.8-3.3-4-3.3c-2.3,0-4,1.4-3.9,3.3
	C95.7,202.4,97.3,203.7,99.7,203.7z"/>
<path d="M73,212.1c1-0.1,1.9-0.2,2.9-0.4c0.4,2,1.3,3.5,3.4,4c2.5,0.8,5.2-0.6,6.1-3.1c0.7-2.2,0.7-4.5-1.1-6.3
	c-2.1-1.9-5.2-1.8-7.2,0c-1.3,1.3-2.3,0.8-3.7,0.4c0.6-3.1,1.1-6.1,1.7-9.1c0.2-1,0.1-2.4,0.8-2.9c0.7-0.5,2-0.2,3.1-0.2
	c2.9,0,5.7,0,8.7,0v3h-9.6c-0.4,2.1-0.8,4.1-1.3,6.2c4.4-2.2,7.5-1.9,10.1,1c2.3,2.5,2.6,6.9,0.7,10.1c-2,3.4-5.7,4.6-9.6,3.6
	C75.2,217.6,73.1,215,73,212.1z"/>
<path d="M173.7,206.5c-0.5,2.7-1.1,5.4-1.9,8c-1.1,3-3.6,4.3-6.8,4.2c-2.8,0.1-5.3-1.7-6.2-4.4c-1.9-5-1.9-10.6-0.1-15.6
	c0.9-2.8,3.5-4.6,6.4-4.5c3.3-0.1,5.7,1.4,6.8,4.5C172.7,201.2,173.3,203.8,173.7,206.5z M170.4,206.2c-0.2-2-0.5-4-1-6
	c-0.5-2-2.3-3.4-4.4-3.2c-1.9,0.1-3.5,1.5-3.8,3.4c-1,3.9-1.1,8-0.1,12c0.3,1.4,1.2,2.5,2.5,3.1c2.5,1.2,5.2-0.3,6-3.4
	C170,210.1,170.3,208.2,170.4,206.2L170.4,206.2z"/>
<path d="M192.5,206.5c-0.4,2.7-1.1,5.3-1.8,8c-1.1,3.1-3.6,4.4-6.9,4.3c-2.8,0-5.3-1.8-6.2-4.4c-1.6-3.9-1.4-7.9-1-11.9
	c0.1-2.3,1.1-4.5,2.6-6.2c3-3.1,8.5-2.7,10.7,1c0.9,1.8,1.6,3.7,2,5.6c0.2,1.2,0.3,2.4,0.3,3.6L192.5,206.5z M189.3,206.5
	c-0.3-2.1-0.5-4.2-1-6.3c-0.4-1.9-2.1-3.2-4-3.2c-2.3,0-4.1,1.5-4.4,4.3c-0.3,3.1-0.2,6.3-0.2,9.5c0.1,0.6,0.2,1.3,0.5,1.9
	c0.5,1.9,2.2,3.2,4.2,3.2c1.9,0,3.6-1.4,4-3.2C188.8,210.6,189,208.6,189.3,206.5L189.3,206.5z"/>
<path d="M211,207.6c-0.2,2-0.6,4-1.1,5.9c-0.6,2.7-2.9,4.8-5.7,5.1c-2.5,0.5-5.1-0.4-6.7-2.4c-1.2-1.7-2-3.6-2.1-5.7
	c-0.6-3.6-0.4-7.3,0.6-10.8c1.2-3.7,3.7-5.5,7.4-5.4c2.2,0,4.3,1.2,5.4,3.1C210.8,200.1,210.9,203.3,211,207.6z M208.1,206.5
	c-0.3-2.1-0.5-4.2-1-6.3c-0.5-1.9-2.1-3.2-4-3.1c-1.9-0.1-3.6,1.2-4,3.1c-1.2,4.1-1.2,8.4-0.1,12.4c0.4,1.9,2.1,3.3,4.1,3.3
	c2,0,3.7-1.3,4.1-3.3C207.7,210.6,207.8,208.6,208.1,206.5L208.1,206.5z"/>
<path d="M226.5,194.6v15.1h3.2v3.1h-3.2v5.7h-3v-5.6h-10.5c-0.2-1.7-0.2-3.1,0.9-4.6c3.1-4.1,6.1-8.2,9-12.4
	C223.7,194.6,225.2,194.1,226.5,194.6z M223.4,199.6l-0.3-0.1l-7.2,10h7.4L223.4,199.6z"/>
<path d="M123.1,194.6v15h3.2v3h-3.1v5.7h-3v-5.5h-10.4c-0.2-1.7-0.3-3.1,0.8-4.5c3.1-4.1,6.1-8.2,9-12.4
	C120.4,194.7,121.3,194.1,123.1,194.6z M112.6,209.6h7.4v-10.3L112.6,209.6z"/>
<path d="M65.2,194v24.3h-2.9v-18.5l-5.9,3.4v-3c2.7-1.3,5.1-3.2,6.8-5.7C63.5,194.2,64.4,194.2,65.2,194z"/>
</svg>
