<?xml version="1.0" encoding="utf-8"?>
<!-- Generator: Adobe Illustrator 21.0.2, SVG Export Plug-In . SVG Version: 6.00 Build 0)  -->
<svg version="1.1" id="Layer_1" xmlns="http://www.w3.org/2000/svg" xmlns:xlink="http://www.w3.org/1999/xlink" x="0px" y="0px"
	 viewBox="0 0 283.5 283.5" style="enable-background:new 0 0 283.5 283.5;" xml:space="preserve">
<title>Untitled-2</title>
<path d="M47,64.7h12.7v123.2H47V64.7z"/>
<path d="M69.5,64.7h12.7v123.2H69.5V64.7z"/>
<path d="M182.3,187.9h-9.6V64.7h9.6V187.9z"/>
<path d="M195.4,64.7h9.4v123.2h-9.4V64.7z"/>
<path d="M159.6,187.9h-9.4V64.8h9.4L159.6,187.9z"/>
<path d="M105,64.7v123.2h-6.3V64.7H105z"/>
<path d="M127.8,187.9V64.7h6v123.2H127.8z"/>
<path d="M37.1,205.2h-2.9V64.8h2.9V205.2z"/>
<path d="M247,64.7h2.9v140.5H247V64.7z"/>
<path d="M240.5,64.7h2.9v140.5h-2.9V64.7z"/>
<path d="M43.5,205.2h-2.9V64.8h2.9L43.5,205.2z"/>
<path d="M143.8,64.7h2.9v140.4h-2.9V64.7z"/>
<path d="M140.3,205.2h-2.9V64.8h2.9L140.3,205.2z"/>
<path d="M66.2,187.9h-3.2V64.8h3.2V187.9z"/>
<path d="M224.3,64.7h3.2v123.2h-3.2L224.3,64.7z"/>
<path d="M221,187.9h-3.2V64.8h3.2V187.9z"/>
<path d="M166.2,64.7h3.2v123.2h-3.2L166.2,64.7z"/>
<path d="M214.6,187.9h-3.2V64.7h3.2L214.6,187.9z"/>
<path d="M108.2,64.7h3.2v123.2h-3.2V64.7z"/>
<path d="M85.7,64.7h2.9v123.2h-2.9V64.7z"/>
<path d="M188.9,64.7h2.9v123.2h-2.9V64.7z"/>
<path d="M120.9,187.9h-2.7V64.7h2.7L120.9,187.9z"/>
<path d="M217,205.7c1.2-1.7,3.1-2.8,5.2-3c3.6-0.3,6.9,2.2,7.5,5.8c0.9,3.9-0.9,8-4.2,9.5c-3.9,1.8-8.5,0.2-10.3-3.7
	c-0.1-0.2-0.2-0.3-0.2-0.5c-1.8-4.9-1.6-10.3,0.4-15.1c1.7-3.9,6.2-5.7,10.1-4c0.3,0.1,0.7,0.3,1,0.5c1.7,1.1,2.8,3,2.9,5.1
	l-2.7,0.4c-0.1-0.2-0.3-0.5-0.3-0.7c-0.6-3.2-5.3-4.1-7.6-1.3C217.3,200.7,216.6,203.2,217,205.7z M222.2,205.5
	c-2.6-0.1-4.9,2-5,4.6c0,0.1,0,0.2,0,0.3c0,3.1,2.2,5.4,5,5.4c2.8,0,4.7-2.2,4.7-5.4C226.9,207.5,225,205.5,222.2,205.5z"/>
<path d="M173.7,206.5c-0.5,2.7-1.1,5.3-1.8,8c-1.1,3-3.5,4.4-6.7,4.3c-2.8,0.1-5.3-1.7-6.2-4.3c-1.9-5-2-10.6-0.1-15.6
	c0.9-2.9,3.6-4.7,6.6-4.6c3-0.2,5.7,1.7,6.6,4.5C172.7,201.3,173.3,203.8,173.7,206.5z M170.4,206.2c-0.2-2-0.5-4-1-6
	c-0.5-2-2.2-3.3-4.3-3.2c-2,0-3.6,1.4-4.1,3.9c-0.8,3.7-0.8,7.4,0,11.1c0.2,1.5,1.2,2.7,2.5,3.4c2.6,1.3,5.3-0.2,6.1-3.4
	C170,210.1,170.3,208.2,170.4,206.2L170.4,206.2z"/>
<path d="M192.5,206.4c-0.5,2.7-1.1,5.4-1.9,8.1c-1.1,3.1-3.7,4.4-6.9,4.2c-2.7-0.1-5.2-1.8-6.1-4.4c-1.6-3.9-1.4-7.9-1-11.9
	c0.1-2.3,1.1-4.6,2.7-6.3c3-3,8.4-2.6,10.6,1c0.9,1.8,1.6,3.7,2,5.6c0.2,1.2,0.3,2.4,0.3,3.6L192.5,206.4z M189.3,206.4
	c-0.3-2.1-0.5-4.2-1-6.3c-0.4-1.9-2.1-3.2-4-3.2c-2.3,0-4.1,1.5-4.4,4.3c-0.3,3.1-0.2,6.3-0.2,9.5c0,0.6,0.2,1.2,0.4,1.7
	c0.5,1.9,2.2,3.3,4.2,3.3c2,0,3.6-1.4,4-3.3C188.8,210.6,189,208.5,189.3,206.4L189.3,206.4z"/>
<path d="M107.9,206.5c-0.4,2.7-1.1,5.3-1.8,7.9c-1.1,3.1-3.7,4.4-7,4.2c-2.8,0-5.2-1.8-6-4.5c-1.8-4.9-1.8-10.3-0.1-15.3
	c0.8-2.9,3.5-4.8,6.5-4.8c3.1-0.2,6,1.7,6.9,4.7c0.5,1.2,0.8,2.5,1,3.8c0.1,1.2,0.2,2.5,0.2,3.7L107.9,206.5z M104.7,206.7
	c-0.2-2.2-0.6-4.4-1.1-6.5c-0.5-2.3-2.8-3.7-5-3.1c-0.5,0.1-0.9,0.3-1.3,0.5c-1.2,0.9-2,2.2-2.2,3.7c-0.6,3.2-0.7,6.4-0.2,9.6
	c0.1,0.8,0.3,1.6,0.7,2.3c0.6,1.6,2.1,2.6,3.8,2.6c1.7,0.1,3.3-0.9,3.9-2.6C104,211.1,104.4,208.9,104.7,206.7L104.7,206.7z"/>
<path d="M211.1,207c-0.2,2.2-0.6,4.4-1.2,6.5c-1.7,5.6-7.2,6.2-10.7,4.2c-1.6-1-2.7-2.5-3.1-4.3c-1.4-4.5-1.4-9.3,0-13.8
	c0.9-3.8,4.8-6.2,8.6-5.3c0.9,0.2,1.8,0.6,2.5,1.2c1.8,1.5,3,3.6,3.3,5.9C210.8,203,210.9,204.7,211.1,207z M208.1,206.6
	c-0.3-2.1-0.5-4.2-1-6.2c-0.4-2-2.2-3.4-4.2-3.3c-2-0.1-3.7,1.3-4.1,3.3c-1.1,4-1.1,8.2,0,12.2c0.4,2,2.2,3.4,4.2,3.3
	c2,0,3.7-1.4,4.1-3.3C207.7,210.6,207.8,208.6,208.1,206.6L208.1,206.6z"/>
<path d="M114.6,215.4h11.5v3h-15.9c0.2-2.2,1.2-4.3,3-5.7c2-1.9,4.1-3.5,6.1-5.4c1.1-1,2.1-2.1,3-3.4c1.2-1.4,1.3-3.5,0.2-5.1
	c-1.2-1.5-3.2-2.2-5-1.8c-1.9,0.3-3.4,1.8-3.6,3.7c0,0.2-0.1,0.3-0.1,0.6l-2.9-0.4c0.3-5.5,4.9-7.5,9.4-6.7c4,0.7,6.2,3.4,5.9,6.8
	c-0.1,2-1,3.8-2.4,5.1c-2.4,2.3-4.9,4.4-7.3,6.7c-0.7,0.7-1.3,1.4-2,2.1L114.6,215.4z"/>
<path d="M65.7,205c3.3,1.5,4.5,3.6,4.2,6.9c-0.4,3.1-2.7,5.7-5.7,6.5c-4.1,1-7.9-0.6-9.4-4c-0.3-0.8-0.5-1.5-0.7-2.3l2.9-0.6
	c0.7,1.7,1.1,3.8,3.4,4.1c1.2,0.2,2.5,0.1,3.7-0.2c2.3-0.9,3.4-3.5,2.6-5.9c-0.8-2.3-3.3-3.4-6.5-2.7l0.3-2.5c1-0.2,2.1-0.4,3.1-0.7
	c1.6-0.4,2.6-1.9,2.3-3.5c-0.3-1.7-1.7-2.9-3.4-2.9c-2.6-0.2-3.8,0.7-5,3.9l-2.8-0.6c0.3-3.2,2.8-5.8,6-6.1c2.9-0.5,5.8,0.7,7.4,3.1
	c1.6,2.3,1,5.5-1.3,7.1c0,0-0.1,0.1-0.1,0.1C66.2,204.6,66,204.8,65.7,205z"/>
<path d="M78.8,206.7l0.3-2.5c1-0.2,2.1-0.4,3.1-0.7c1.8-0.7,2.6-2,2.3-3.5c-0.3-1.7-1.7-2.9-3.4-2.9c-2.6-0.2-3.8,0.7-5,3.8
	l-2.7-0.5c0.3-3.3,3-6,6.3-6.2c2-0.2,3.9,0.3,5.5,1.5c3.3,2.6,3.1,6.6-0.6,9.2c0,0.1,0.1,0.2,0.1,0.2c3.1,1.4,4.3,3.4,4,6.7
	c-0.4,3.1-2.6,5.8-5.7,6.6c-4.6,1.1-8.7-1-9.8-5c-0.1-0.4-0.2-0.8-0.3-1.3l2.9-0.6c0.6,1.7,1.1,3.6,3,4.1c1.3,0.3,2.7,0.3,4-0.1
	c2.3-0.9,3.5-3.5,2.6-5.8C84.7,207.2,82.3,206.1,78.8,206.7z"/>
</svg>
