<?xml version="1.0" encoding="utf-8"?>
<!-- Generator: Adobe Illustrator 22.0.1, SVG Export Plug-In . SVG Version: 6.00 Build 0)  -->
<svg version="1.1" id="Layer_1" xmlns="http://www.w3.org/2000/svg" xmlns:xlink="http://www.w3.org/1999/xlink" x="0px" y="0px"
	 viewBox="0 0 283.5 283.5" style="enable-background:new 0 0 283.5 283.5;" xml:space="preserve">
<title>Untitled-2</title>
<g>
	<path d="M46.7,64.7h12.8V188H46.7V64.7z"/>
	<path d="M182.1,188.1h-9.7V64.7h9.7V188.1z"/>
	<path d="M150,64.7h9.4V188H150V64.7z"/>
	<path d="M214.7,188.1h-6.5V64.7h6.5V188.1z"/>
	<path d="M201.8,64.7V188h-6.6V64.7H201.8z"/>
	<path d="M98.4,64.7h6.3V188h-6.3V64.7z"/>
	<path d="M127.1,188.1h-6.3V64.7h6.3V188.1z"/>
	<path d="M82.3,64.7h6V188h-6V64.7z"/>
	<path d="M33.8,64.7h2.9v140.6h-2.9V64.7z"/>
	<path d="M249.8,205.4h-2.9V64.7h2.9V205.4z"/>
	<path d="M240.4,64.7h2.9v140.6h-2.9V64.7z"/>
	<path d="M40.2,64.7h2.9v140.6h-2.9V64.7z"/>
	<path d="M140,205.4h-2.9V64.7h2.9V205.4z"/>
	<path d="M146.5,205.4h-2.9V64.7h2.9V205.4z"/>
	<path d="M62.7,64.7h3.2V188h-3.2V64.7z"/>
	<path d="M227.3,188.1h-3.2V64.7h3.2V188.1z"/>
	<path d="M220.9,188.1h-3.2V64.7h3.2L220.9,188.1z"/>
	<path d="M166,64.7h3.2V188H166V64.7z"/>
	<path d="M107.9,188V64.7h3.2V188H107.9z"/>
	<path d="M188.8,64.7h2.9V188h-2.9V64.7z"/>
	<path d="M130.6,64.7h2.9V188h-2.9V64.7z"/>
	<path d="M75.5,188h-2.7V64.7h2.7V188z"/>
	<path d="M229.3,200.4c-0.4,0-0.9,0-1.3,0.1c-1.1,0.4-1.6,0.2-2.2-1c-1-2.1-3.6-3.1-5.7-2c-0.3,0.1-0.6,0.3-0.8,0.5
		c-2.3,2-2.7,4.7-2.7,7.9c1.2-1.8,3.2-2.9,5.4-3.1c3.7-0.3,6.9,2.3,7.5,6c0.8,3.3-0.5,6.8-3.2,8.9c-3.6,2.3-8.4,1.2-10.7-2.4
		c-0.3-0.4-0.5-0.8-0.6-1.2c-1.8-4.9-1.7-10.4,0.4-15.2c1.6-3.8,5.9-5.6,9.8-4.1C227.5,195.6,229.2,197.8,229.3,200.4z M222.1,205.7
		c-2.7-0.1-4.9,2-5,4.6c0,0.1,0,0.2,0,0.2c-0.2,2.8,2,5.3,4.8,5.5c0,0,0,0,0,0c2.6,0,4.7-2,4.8-4.7c0-0.2,0-0.5,0-0.7
		c0.2-2.5-1.6-4.7-4.2-5C222.4,205.7,222.3,205.7,222.1,205.7z"/>
	<path d="M107.2,206.5c0.1,2.8-0.4,5.6-1.5,8.2c-1.2,2.8-4,4.5-7,4.1c-2.7-0.1-5.1-1.8-6-4.3c-1.4-3.8-1.7-7.9-1-11.9
		c0.1-2.4,1.1-4.7,2.8-6.5c2.8-2.7,7.2-2.6,9.8,0.2c0.3,0.3,0.5,0.6,0.8,0.9c0.9,1.8,1.6,3.7,2,5.6
		C107.2,204.1,107.2,205.3,107.2,206.5z M104.4,207.1c-0.4-2.4-0.5-4.5-1-6.5c-0.5-2.2-2.6-3.6-4.8-3.3c-1.9,0.4-3.3,1.9-3.6,3.8
		c-0.8,3.5-0.8,7.2,0,10.8c0.1,0.6,0.4,1.2,0.7,1.8c0.7,1.5,2.2,2.4,3.9,2.3c1.6,0,3.1-1,3.6-2.5c0.6-2.1,1-4.3,1.4-6.5V207.1z"/>
	<path d="M175.9,206.5c0.3-2.3,0.7-4.6,1.2-6.8c0.6-2.8,2.9-4.9,5.7-5.3c2.5-0.5,5.1,0.4,6.7,2.4c1.3,1.7,2,3.7,2.2,5.8
		c0.5,3.4,0.4,7-0.4,10.4c-0.6,3.6-3.9,6.2-7.6,5.9c-2.6,0-5-1.6-6-4C176.5,212.2,175.9,209.3,175.9,206.5z M189.1,206.6
		c-0.3-2.2-0.5-4.3-1-6.3c-0.4-1.9-2.1-3.2-4-3.2c-1.9-0.1-3.6,1.2-4,3c-1.3,4.1-1.3,8.5,0,12.7c0.8,2.2,3.2,3.4,5.5,2.7
		c1.3-0.5,2.3-1.5,2.7-2.9C188.6,210.8,188.8,208.6,189.1,206.6L189.1,206.6z"/>
	<path d="M173.5,206.6c-0.5,2.7-1.1,5.3-1.9,7.9c-0.9,2.9-3.8,4.7-6.7,4.3c-2.8,0-5.3-1.7-6.3-4.3c-1.1-3-1.6-6.3-1.3-9.5
		c0-2.4,0.5-4.8,1.5-7c1.8-3.5,6.1-4.8,9.6-3c1.3,0.7,2.3,1.7,3,3c1.2,2.6,1.7,5.5,1.6,8.4L173.5,206.6z M170.3,206.3
		c-0.3-1.9-0.5-4-1.1-6.1c-0.5-1.8-2.2-3-4-3c-1.9-0.1-3.5,1.2-4,3c-1.2,4.1-1.2,8.5,0,12.6c0.5,2.1,2.6,3.5,4.8,3.2
		c1.9-0.4,3.4-1.9,3.7-3.9C169.9,210.3,170,208.4,170.3,206.3z"/>
	<path d="M126.3,205.6c-0.3,2.7-0.7,5.3-1.2,7.9c-0.9,3.8-4.8,6.1-8.6,5.2c-2.4-0.6-4.3-2.3-5-4.6c-1.7-4.8-1.7-10.1,0-14.9
		c1.3-3.7,5.3-5.7,9-4.4c2.1,0.7,3.7,2.4,4.4,4.4C125.5,201.2,126,203.4,126.3,205.6z M123.2,206.8c-0.3-2-0.4-4.1-0.9-6.1
		c-0.4-2-2.1-3.5-4.2-3.5c-2.1,0-3.9,1.4-4.2,3.5c-1,3.9-1,8,0,12c0.4,2,2.1,3.4,4.2,3.4c2,0,3.8-1.4,4.2-3.4
		C122.7,210.7,123,208.7,123.2,206.8z"/>
	<path d="M72.2,218.5c0-1.7,0.7-3.3,1.9-4.5c2.3-2.3,4.8-4.3,7.2-6.6c1.1-1.1,2.1-2.2,3-3.5c1.1-1.5,1.1-3.5,0-5.1
		c-1.2-1.5-3.2-2.1-5.1-1.6c-1.9,0.3-3.3,1.9-3.4,3.8c0,0.2,0,0.3,0,0.5l-2.9-0.3c0-3.8,3.1-6.9,6.9-6.9c0.1,0,0.1,0,0.2,0
		c2.1-0.2,4.1,0.4,5.8,1.6c2.9,2.3,3.4,6.4,1.2,9.3c-0.2,0.2-0.3,0.4-0.5,0.6c-2,2.2-4.3,4.1-6.5,6.2l-3.6,3.1l0.2,0.4h11.6v3
		L72.2,218.5z"/>
	<path d="M56.9,201l-2.8-0.6c0.3-3.2,2.8-5.7,6-6.1c3-0.6,5.9,0.7,7.5,3.3c1.5,2.8,0.9,5.3-2.2,7.4c0,0,0,0.2,0,0.2
		c3.4,1.3,5,5.2,3.7,8.5c-0.2,0.5-0.5,1.1-0.9,1.5c-1.8,2.7-5.1,4.1-8.3,3.5c-3.1-0.3-5.6-2.6-6.2-5.7c0-0.1,0-0.3,0-0.4v-0.5
		l2.8-0.6c0.7,1.7,1.1,3.7,3.2,4.1c1.3,0.3,2.6,0.2,3.8-0.2c2.3-0.9,3.4-3.6,2.6-5.9c-0.8-2.3-3.3-3.4-6.5-2.7l0.2-2.6
		c1.1-0.2,2.2-0.5,3.2-0.8c1.5-0.5,2.4-1.9,2.2-3.5c-0.3-1.6-1.7-2.9-3.4-2.9C59.4,197,58.1,197.9,56.9,201z"/>
	<path d="M206.1,218.5h-2.9V200l-5.7,3.3c-0.7-2-0.4-2.6,1-3.6c1.8-1.3,3.4-2.7,5-4.3c0.8-0.9,1.4-1.4,2.6-1.1L206.1,218.5z"/>
</g>
</svg>
