<?xml version="1.0" encoding="utf-8"?>
<!-- Generator: Adobe Illustrator 21.0.2, SVG Export Plug-In . SVG Version: 6.00 Build 0)  -->
<svg version="1.1" id="Layer_1" xmlns="http://www.w3.org/2000/svg" xmlns:xlink="http://www.w3.org/1999/xlink" x="0px" y="0px"
	 viewBox="0 0 283.5 283.5" style="enable-background:new 0 0 283.5 283.5;" xml:space="preserve">
<title>Untitled-2</title>
<path d="M79.1,187.9h-9.9V64.7h9.9L79.1,187.9z"/>
<path d="M56.4,187.9h-9.6V64.7h9.6V187.9z"/>
<path d="M224.3,64.7h9.6v123.2h-9.6V64.7z"/>
<path d="M182.3,187.9h-9.7V64.8h9.7V187.9z"/>
<path d="M204.8,187.9h-9.4V64.8h9.4V187.9z"/>
<path d="M159.6,187.9h-9.4V64.7h9.4V187.9z"/>
<path d="M66.2,188h-6.5V64.8h6.5V188z"/>
<path d="M82.1,64.7h6.6v123.2h-6.6V64.7z"/>
<path d="M111.4,187.9h-6.3V64.8h6.3V187.9z"/>
<path d="M124.3,187.9h-6V64.8h6V187.9z"/>
<path d="M37.1,205.2h-2.9V64.8h2.9V205.2z"/>
<path d="M249.9,205.2H247V64.8h2.9V205.2z"/>
<path d="M243.5,205.2h-2.9V64.8h2.9V205.2z"/>
<path d="M43.5,205.2h-2.9V64.8h2.9V205.2z"/>
<path d="M137.3,64.7h2.9v140.4h-2.9V64.7z"/>
<path d="M143.8,64.7h2.9v140.5h-2.9V64.7z"/>
<path d="M221,187.9h-3.2V64.8h3.2V187.9z"/>
<path d="M169.4,187.9h-3.2V64.8h3.2V187.9z"/>
<path d="M214.6,187.9h-3.2V64.7h3.2V187.9z"/>
<path d="M101.6,187.9h-2.9V64.8h2.9V187.9z"/>
<path d="M191.9,187.9h-2.9V64.7h2.9V187.9z"/>
<path d="M131.2,64.7h2.7v123.2h-2.7V64.7z"/>
<path d="M92.2,212.8c0.2,0,0.4,0,0.6-0.1c1.4-0.4,2.2-0.2,2.9,1.3c1,2.2,4.6,2.4,6.6,0.5c2.1-2,2.3-4.7,2.5-7.6
	c-0.4,0.4-0.7,0.6-0.9,0.8c-1.8,2.1-4.7,2.9-7.3,2c-2.6-0.8-4.5-3.1-4.7-5.9c-0.4-3,0-5.9,2.5-8c3.3-2.8,8.2-2.3,11,1
	c0.8,1,1.4,2.1,1.7,3.4c1,4.1,0.9,8.4-0.3,12.5c-1.1,4.2-5.4,6.8-9.6,5.7c-0.1,0-0.2,0-0.2-0.1C94.3,217.8,92.7,215.9,92.2,212.8z
	 M99.6,207.3c2.9,0,4.8-2,4.8-5.1c0-3-1.9-5.2-4.7-5.2c-2.8,0-5,2.4-5,5.4c-0.1,2.6,2,4.8,4.6,4.9C99.4,207.3,99.5,207.3,99.6,207.3
	z"/>
<path d="M173.7,206.5c-0.5,2.7-1.1,5.4-1.9,8c-1.1,3-3.6,4.4-6.8,4.2c-2.8,0.1-5.3-1.7-6.2-4.3c-1.9-5-1.9-10.6-0.1-15.6
	c0.9-2.8,3.5-4.6,6.4-4.5c3.3-0.1,5.7,1.4,6.8,4.5C172.7,201.2,173.3,203.8,173.7,206.5z M170.4,206.2c-0.2-2-0.6-4.1-1-6.1
	c-0.5-1.9-2.2-3.2-4.2-3.2c-2.2,0-3.7,1.5-4.3,4.2c-0.6,3.2-0.7,6.5-0.2,9.7c0.1,1.8,1,3.4,2.6,4.4c2.6,1.5,5.5,0,6.3-3.3
	C170,210.1,170.3,208.2,170.4,206.2L170.4,206.2z"/>
<path d="M192.5,206.4c-0.4,2.7-1,5.3-1.8,8c-1.1,3.1-3.7,4.5-7,4.3c-2.8-0.1-5.2-1.9-6.1-4.5c-1.5-3.8-1.4-7.8-1-11.8
	c0.1-2.3,1.1-4.6,2.7-6.3c3-3,8.4-2.6,10.6,1c0.9,1.8,1.6,3.7,2,5.6c0.2,1.2,0.3,2.4,0.3,3.6L192.5,206.4z M189.3,206.5
	c-0.3-2.1-0.5-4.2-1-6.3c-0.4-1.9-2.1-3.2-4-3.2c-2.3,0-3.9,1.5-4.5,4.2c-0.6,3.2-0.7,6.4-0.2,9.6c0.1,0.7,0.3,1.3,0.5,2
	c0.6,1.8,2.2,3,4,3c1.9,0,3.6-1.3,4-3.2C188.8,210.7,189,208.6,189.3,206.5L189.3,206.5z"/>
<path d="M211,207.6c-0.2,2-0.6,4-1.1,5.9c-1.8,5.6-7.3,6.2-10.7,4.2c-1.6-1-2.7-2.6-3.2-4.4c-1.3-4.4-1.3-9.1,0-13.5
	c1.1-3.9,3.7-5.7,7.6-5.6c2.2,0,4.3,1.2,5.4,3.2C210.7,200.1,210.8,203.3,211,207.6z M208.1,206.5c-0.3-2.1-0.5-4.2-1-6.3
	c-0.5-1.9-2.1-3.2-4.1-3.1c-1.9-0.1-3.6,1.2-4,3.1c-1.2,4.1-1.2,8.4-0.1,12.4c0.4,1.9,2.2,3.3,4.1,3.3c2,0,3.7-1.3,4.1-3.3
	C207.7,210.6,207.8,208.6,208.1,206.5L208.1,206.5z"/>
<path d="M226.5,194.6v15.1h3.2v3.1h-3.2v5.7h-3v-5.6h-10.5c-0.2-1.7-0.2-3.1,0.9-4.6c3.1-4.1,6.1-8.2,9-12.4
	C223.7,194.6,225.2,194.1,226.5,194.6z M223.5,199.6l-0.3-0.1l-7.2,10h7.4V199.6z"/>
<path d="M69.8,194.5c0.3,1.4-0.1,2.8-1.1,3.8c-4.4,5.4-7.2,12-8,19c0,0.3-0.1,0.7-0.2,1.1h-3c0.6-7.6,3.5-14.9,8.4-20.8H54.3v-3.1
	H69.8z"/>
<path d="M73.1,197.6v-3h15.5c0.3,1.2,0,2.5-0.7,3.5c-4.6,5.5-7.5,12.3-8.3,19.4c0,0.3-0.1,0.6-0.2,1h-2.9c0.2-3.8,1-7.5,2.5-11
	c1.4-3.6,3.4-6.9,5.9-9.9L73.1,197.6z"/>
<path d="M112.9,203.3v-3.1c2.7-1.2,5-3.1,6.7-5.4c0.3-0.5,1.2-0.6,2.1-0.9v24.5h-2.9v-18.5L112.9,203.3z"/>
</svg>
