<?xml version="1.0" encoding="utf-8"?>
<!-- Generator: Adobe Illustrator 21.0.2, SVG Export Plug-In . SVG Version: 6.00 Build 0)  -->
<svg version="1.1" id="Layer_1" xmlns="http://www.w3.org/2000/svg" xmlns:xlink="http://www.w3.org/1999/xlink" x="0px" y="0px"
	 viewBox="0 0 283.5 283.5" style="enable-background:new 0 0 283.5 283.5;" xml:space="preserve">
<title>Untitled-2</title>
<path d="M124.3,187.9h-9.9V64.8h9.9L124.3,187.9z"/>
<path d="M101.5,64.7h9.9v123.2h-9.9V64.7z"/>
<path d="M182.3,187.9h-9.7V64.8h9.7V187.9z"/>
<path d="M159.6,187.9h-9.4V64.8h9.4V187.9z"/>
<path d="M237,187.9h-9.4V64.7h9.4L237,187.9z"/>
<path d="M195.4,64.7h9.4v123.2h-9.4V64.7z"/>
<path d="M98.5,187.9h-6.6V64.8h6.6V187.9z"/>
<path d="M133.8,187.9h-6.6V64.8h6.6V187.9z"/>
<path d="M50.4,64.7h6v123.2h-6L50.4,64.7z"/>
<path d="M73.1,64.7h6v123.2h-6V64.7z"/>
<path d="M249.9,205.2H247V64.7h2.9V205.2z"/>
<path d="M43.5,205.2h-2.9V64.8h2.9V205.2z"/>
<path d="M34.1,64.7h2.9v140.5h-2.9V64.7z"/>
<path d="M140.3,205.2h-2.9V64.8h2.9V205.2z"/>
<path d="M146.7,205.2h-2.9V64.8h2.9L146.7,205.2z"/>
<path d="M243.5,205.2h-2.9V64.8h2.9V205.2z"/>
<path d="M221,187.9h-3.2V64.7h3.2V187.9z"/>
<path d="M211.4,64.7h3.2v123.2h-3.2V64.7z"/>
<path d="M169.4,187.9h-3.2V64.8h3.2V187.9z"/>
<path d="M191.9,187.9h-2.9V64.8h2.9V187.9z"/>
<path d="M66.2,187.9h-2.9V64.8h2.9V187.9z"/>
<path d="M88.7,187.9H86V64.8h2.7L88.7,187.9z"/>
<path d="M96,205.1c-2.8-1.7-3.9-3.6-3.3-6c0.8-3,2.9-4.5,5.9-4.8c2.1-0.3,4.2,0.3,5.9,1.6c2.8,2.3,2.9,7.5-0.9,9
	c-0.1,0-0.2,0.2-0.3,0.3c2.9,0.9,4.7,3.9,4.2,6.9c-0.2,2.9-2.2,5.4-5,6.2c-4.6,1.6-9.5-0.7-10.6-4.9C91,209.6,92.4,206.6,96,205.1z
	 M99.7,215.8c2.5,0.2,4.7-1.6,4.9-4.1c0-0.2,0-0.3,0-0.5c0.2-2.7-1.9-5.1-4.6-5.2c-2.7-0.2-5.1,1.9-5.2,4.6s1.9,5.1,4.6,5.2
	C99.5,215.8,99.6,215.8,99.7,215.8z M99.7,203.7c2.2,0,3.9-1.4,3.9-3.3c0-1.8-1.8-3.4-4-3.4c-2.3,0-4,1.4-4,3.3
	C95.7,202.3,97.3,203.7,99.7,203.7z"/>
<path d="M214.6,206.7c0.7-4,1.5-7.8,2.2-11.5c0.1-0.3,0.4-0.7,0.7-0.7c3.8,0,7.5,0,11.4,0v3.1h-9.6c-0.4,2.1-0.8,4-1.3,6.2
	c1.7-1.2,3.7-1.8,5.8-1.5c2,0.3,3.7,1.4,4.9,3c2.1,3.2,1.9,7.2-0.3,10.3c-2.2,2.9-6.1,4-9.5,2.7c-2.7-0.8-4.6-3.3-4.6-6.1l2.8-0.4
	c0.1,0.3,0.2,0.4,0.2,0.6c0.7,2.6,2.3,3.7,5.1,3.5c2.2-0.1,4.1-1.8,4.4-4c0.1-0.7,0.2-1.4,0.2-2c-0.1-2-0.8-3.7-2.8-4.4
	c-2.1-0.8-4.3-0.8-5.8,0.9C217,207.7,215.9,207.1,214.6,206.7z"/>
<path d="M157.2,206.3c0.3-2.4,0.8-4.9,1.5-7.3c0.8-2.9,3.4-4.9,6.4-4.9c3.5,0,5.8,1.4,7,4.7c1.9,5,1.8,10.6-0.2,15.6
	c-1.2,3-3.6,4.3-6.8,4.2c-2.7,0-5.2-1.7-6.2-4.3c-1-2.6-1.5-5.3-1.3-8.1L157.2,206.3z M170.4,206.3c-0.2-2-0.6-4.1-1-6.1
	c-0.5-2-2.3-3.3-4.3-3.2c-2,0.1-3.5,1.4-4.1,3.9c-0.8,3.7-0.8,7.4,0,11.1c0.3,1.5,1.2,2.7,2.5,3.4c2.6,1.2,5.3-0.2,6.1-3.4
	C170.1,210.2,170.2,208.4,170.4,206.3L170.4,206.3z"/>
<path d="M192.5,206.5c-0.5,2.7-1.1,5.3-1.9,7.9c-1.1,3.1-3.7,4.4-6.9,4.2c-2.8,0-5.2-1.8-6.1-4.5c-1.5-3.8-1.4-7.8-1-11.8
	c0.1-2.3,1.1-4.6,2.7-6.3c2.8-2.7,7.3-2.6,10,0.2c0.3,0.3,0.5,0.6,0.7,0.9c1.9,2.8,2,6.1,2.1,9.3L192.5,206.5z M189.3,206.5
	c-0.3-2.2-0.5-4.3-1-6.3c-0.4-1.9-2.1-3.2-4-3.2c-2.3,0-3.9,1.5-4.5,4.1c-0.6,3.2-0.7,6.5-0.2,9.7c0.1,0.7,0.3,1.3,0.5,2
	c0.6,1.8,2.2,3,4.1,3c1.9,0,3.5-1.3,4-3.1C188.8,210.7,189,208.6,189.3,206.5z"/>
<path d="M211.1,207c-0.2,2.2-0.6,4.4-1.2,6.5c-1.7,5.6-7.2,6.2-10.7,4.2c-1.6-1-2.7-2.5-3.1-4.3c-1.4-4.5-1.4-9.3,0-13.8
	c0.9-3.8,4.8-6.2,8.6-5.3c0.9,0.2,1.8,0.6,2.5,1.2c1.8,1.5,3,3.6,3.3,5.9C210.8,203,210.9,204.7,211.1,207z M208.1,206.4
	c-0.3-2.1-0.5-4.2-1-6.3c-0.5-1.9-2.1-3.2-4.1-3.1c-1.9-0.1-3.6,1.2-4,3.1c-1.2,4.1-1.2,8.4-0.1,12.4c0.4,1.9,2.2,3.3,4.1,3.3
	c2,0,3.7-1.4,4.1-3.3C207.7,210.6,207.8,208.5,208.1,206.4L208.1,206.4z"/>
<path d="M117.1,218.4h-2.9c0.1-3.8,0.9-7.5,2.5-11c1.6-3.4,3.5-6.6,5.3-9.9h-11.2v-3.1h15.5c0.3,1.2,0,2.5-0.8,3.5
	c-4.5,5.5-7.4,12.2-8.2,19.3C117.3,217.6,117.2,218,117.1,218.4z"/>
<path d="M84,194.3v24h-2.9v-18.5l-5.7,3.3c-0.7-2.1-0.4-2.6,1.2-3.7c1.8-1.2,3.4-2.7,4.9-4.3C82,194.3,83.1,194,84,194.3z"/>
<path d="M62.3,199.8c-1.9,1.1-3.6,2.1-5.3,3c-0.2,0.1-0.4,0.1-0.6,0.1v-2.7c2.7-1.2,5-3.2,6.7-5.5c0.3-0.4,1.2-0.5,2-0.8v24.4h-2.8
	V199.8z"/>
</svg>
