<?xml version="1.0" encoding="utf-8"?>
<!-- Generator: Adobe Illustrator 21.0.2, SVG Export Plug-In . SVG Version: 6.00 Build 0)  -->
<svg version="1.1" id="Layer_1" xmlns="http://www.w3.org/2000/svg" xmlns:xlink="http://www.w3.org/1999/xlink" x="0px" y="0px"
	 viewBox="0 0 283.5 283.5" style="enable-background:new 0 0 283.5 283.5;" xml:space="preserve">
<title>Untitled-2</title>
<path d="M66.1,187.9H53.4V64.7h12.7V187.9z"/>
<path d="M92.1,64.7h12.8v123.2H92.1V64.7z"/>
<path d="M172.6,64.7h9.6v123.2h-9.6V64.7z"/>
<path d="M133.7,187.9h-9.7V64.7h9.7V187.9z"/>
<path d="M195.3,64.7h9.4v123.2h-9.4V64.7z"/>
<path d="M227.5,64.7h9.4v123.2h-9.4V64.7z"/>
<path d="M150.1,64.7h9.4v123.2h-9.4V64.7z"/>
<path d="M114.3,64.7h6.5v123.2h-6.5V64.7z"/>
<path d="M75.8,64.7h6.3v123.2h-6.3V64.7z"/>
<path d="M240.4,64.7h2.9v140.4h-2.9V64.7z"/>
<path d="M140.2,205.2h-2.9V64.7h2.9L140.2,205.2z"/>
<path d="M146.6,205.2h-2.9V64.7h2.9V205.2z"/>
<path d="M246.9,64.7h2.9v140.5h-2.9V64.7z"/>
<path d="M40.5,64.7h2.9v140.5h-2.9V64.7z"/>
<path d="M36.9,205.2H34V64.7h2.9V205.2z"/>
<path d="M217.7,64.7h3.2v123.2h-3.2V64.7z"/>
<path d="M211.3,64.7h3.2v123.2h-3.2V64.7z"/>
<path d="M166.1,64.7h3.2v123.2h-3.2V64.7z"/>
<path d="M111.2,187.9h-3.2V64.7h3.2V187.9z"/>
<path d="M188.8,64.7h2.9v123.2h-2.9V64.7z"/>
<path d="M85.6,64.7h2.9v123.2h-2.9V64.7z"/>
<path d="M46.9,64.7h2.9v123.2h-2.9V64.7z"/>
<path d="M114.8,205.1c-3.3-2.1-4.2-4.5-2.8-7.4c1-2,3-3.3,5.2-3.5c2.3-0.4,4.6,0.3,6.3,1.8c2.4,2.1,2.9,7.1-1.1,8.8
	c-0.1,0-0.2,0.1-0.4,0.2c4.2,2.4,5.5,6.2,3.4,9.9c-1.7,2.8-5,4.3-8.3,3.7c-5-0.7-7.4-4.8-6.6-8.9
	C110.9,207.5,112.6,205.7,114.8,205.1z M118.4,215.8c2.9,0,4.9-1.9,4.9-4.6c0.2-2.7-1.9-5.1-4.6-5.2c-2.7-0.2-5.1,1.9-5.2,4.6
	c-0.2,2.7,1.9,5.1,4.6,5.2C118.2,215.8,118.3,215.8,118.4,215.8z M118.3,203.7c2.3,0,4-1.4,4-3.4c-0.2-2-1.9-3.4-3.9-3.3
	c-2.3,0-4,1.3-4,3.2C114.4,202.3,116,203.7,118.3,203.7z"/>
<path d="M69.4,200.3l-2.5,0.4c-0.5-1-1.1-1.9-1.9-2.7c-1.9-1.7-5-1.1-6.6,1.2c-1.2,1.8-1.7,4-1.6,6.2c1.2-0.9,2.5-1.7,3.9-2.3
	c3.7-1.2,7.6,0.9,8.7,4.6c0,0.1,0.1,0.2,0.1,0.3c1,3.5-0.3,7.7-3.1,9.6c-3.6,2.4-8.4,1.4-10.7-2.2c-0.3-0.5-0.6-1.1-0.8-1.6
	c-1.7-4.8-1.6-10,0.4-14.8c1.7-4,6.2-5.8,10.2-4.2c0.3,0.1,0.6,0.3,0.8,0.4C68.1,196.2,69.2,198.2,69.4,200.3z M62.2,215.8
	c2.8,0,4.7-2.1,4.7-5.3c0-3-1.9-5-4.7-5c-2.6-0.1-4.9,2-4.9,4.7c0,0.1,0,0.1,0,0.2c-0.2,2.9,2,5.3,4.8,5.5
	C62.1,215.8,62.1,215.8,62.2,215.8L62.2,215.8z"/>
<path d="M214.5,206.6c0.8-4.1,1.5-8.1,2.3-12.1h12v3h-9.6c-0.4,2.1-0.8,4-1.3,6.3c1.6-1.2,3.7-1.8,5.7-1.5c2,0.3,3.8,1.3,4.9,2.9
	c2.1,3.2,2,7.3-0.2,10.4c-2.2,2.9-6.1,4-9.5,2.7c-2.7-0.8-4.6-3.3-4.6-6.1l2.8-0.4c0.1,0.3,0.2,0.5,0.3,0.8c0.5,2.1,2.4,3.6,4.5,3.4
	c2.2,0.2,4.3-1.3,4.8-3.5c0.3-1.2,0.4-2.5,0.1-3.8c-0.7-3.6-5.5-4.8-8.5-2.3C216.8,207.4,216.3,207.4,214.5,206.6z"/>
<path d="M88.8,206.5c-0.4,2.2-0.6,4.5-1.2,6.7c-1,3.5-3.5,5.5-6.6,5.5c-3.7,0-6.2-1.6-7.3-5.2c-1.4-4.6-1.4-9.5,0-14.1
	c1-3.8,4.9-6.1,8.8-5c1.2,0.3,2.2,0.9,3.1,1.7c1.6,1.8,2.6,4.1,2.8,6.5c0.2,1.3,0.2,2.6,0.2,3.9L88.8,206.5z M85.7,206.2
	c-0.2-2-0.5-4-1-6c-0.5-2.1-2.5-3.5-4.7-3.2c-1.8,0.2-3.2,1.6-3.7,3.9c-0.8,3.7-0.8,7.4,0,11.1c0.3,1.5,1.2,2.7,2.5,3.4
	c2.6,1.2,5.4-0.3,6.1-3.4C85.4,210.2,85.4,208.3,85.7,206.2L85.7,206.2z"/>
<path d="M173.3,205c-0.2,4.1-0.3,6.9-1.5,9.5c-1.1,2.7-3.9,4.4-6.9,4.1c-2.8,0-5.2-1.7-6.1-4.3c-1.9-5-2-10.6-0.1-15.6
	c0.9-2.8,3.5-4.7,6.5-4.6c3-0.3,5.8,1.6,6.7,4.5C172.5,200.8,172.9,202.9,173.3,205z M170.3,206.3c-0.2-2-0.6-4.1-1-6.1
	c-0.5-2-2.3-3.3-4.3-3.2c-2,0-3.6,1.4-4.1,3.9c-0.8,3.7-0.8,7.4,0,11.1c0.2,1.5,1.2,2.7,2.5,3.4c2.6,1.3,5.3-0.2,6.1-3.4
	C169.9,210.1,170.2,208.2,170.3,206.3L170.3,206.3z"/>
<path d="M192.4,206.5c-0.5,2.7-1.1,5.4-1.9,8.1c-1.1,3-3.7,4.3-6.9,4.1c-2.7-0.1-5.2-1.8-6.1-4.4c-1.6-3.9-1.4-7.9-1-11.9
	c0.1-2.3,1.1-4.6,2.7-6.3c3-3,8.4-2.6,10.6,1c0.9,1.8,1.6,3.7,2,5.6c0.2,1.2,0.3,2.5,0.3,3.7L192.4,206.5z M189.2,206.5
	c-0.3-2.1-0.5-4.3-1-6.3c-0.4-1.9-2.1-3.2-4-3.2c-2.3,0-4.1,1.5-4.4,4.3c-0.3,3.1-0.2,6.3-0.2,9.5c0.1,0.7,0.2,1.4,0.5,2
	c0.5,1.8,2.2,3,4,3.1c1.9,0,3.6-1.2,4.1-3.1C188.7,210.7,188.9,208.6,189.2,206.5z"/>
<path d="M211,207c-0.2,2.2-0.6,4.3-1.2,6.4c-1.7,5.7-7.3,6.3-10.8,4.2c-1.6-1-2.7-2.5-3.1-4.3c-1.3-4.5-1.3-9.2,0-13.7
	c0.9-3.8,4.8-6.2,8.6-5.3c0.9,0.2,1.8,0.6,2.5,1.1c1.8,1.4,3,3.6,3.3,5.9C210.7,203,210.8,204.7,211,207z M208.1,206.4
	c-0.3-2.1-0.6-4.3-1.1-6.5c-0.5-1.8-2.2-3-4.1-2.9c-1.8-0.1-3.5,1.2-3.9,3c-1.3,4.1-1.3,8.5-0.1,12.7c0.5,1.9,2.2,3.2,4.2,3.2
	c1.9,0,3.6-1.3,4-3.2C207.5,210.6,207.7,208.6,208.1,206.4L208.1,206.4z"/>
<path d="M97.6,206.8l0.3-2.6c1-0.2,2-0.4,3-0.7c1.6-0.4,2.6-1.9,2.4-3.5c-0.3-1.7-1.8-3-3.5-3c-2.6-0.1-3.9,0.9-4.9,3.9l-2.8-0.5
	c0.3-2.7,2.2-5,4.9-5.8c2.9-0.9,6.1-0.1,8.2,2.2c2.2,2.7,1.5,5.8-1.7,8.3c2.1,0.6,3.7,2.4,4.1,4.5c0.8,4.1-1.9,8.1-6,8.9
	c-0.4,0.1-0.8,0.1-1.1,0.1c-4.3,0.3-7.4-1.8-8.4-5.5c-0.1-0.3-0.1-0.7-0.2-1.1l2.8-0.6c0.7,1.8,1.2,3.9,3.6,4.2
	c1.2,0.2,2.5,0,3.7-0.4c2.2-0.8,3.1-3.6,2.3-5.9C103.3,207.1,100.7,206,97.6,206.8z"/>
</svg>
