<?xml version="1.0" encoding="utf-8"?>
<!-- Generator: Adobe Illustrator 21.0.2, SVG Export Plug-In . SVG Version: 6.00 Build 0)  -->
<svg version="1.1" id="Layer_1" xmlns="http://www.w3.org/2000/svg" xmlns:xlink="http://www.w3.org/1999/xlink" x="0px" y="0px"
	 viewBox="0 0 283.5 283.5" style="enable-background:new 0 0 283.5 283.5;" xml:space="preserve">
<title>Untitled-2</title>
<path d="M53.4,64.7h12.7v123.2H53.4V64.7z"/>
<path d="M182.2,64.7v123.2h-9.7V64.7H182.2z"/>
<path d="M204.7,64.7v123.2h-9.4V64.7H204.7z"/>
<path d="M150.1,187.9V64.7h9.4v123.2H150.1z"/>
<path d="M121,64.7h6.3v123.2H121V64.7z"/>
<path d="M82.1,187.9h-6.3V64.8h6.3V187.9z"/>
<path d="M111.3,187.9h-6V64.8h6V187.9z"/>
<path d="M249.8,205.2h-2.9V64.8h2.9V205.2z"/>
<path d="M240.4,64.7h2.9v140.4h-2.9L240.4,64.7z"/>
<path d="M140.2,205.2h-2.9V64.8h2.9V205.2z"/>
<path d="M143.7,64.7h2.9v140.5h-2.9V64.7z"/>
<path d="M40.5,64.7h2.9v140.4h-2.9V64.7z"/>
<path d="M37,205.2H34V64.8H37V205.2z"/>
<path d="M227.4,187.9h-3.2V64.8h3.2L227.4,187.9z"/>
<path d="M217.7,64.7h3.2v123.2h-3.2V64.7z"/>
<path d="M211.3,64.7h3.2v123.2h-3.2V64.7z"/>
<path d="M166.1,64.7h3.2v123.2h-3.2V64.7z"/>
<path d="M188.8,64.7h2.9v123.2h-2.9V64.7z"/>
<path d="M133.7,187.9h-2.9V64.8h2.9L133.7,187.9z"/>
<path d="M95.4,64.7h2.9v123.2h-2.9V64.7z"/>
<path d="M88.6,187.9h-2.9V64.7h2.9V187.9z"/>
<path d="M46.9,64.7h2.9v123.2h-2.9V64.7z"/>
<path d="M69.4,200.3c-0.4,0-0.8,0.1-1.3,0.2c-1.1,0.4-1.6,0.1-2.1-1c-1-2.6-4.6-3.3-6.8-1.3c-2.2,2-2.4,4.6-2.5,7.5
	c0.2-0.1,0.4-0.3,0.6-0.4c1.7-2.2,4.6-3.1,7.3-2.2c2.7,0.7,4.6,2.9,5,5.6c0.9,4.4-1.5,9.1-5.9,10c-3.7,0.8-7.5-1.3-8.9-4.8
	c-1.7-4.8-1.6-10.1,0.4-14.9c1.6-3.9,6.1-5.8,10.1-4.2c0.3,0.1,0.7,0.3,1,0.5C68.1,196.3,69.2,198.2,69.4,200.3z M62.1,205.5
	c-2.6-0.1-4.9,2-5,4.6c0,0,0,0.1,0,0.1c-0.2,2.9,2,5.3,4.8,5.5c0.1,0,0.1,0,0.2,0c2.8,0,4.7-2.1,4.7-5.3
	C66.9,207.5,65,205.5,62.1,205.5z"/>
<path d="M229.4,200.3c-0.4,0-0.9,0-1.3,0.1c-1.1,0.5-1.6,0.2-2.1-1c-0.9-2.6-4.5-3.3-6.7-1.4c-2.3,2-2.6,4.7-2.6,7.3
	c1.2-0.9,2.4-1.7,3.8-2.3c3.6-1.2,7.5,0.7,8.7,4.3c0,0,0,0,0,0c1.4,3.8-0.1,8.4-3.2,10.2c-3.7,2.2-8.4,1-10.6-2.7
	c-0.2-0.4-0.4-0.8-0.6-1.2c-1.8-4.9-1.6-10.2,0.4-15c1.6-3.8,5.9-5.7,9.8-4.2C227.7,195.5,228.9,197.5,229.4,200.3z M222.1,205.5
	c-2.6-0.1-4.8,2-4.9,4.6c0,0.1,0,0.1,0,0.2c-0.2,2.8,2,5.3,4.8,5.5c0.1,0,0.1,0,0.2,0c2.8,0,4.6-2.1,4.7-5.3c0.2-2.5-1.6-4.8-4.2-5
	C222.5,205.5,222.3,205.5,222.1,205.5z"/>
<path d="M72.5,206.1c0.3-2.4,0.8-4.8,1.4-7.1c0.8-2.8,3.3-4.8,6.3-4.8c3.5-0.1,5.9,1.3,7,4.6c0.8,2.3,1.2,4.6,1.2,7
	c0,2.5-0.3,5-0.9,7.4c-0.6,3.4-3.7,5.7-7.1,5.5c-3.3,0-5.9-1.9-6.8-5.5C73.2,210.9,72.8,208.5,72.5,206.1z M85.7,206.2
	c-0.2-2-0.5-4-1-6c-0.5-2-2.3-3.4-4.4-3.2c-2,0.1-3.5,1.6-4.1,4.1c-0.6,3.2-0.7,6.5-0.2,9.7c0.1,1.8,1,3.4,2.5,4.4
	c2.5,1.5,5.6,0,6.3-3.2C85.3,210.1,85.6,208.2,85.7,206.2z"/>
<path d="M173.3,205c-0.2,4.1-0.3,6.9-1.5,9.5c-1.1,2.7-3.9,4.4-6.9,4.1c-2.8,0-5.2-1.7-6.1-4.3c-1.9-5-2-10.6-0.1-15.6
	c0.9-2.8,3.5-4.7,6.5-4.6c3-0.3,5.8,1.6,6.7,4.5C172.5,200.8,172.9,202.9,173.3,205z M170.3,206.8c-0.2-1.8-0.3-3.4-0.4-4.9
	c-0.1-0.6-0.2-1.2-0.4-1.7c-0.6-2.2-2.9-3.5-5.1-3.1c-2,0.6-3,2.1-3.3,4c-0.7,3.5-0.7,7.2,0,10.7c0.2,1.6,1.2,2.9,2.6,3.6
	c2.6,1.2,5.3-0.3,6-3.4C169.9,210.3,170.1,208.5,170.3,206.8L170.3,206.8z"/>
<path d="M192.4,206.4c-0.4,2.7-1,5.3-1.7,7.9c-1.1,3.1-3.6,4.5-6.9,4.4c-2.8,0-5.3-1.8-6.2-4.5c-1.5-3.8-1.4-7.8-0.9-11.8
	c0.1-2.3,1.1-4.5,2.6-6.2c2.8-2.7,7.3-2.7,10,0.1c0.3,0.3,0.6,0.6,0.8,1c1.4,2.2,2.1,5.1,2.1,9.2L192.4,206.4z M189.2,206.6
	c-0.3-2.2-0.5-4.3-1-6.3c-0.4-1.9-2.1-3.3-4.1-3.2c-2.2,0-3.8,1.5-4.4,4.2c-0.6,3.2-0.7,6.4-0.2,9.6c0.1,0.7,0.3,1.3,0.5,2
	c0.6,1.8,2.2,3,4,3c1.9,0,3.5-1.2,4-3C188.7,210.8,188.9,208.6,189.2,206.6L189.2,206.6z"/>
<path d="M126.3,207.6c-0.2,2-0.6,3.9-1.1,5.9c-0.6,2.8-2.9,4.9-5.7,5.2c-2.5,0.5-5.1-0.5-6.7-2.5c-1.2-1.7-2-3.7-2.1-5.7
	c-0.5-3.4-0.4-6.8,0.4-10.1c0.8-3,2.3-5.3,5.6-6c2.8-0.7,5.8,0.4,7.4,2.9C126,200,126.1,203.2,126.3,207.6z M123.4,206.5
	c-0.3-2.1-0.5-4.4-1.1-6.5c-0.5-1.8-2.2-3-4-3c-2.2,0-3.8,1.4-4.3,4c-0.7,3.5-0.7,7.2,0,10.7c0.2,0.8,0.5,1.6,0.9,2.2
	c0.8,1.4,2.4,2.1,4,1.8c1.7-0.2,3.1-1.4,3.5-3C122.9,210.8,123.1,208.7,123.4,206.5L123.4,206.5z"/>
<path d="M211,207c-0.2,2.2-0.6,4.4-1.2,6.5c-1.7,5.6-7.2,6.2-10.7,4.2c-1.6-1-2.7-2.5-3.1-4.3c-1.4-4.5-1.4-9.3,0-13.8
	c0.9-3.8,4.8-6.2,8.6-5.3c0.9,0.2,1.8,0.6,2.5,1.2c1.8,1.5,3,3.6,3.3,5.9C210.7,203,210.8,204.7,211,207z M208,206.4
	c-0.3-2.1-0.5-4.2-1-6.2c-0.4-1.9-2.2-3.2-4.1-3.2c-1.9-0.1-3.6,1.3-4,3.2c-1.1,4-1.2,8.3-0.1,12.3c0.4,2,2.2,3.4,4.2,3.3
	c2,0,3.6-1.4,4-3.3C207.6,210.5,207.7,208.5,208,206.4z"/>
<path d="M94.8,201.4l-2.8-0.4c0-3.9,2.8-6.6,6.8-6.9c2.1-0.3,4.2,0.3,6,1.5c2.8,2.1,3.4,6,1.4,8.9c-1.6,2-3.3,3.8-5.2,5.5
	c-1.1,1.1-2.4,2-3.6,3.1c-0.6,0.6-1.2,1.3-2,2.2h11.9v3H91.3c-0.1-1.4,0.5-2.8,1.4-3.9c1.4-1.6,3-3.2,4.6-4.6c2.2-2,4.7-3.7,6.2-6.3
	c1.3-1.9,0.8-4.5-1.1-5.7c-0.2-0.1-0.4-0.3-0.6-0.3C99.2,196.3,95,197.1,94.8,201.4z"/>
</svg>
