<?xml version="1.0" encoding="utf-8"?>
<!-- Generator: Adobe Illustrator 22.0.1, SVG Export Plug-In . SVG Version: 6.00 Build 0)  -->
<svg version="1.1" id="Layer_1" xmlns="http://www.w3.org/2000/svg" xmlns:xlink="http://www.w3.org/1999/xlink" x="0px" y="0px"
	 viewBox="0 0 283.5 283.5" style="enable-background:new 0 0 283.5 283.5;" xml:space="preserve">
<title>Untitled-2</title>
<g>
	<path d="M182.3,188h-9.7V64.8h9.7L182.3,188z"/>
	<path d="M159.7,188h-9.5V64.7h9.5V188z"/>
	<path d="M201.9,188h-6.5V64.7h6.5V188z"/>
	<path d="M214.8,188h-6.5V64.8h6.5V188z"/>
	<path d="M105,188V64.7h6.3V188H105z"/>
	<path d="M127.4,188h-6.5V64.8h6.5V188z"/>
	<path d="M69.3,64.7h6.5V188h-6.5V64.7z"/>
	<path d="M66.1,188h-6.3V64.8h6.3V188z"/>
	<path d="M247,64.7h3v140.5h-3V64.7z"/>
	<path d="M243.5,205.3h-3V64.8h3V205.3z"/>
	<path d="M137.3,64.7h3v140.6h-3V64.7z"/>
	<path d="M143.7,64.7h3v140.5h-3V64.7z"/>
	<path d="M40.5,64.7h3v140.6h-3V64.7z"/>
	<path d="M37,205.3h-3V64.7h3V205.3z"/>
	<path d="M166.1,64.7h3.2V188h-3.2V64.7z"/>
	<path d="M220.7,188h-3V64.7h2.9L220.7,188z"/>
	<path d="M188.9,64.7h3V188h-3V64.7z"/>
	<path d="M133.8,188h-3.1V64.8h3.1V188z"/>
	<path d="M92.1,64.7h3v123.2h-3V64.7z"/>
	<path d="M85.6,64.7h3V188h-3V64.7z"/>
	<path d="M49.9,188h-3.1V64.8h3.1V188z"/>
	<path d="M227.6,64.7h2.7V188h-2.7V64.7z"/>
	<path d="M218.3,205.2c-3.3-2.2-4.3-4.5-2.8-7.4c0.9-1.8,2.6-3.1,4.7-3.4c2.1-0.4,4.4,0,6.2,1.2c2.5,1.6,3.3,5,1.7,7.5
		c-0.6,0.9-1.4,1.6-2.4,2.1c0.7,0.4,1.4,0.8,2,1.2c2,1.7,2.8,4.5,2,7c-0.6,2.6-2.6,4.6-5.2,5.1c-3,1-6.4,0.2-8.6-2.2
		C213,213.3,213,206.8,218.3,205.2z M226.9,211.3c0-2.7-2.2-4.9-4.9-4.9s-4.9,2.2-4.9,4.9c0,2.6,2.2,4.7,4.8,4.6c0.1,0,0.2,0,0.2,0
		c2.5,0.2,4.6-1.7,4.8-4.2C226.8,211.6,226.8,211.5,226.9,211.3L226.9,211.3z M222,203.8c2,0.2,3.7-1.3,3.9-3.2c0,0,0-0.1,0-0.1
		c-0.2-2-2-3.5-4-3.3c-1.9-0.3-3.6,1-3.9,2.8s1,3.6,2.8,3.9C221.2,203.9,221.6,203.9,222,203.8L222,203.8z"/>
	<path d="M87.6,194.6v3c-2.8,0-5.6,0-8.3,0c-1.1,0-1.5,0.3-1.7,1.4c-0.2,1.5-0.6,3.1-0.9,4.8c1.6-1.2,3.5-1.7,5.5-1.5
		c1.9,0.2,3.7,1.2,4.9,2.8c2.1,3.1,2.1,7.2,0,10.3c-2.1,3.1-6.1,4.3-9.6,3c-2.8-0.8-4.7-3.3-4.7-6.2l3-0.3c1.3,3.9,4.5,5.3,7.6,3.4
		c1.9-1.3,2.8-3.6,2.3-5.8c0-1.8-1.2-3.3-2.8-3.9c-2.1-0.9-4.5-0.4-6.2,1.2c-0.9,0.6-2,0.6-3,0.2c-0.2-0.2-0.1-0.5-0.2-0.8
		c0-0.1,0-0.2,0-0.3l2.2-11.2L87.6,194.6z"/>
	<path d="M192.5,206.5c-0.5,2.7-1.1,5.4-1.9,8.1c-1.1,2.8-3.9,4.6-6.9,4.2c-2.7-0.1-5.1-1.8-6.1-4.3c-1.3-3.8-1.7-7.9-1-11.9
		c0.1-2.4,1.1-4.6,2.8-6.3c2.8-2.7,7.2-2.6,9.8,0.2c0.3,0.3,0.5,0.6,0.8,0.9c0.9,1.8,1.6,3.7,2,5.7c0.2,1.1,0.2,2.3,0.2,3.4
		L192.5,206.5z M189.3,206.5c-0.3-2.2-0.5-4.2-1-6.2c-0.4-1.9-2-3.2-3.9-3.3c-2-0.2-3.9,1.1-4.3,3.1c-1.2,4.1-1.2,8.5,0,12.5
		c0.8,2.3,3.2,3.5,5.5,2.7c1.3-0.4,2.3-1.5,2.7-2.8C188.8,210.7,188.9,208.6,189.3,206.5L189.3,206.5z"/>
	<path d="M173.6,206.5c-0.5,2.7-1.1,5.4-1.9,8.1c-1,2.8-3.8,4.6-6.8,4.2c-2.7,0-5.2-1.7-6.2-4.3c-1.2-3-1.6-6.3-1.3-9.6
		c0-2.4,0.5-4.8,1.6-6.9c1.1-2.2,3.4-3.7,5.9-3.7c2.7-0.3,5.3,1.2,6.6,3.6c1.3,2.7,1.8,5.6,1.7,8.6L173.6,206.5z M170.4,206.9
		c-0.2-1.8-0.3-3.4-0.4-4.9c-0.1-0.6-0.2-1.2-0.5-1.7c-0.6-2.3-3-3.6-5.3-3c-0.1,0-0.2,0.1-0.3,0.1c-1.6,0.7-2.7,2.2-2.9,4
		c-0.7,3.5-0.7,7.2,0,10.8c0.2,1.5,1.2,2.7,2.5,3.4c2.1,1,4.7,0.1,5.7-2c0.2-0.4,0.3-0.9,0.4-1.4C170,210.4,170.3,208.6,170.4,206.9
		z"/>
	<path d="M126.5,205.1c-0.4,2.7-0.6,5.4-1.2,8.1c-0.5,3.2-3.3,5.5-6.5,5.5c-3.4,0.5-6.7-1.7-7.5-5.1c-1.5-4.6-1.5-9.6,0-14.2
		c1.1-3.8,5-6,8.8-5c0.7,0.2,1.4,0.5,2,0.9c2,1.5,3.3,3.7,3.5,6.2c0.2,1.2,0.3,2.4,0.4,3.6L126.5,205.1z M123.4,206.6
		c-0.3-2.2-0.5-4.2-1-6.2c-0.4-2-2.2-3.4-4.3-3.3c-2,0-3.7,1.4-4,3.3c-1.1,4-1.1,8.2,0,12.2c0.4,1.9,2.1,3.3,4.1,3.3
		c2,0.1,3.8-1.3,4.2-3.3C123,210.7,123.1,208.6,123.4,206.6z"/>
	<path d="M69.6,212.9h-3.1v5.6h-3v-5.6H53.1c-0.4-1.7,0-3.6,1.2-4.9c3-3.9,5.9-7.9,8.7-12c0.7-1.3,2.2-1.8,3.5-1.3v15.1h3.2
		L69.6,212.9z M63.4,199.8h-0.2l-7.2,10h7.4V199.8z"/>
	<path d="M104.1,209.8h3.2v3.1h-3.1v5.6h-3v-5.6H90.8c-0.4-1.5-0.1-3.2,0.8-4.5c3.1-4.1,6.1-8.2,9-12.4c0.7-1.3,2.2-1.9,3.5-1.4
		L104.1,209.8z M101.1,199.7h-0.2l-7.2,9.9h7.4L101.1,199.7z"/>
	<path d="M206.3,194.4v24.1h-2.9V200l-5.7,3.3c-0.8-2-0.4-2.6,1-3.6c1.8-1.3,3.4-2.7,4.9-4.3C204.4,194.5,205,194,206.3,194.4z"/>
</g>
</svg>
