<?xml version="1.0" encoding="utf-8"?>
<!-- Generator: Adobe Illustrator 22.0.1, SVG Export Plug-In . SVG Version: 6.00 Build 0)  -->
<svg version="1.1" id="Layer_1" xmlns="http://www.w3.org/2000/svg" xmlns:xlink="http://www.w3.org/1999/xlink" x="0px" y="0px"
	 viewBox="0 0 283.5 283.5" style="enable-background:new 0 0 283.5 283.5;" xml:space="preserve">
<title>Untitled-2</title>
<g>
	<path d="M66.2,64.7v123.4H53.3V64.7H66.2z"/>
	<path d="M182.3,64.7v123.4h-9.8V64.7H182.3z"/>
	<path d="M159.6,64.7v123.4H150V64.7H159.6z"/>
	<path d="M214.8,64.7v123.4h-6.7V64.7H214.8z"/>
	<path d="M201.9,64.7v123.4h-6.7V64.7H201.9z"/>
	<path d="M82.2,64.7v123.4h-6.5V64.7H82.2z"/>
	<path d="M111.3,64.7v123.4h-6.5V64.7H111.3z"/>
	<path d="M120.9,64.7V188h-6.5V64.7H120.9z"/>
	<path d="M37,64.7v140.6h-3.1V64.7H37z"/>
	<path d="M249.9,64.7v140.6h-3.1V64.7H249.9z"/>
	<path d="M243.4,64.7v140.6h-3.1V64.7H243.4z"/>
	<path d="M43.4,64.7v140.6h-3.1V64.7H43.4z"/>
	<path d="M140.2,64.7v140.6h-3.1V64.7H140.2z"/>
	<path d="M146.7,64.7v140.6h-3.1V64.7H146.7z"/>
	<path d="M169.4,64.7v123.4H166V64.7H169.4z"/>
	<path d="M49.9,64.7v123.4h-3.1V64.7H49.9z"/>
	<path d="M88.6,64.7v123.4h-3.1V64.7H88.6z"/>
	<path d="M233.6,64.7v123.4h-3.1V64.7H233.6z"/>
	<path d="M191.8,64.7v123.4h-3.1V64.7H191.8z"/>
	<path d="M133.8,64.7v123.4h-3.1V64.7H133.8z"/>
	<path d="M101.5,64.7v123.4h-3.1V64.7H101.5z"/>
	<path d="M220.7,64.7v123.4h-3.1V64.7H220.7z"/>
	<path d="M56.9,205.8c1.2-1.7,3.1-2.8,5.2-3c3.7-0.3,6.9,2.3,7.5,5.9c0.9,3.7-0.7,7.6-4.1,9.4c-3.8,1.9-8.4,0.4-10.3-3.4
		c-0.1-0.2-0.2-0.5-0.3-0.7c-1.8-4.9-1.6-10.3,0.4-15.1c1.8-3.9,6.4-5.7,10.4-3.9c0.2,0.1,0.5,0.2,0.7,0.4c1.7,1.1,2.7,2.9,2.9,4.9
		l-2.5,0.4c-0.5-1-1.1-1.9-1.8-2.8c-2-1.5-4.8-1.1-6.3,0.9c0,0.1-0.1,0.1-0.1,0.2C57.2,201.1,56.6,203.5,56.9,205.8z M62.1,205.7
		c-2.7-0.1-4.9,2-5,4.7c0,0.1,0,0.2,0,0.2c-0.1,2.8,2,5.3,4.9,5.4c0,0,0,0,0.1,0c2.6,0,4.7-2.1,4.7-4.7c0-0.2,0-0.3,0-0.5
		c0.3-2.5-1.5-4.8-4.1-5.1C62.5,205.7,62.3,205.7,62.1,205.7z"/>
	<path d="M91.9,213.1c0.3,0,0.6,0,1,0c1.3-0.5,2-0.2,2.6,1.3c1.3,2.8,5.8,2.4,7.6-0.6c1-1.9,1.5-4.1,1.4-6.3
		c-0.7,0.7-1.4,1.3-2.2,1.9c-3.2,2-7.5,1.1-9.5-2.2c-0.2-0.3-0.4-0.7-0.5-1c-1.5-3.5-0.6-7.5,2.2-10c3.3-2.7,8.1-2.3,10.8,1
		c0.6,0.7,1,1.5,1.3,2.3c1.9,5.1,1.6,10.8-0.8,15.7c-2.5,4.8-9.8,5.3-12.6,0.9C92.7,215.2,92.2,214.1,91.9,213.1z M104.2,202.8
		c0.4-2.7-1.5-5.1-4.2-5.5c0,0,0,0-0.1,0c-2.8-0.1-5.2,2.1-5.3,5c0,0,0,0.1,0,0.1c-0.2,2.6,1.7,4.9,4.3,5.2c2.5,0.4,4.9-1.3,5.3-3.8
		c0.1-0.3,0.1-0.7,0-1.1V202.8z"/>
	<path d="M110.5,212.2l2.9-0.4c0.2,1.7,1.3,3.2,2.9,3.9c2.7,1,5.7-0.3,6.7-3c0.3-0.8,0.4-1.7,0.3-2.5c0.1-2-1-3.9-2.8-4.6
		c-2.2-1-4.7-0.5-6.3,1.3c-0.9,1.1-1.8,0.3-2.6,0.1c-0.8-0.2-0.4-1-0.3-1.6c0.6-3.3,1.2-6.7,1.9-10c0-0.3,0.5-0.8,0.8-0.8
		c3.7,0,7.4,0,11.3,0v3.1h-3.4c-1.6,0-3.3,0-4.9,0c-1,0-1.5,0.2-1.6,1.2c-0.2,1.6-0.6,3.2-1,4.8c4.9-2,7.9-1.7,10.4,1.3
		c2.1,2.9,2.3,6.9,0.4,10c-2,3.2-5.9,4.6-9.5,3.4C112.8,217.8,110.7,215.2,110.5,212.2z"/>
	<path d="M175.9,206.5c0.4-2.5,0.9-5,1.5-7.5c1.3-3.7,5.4-5.6,9-4.2c2,0.7,3.5,2.3,4.2,4.2c0.7,2.3,1.2,4.6,1.2,7
		c0.3,3-0.2,6-1.4,8.8c-1.2,2.8-4.1,4.4-7.1,4c-2.7-0.1-5-1.8-6-4.3c-1-2.5-1.4-5.2-1.3-8L175.9,206.5z M189.2,206.7
		c-0.3-2-0.4-4-0.9-6c-0.3-2-2-3.4-4-3.5c-2.1-0.2-3.9,1.3-4.3,3.3c-1.1,4-1.1,8.2,0,12.2c0.5,2,2.3,3.4,4.3,3.3
		c2.1-0.1,3.8-1.5,4.1-3.6C188.7,210.6,188.9,208.6,189.2,206.7L189.2,206.7z"/>
	<path d="M88.6,206.6c0.1,2.8-0.4,5.6-1.4,8.2c-1.2,2.7-4,4.4-6.9,4c-2.7-0.1-5.1-1.8-6-4.3c-1.2-3.1-1.6-6.3-1.3-9.6
		c-0.1-2.4,0.4-4.8,1.5-7c1.9-3.5,6.2-4.7,9.6-2.9c1.2,0.7,2.2,1.7,2.9,2.9C88.1,200.7,88.7,203.7,88.6,206.6z M85.8,206.2
		c-0.3-2.1-0.7-4.2-1.2-6.2c-0.5-1.8-2.3-3-4.2-2.8c-1.8,0-3.4,1.3-3.8,3c-1.3,4.1-1.3,8.5,0,12.7c0.4,1.2,1.2,2.1,2.3,2.8
		c2.5,1.4,5.4-0.3,6.1-3.5c0.3-1.8,0.4-3.7,0.6-6L85.8,206.2z"/>
	<path d="M157.4,206.6c-0.2-3,0.3-5.9,1.5-8.6c1.2-2.6,4-4.2,6.8-3.9c2.6,0.1,4.9,1.6,5.9,4c1.2,2.7,1.7,5.6,1.4,8.5
		c0.1,2.8-0.3,5.5-1.4,8c-1.1,2.7-3.8,4.5-6.7,4.3c-2.8,0-5.3-1.7-6.3-4.3C157.7,212.1,157.3,209.4,157.4,206.6z M170.3,206.3
		c-0.2-2-0.5-4.1-1-6.1c-0.6-2.2-2.8-3.5-5-3c-0.1,0-0.3,0.1-0.4,0.1c-1.6,0.7-2.7,2.2-2.9,3.9c-0.8,3.5-0.8,7.2,0,10.8
		c0.2,1.5,1.2,2.8,2.6,3.5c2.2,1,4.7,0,5.7-2.1c0.2-0.4,0.3-0.9,0.4-1.3C170,210.4,170.1,208.5,170.3,206.3L170.3,206.3z"/>
	<path d="M220.5,218.5h-3c0.6-7.6,3.5-14.9,8.4-20.8h-11.7v-3.1h15.5c0.3,1.2,0,2.6-0.8,3.5C224.1,204,221.2,211.1,220.5,218.5z"/>
	<path d="M206.2,194.4v24.1h-2.9V200l-5.7,3.3c-0.7-2-0.4-2.6,1-3.6c1.8-1.3,3.4-2.7,4.9-4.3C204.4,194.6,205,194.1,206.2,194.4z"/>
</g>
</svg>
