<?xml version="1.0" encoding="utf-8"?>
<!-- Generator: Adobe Illustrator 22.0.1, SVG Export Plug-In . SVG Version: 6.00 Build 0)  -->
<svg version="1.1" id="Layer_1" xmlns="http://www.w3.org/2000/svg" xmlns:xlink="http://www.w3.org/1999/xlink" x="0px" y="0px"
	 viewBox="0 0 283.5 283.5" style="enable-background:new 0 0 283.5 283.5;" xml:space="preserve">
<title>Untitled-2</title>
<g>
	<path d="M47.1,64.7h12.8v123.2H47.1V64.7z"/>
	<path d="M82.4,64.7V188H69.5V64.7H82.4z"/>
	<path d="M172.8,64.7h9.6v123.2h-9.6V64.7z"/>
	<path d="M159.9,188h-9.5V64.8h9.5V188z"/>
	<path d="M215,188h-6.5V64.7h6.5V188z"/>
	<path d="M195.5,64.7h6.6v123.2h-6.6V64.7z"/>
	<path d="M105,188h-6.3V64.7h6.3L105,188z"/>
	<path d="M127.9,64.7h6.1V188h-6L127.9,64.7z"/>
	<path d="M37.2,205.3h-3V64.7h3V205.3z"/>
	<path d="M247.2,64.7h3v140.6h-3V64.7z"/>
	<path d="M240.7,64.7h3v140.5h-3V64.7z"/>
	<path d="M40.7,64.7h3v140.6h-3V64.7z"/>
	<path d="M137.5,64.7h3v140.6h-3V64.7z"/>
	<path d="M143.9,64.7h3v140.5h-3V64.7z"/>
	<path d="M63,64.7h3.2V188H63V64.7z"/>
	<path d="M221.2,188h-3.2V64.8h3.2L221.2,188z"/>
	<path d="M166.3,64.7h3.2V188h-3.2V64.7z"/>
	<path d="M108.2,64.7h3.2v123.2h-3.2V64.7z"/>
	<path d="M237.3,188h-2.9V64.8h2.9V188z"/>
	<path d="M85.8,64.7h3V188h-3V64.7z"/>
	<path d="M189.1,64.7h3V188h-3V64.7z"/>
	<path d="M121.1,188h-2.8V64.8h2.8V188z"/>
	<path d="M107.6,206.4c0.1,2.8-0.4,5.6-1.4,8.2c-1.2,2.8-4.1,4.5-7.1,4.1c-2.7-0.1-5-1.9-5.9-4.5c-1.3-3.8-1.6-7.9-0.9-11.9
		c0.1-2.3,1.1-4.5,2.7-6.2c2.7-2.7,7.2-2.7,9.9,0.1c0.3,0.3,0.6,0.7,0.9,1.1c0.9,1.8,1.5,3.7,1.9,5.7
		C107.7,204.1,107.7,205.2,107.6,206.4z M104.7,206.4c-0.2-2-0.5-4.1-1-6.1c-0.4-1.9-2.2-3.3-4.1-3.2c-1.8,0-3.5,1.2-3.9,3
		c-0.4,1.3-0.7,2.7-0.8,4.1c-0.3,2.8-0.1,5.7,0.7,8.4c0.5,2.1,2.4,3.4,4.5,3.3c2-0.3,3.5-1.9,3.8-3.9c0.5-1.8,0.6-3.6,0.8-5.8V206.4
		z"/>
	<path d="M176.2,206.5c0.3-2.3,0.7-4.6,1.2-6.9c0.9-3.8,4.7-6.1,8.5-5.2c0.2,0,0.3,0.1,0.5,0.1c1.6,0.3,3,1.3,3.7,2.8
		c0.9,1.7,1.5,3.4,1.9,5.3c0.6,3.4,0.4,6.9-0.4,10.2c-0.6,3.7-3.9,6.3-7.6,6c-2.6-0.1-5-1.6-6-4.1
		C176.9,212.1,176.3,209.4,176.2,206.5z M189.5,206.5c-0.3-2.2-0.5-4.1-1-6.1c-0.4-1.9-2-3.3-4-3.4c-2-0.1-3.7,1.2-4.2,3.1
		c-1.2,4.1-1.2,8.4,0,12.4c0.7,2.3,3.1,3.5,5.4,2.8c1.4-0.4,2.4-1.5,2.8-2.9C189,210.6,189.1,208.6,189.5,206.5z"/>
	<path d="M173.8,206.5c-0.5,2.7-1.1,5.3-1.8,8c-0.9,2.8-3.7,4.6-6.6,4.3c-2.8,0.1-5.4-1.6-6.5-4.3c-1.1-3-1.6-6.3-1.2-9.5
		c0-2.4,0.5-4.7,1.5-6.8c1.8-3.5,6-4.9,9.6-3.2c1.4,0.7,2.6,1.9,3.2,3.3c1.1,2.6,1.6,5.4,1.5,8.2H173.8z M170.6,206.2
		c-0.3-2.1-0.6-4.1-1.1-6.1c-0.5-1.8-2.2-3-4-3c-1.9-0.1-3.5,1.2-4,3c-1.2,4.1-1.2,8.5,0,12.6c0.5,2.1,2.6,3.5,4.8,3.2
		c1.9-0.4,3.4-1.9,3.7-3.9C170.2,210.2,170.3,208.4,170.6,206.2z"/>
	<path d="M110.4,218.4c0.2-2.2,1.3-4.3,3-5.7c1.9-1.9,4.1-3.5,6.1-5.4c1.1-1,2.1-2.1,3-3.4c1.2-1.4,1.3-3.5,0.2-5.1
		c-1.2-1.5-3.2-2.2-5-1.8c-1.9,0.3-3.4,1.8-3.6,3.7v0.6l-2.9-0.3c0-3.8,3.1-6.9,6.9-6.9c0.1,0,0.2,0,0.2,0c2.1-0.2,4.1,0.3,5.8,1.6
		c2.8,2.1,3.3,6,1.3,8.8c0,0,0,0,0,0c-2.1,2.4-4.3,4.7-6.8,6.8c-1.3,1.2-2.6,2.4-3.9,3.6l0.2,0.4h11.6v3L110.4,218.4z"/>
	<path d="M65.8,205.1c2.9,1,4.6,3.9,4.2,6.9c-0.4,3.1-2.7,5.7-5.7,6.5c-3.7,1.2-7.7-0.5-9.4-3.9c-0.3-0.8-0.6-1.6-0.8-2.4l2.9-0.6
		c0.6,1.7,1.1,3.6,3,4.1c1.3,0.3,2.6,0.3,3.9,0c2.3-0.9,3.6-3.4,2.8-5.8c-0.7-2.5-3.1-3.6-6.6-3l0.3-2.3c1.1-0.2,2.1-0.4,3.1-0.8
		c1.6-0.4,2.6-1.9,2.3-3.5c-0.3-1.6-1.6-2.8-3.2-3c-2.3-0.4-4.5,1-5,3.2c-0.1,0.2-0.1,0.4-0.2,0.6l-2.8-0.6c0.4-3.8,3.9-6.6,7.7-6.2
		c0.3,0,0.6,0.1,0.9,0.2c1.8,0.2,3.4,1.2,4.5,2.7C69.7,200.1,69.1,202.6,65.8,205.1z"/>
	<path d="M225.8,205.1c5.3,1.7,5.2,8.2,2.3,11.1c-1.9,2.1-4.8,3-7.6,2.5c-2.9-0.3-5.3-2.4-6-5.3c-0.1-0.4-0.2-0.8-0.2-1.3l2.8-0.6
		c0.7,1.9,1.3,4,3.7,4.3c1.2,0.2,2.5,0,3.7-0.5c2.2-1.1,3.2-3.6,2.3-5.9c-0.8-2.3-3.4-3.4-6.5-2.6l0.3-2.6c1-0.2,2-0.4,3-0.7
		c1.5-0.4,2.5-1.9,2.2-3.5c-0.3-1.7-1.8-3-3.6-3c-2.1-0.3-4.1,1.1-4.6,3.1l-0.3,0.7l-2.8-0.6c0.3-3.1,2.7-5.6,5.8-6.1
		c2.9-0.5,5.8,0.6,7.6,3c1.6,2.3,1.1,5.5-1.3,7.1c-0.1,0-0.1,0.1-0.2,0.1L225.8,205.1z"/>
	<path d="M78.9,206.8l0.3-2.4c1.1-0.2,2.2-0.5,3.2-0.9c1.5-0.4,2.4-1.9,2.2-3.4c-0.3-1.7-1.7-2.9-3.4-2.9c-2.6-0.2-3.8,0.7-5.1,3.9
		l-2.7-0.5c0.3-3.3,3-6,6.3-6.2c1.9-0.2,3.8,0.3,5.4,1.4c2.5,1.6,3.3,5,1.7,7.5c-0.5,0.8-1.2,1.4-2,1.9c0,0,0,0.2,0,0.2
		c2.8,0.8,4.6,3.6,4.2,6.5c-0.3,3.2-2.6,5.9-5.7,6.7c-4.1,1.4-8.4-0.8-9.8-4.9c0-0.1-0.1-0.2-0.1-0.3c-0.1-0.4-0.1-0.8-0.2-1.2
		l2.9-0.6c0.7,1.7,1.1,3.7,3.1,4.1c1.3,0.3,2.7,0.2,4-0.2c2.3-1,3.4-3.6,2.5-5.9C84.7,207.2,82.2,206.1,78.9,206.8z"/>
	<path d="M206.4,218.4h-2.9v-18.6l-5.7,3.3c-0.8-1.9-0.4-2.6,1-3.6c1.8-1.3,3.4-2.7,5-4.3c1.1-1.1,1-1.2,2.6-1.1L206.4,218.4z"/>
</g>
</svg>
