<?xml version="1.0" encoding="utf-8"?>
<!-- Generator: Adobe Illustrator 22.0.1, SVG Export Plug-In . SVG Version: 6.00 Build 0)  -->
<svg version="1.1" id="Layer_1" xmlns="http://www.w3.org/2000/svg" xmlns:xlink="http://www.w3.org/1999/xlink" x="0px" y="0px"
	 viewBox="0 0 283.5 283.5" style="enable-background:new 0 0 283.5 283.5;" xml:space="preserve">
<title>Untitled-2</title>
<g>
	<path d="M66.1,64.7v123.5H53.2V64.7H66.1z"/>
	<path d="M205.3,64.7v123.5h-9.8V64.7H205.3z"/>
	<path d="M182.6,64.7v123.5h-9.8V64.7H182.6z"/>
	<path d="M101.6,64.7v123.5h-9.8V64.7H101.6z"/>
	<path d="M159.9,64.7v123.5h-9.8V64.7H159.9z"/>
	<path d="M237.8,64.7v123.5h-6.7V64.7H237.8z"/>
	<path d="M224.8,64.7v123.5h-6.7V64.7H224.8z"/>
	<path d="M111.4,64.7v123.5h-6.7V64.7H111.4z"/>
	<path d="M82.6,64.7v123.5h-6.7V64.7H82.6z"/>
	<path d="M127.4,64.7v123.5h-6.2V64.7H127.4z"/>
	<path d="M243.9,64.7v140.5h-3.6V64.7H243.9z"/>
	<path d="M43.9,64.7v140.5h-3.6V64.7H43.9z"/>
	<path d="M169.7,64.7v123.5h-3.6V64.7H169.7z"/>
	<path d="M192.4,64.7v123.5h-3.6V64.7H192.4z"/>
	<path d="M37.2,64.7v140.6h-3.1V64.7H37.2z"/>
	<path d="M250.1,64.7v140.6H247V64.7H250.1z"/>
	<path d="M147,64.7v140.6h-3.1V64.7H147z"/>
	<path d="M140.3,64.7v140.6h-3.1V64.7H140.3z"/>
	<path d="M214.5,64.7v123.5h-3.1V64.7H214.5z"/>
	<path d="M50.1,64.7v123.5H47V64.7H50.1z"/>
	<path d="M88.7,64.7v123.5h-3.1V64.7H88.7z"/>
	<path d="M134.1,64.7v123.5H131V64.7H134.1z"/>
	<path d="M69.6,201.4c-1.3-0.8-2.5-1.2-3.1-2c-2-3-5.8-3.1-7.4,0c-0.9,2-1.5,4.2-1.8,6.4c2.7-1.8,5.2-3.4,8.4-1.9
		c3.2,1.4,5,4.7,4.5,8.7c-0.4,3.4-3,6.2-6.4,6.8c-3.6,0.6-7.2-1.5-8.3-5c-1.8-5.1-1.6-10.8,0.8-15.8c1.6-3,4.9-4.6,8.2-3.9
		C67.4,195.3,69.3,197.5,69.6,201.4z M67.3,211.6c0.1-3.4-1.5-5.4-4.2-5.6c-2.6-0.2-5,1.7-5.2,4.4c0,0.1,0,0.2,0,0.4
		c-0.2,3.4,1.9,6,4.8,6.1C65.5,216.8,67.1,215,67.3,211.6z"/>
	<path d="M109.9,206.9c0.4-2.6,0.9-5.2,1.6-7.8c1.3-3.6,5.3-5.4,8.9-4.1c1.6,0.6,3,1.8,3.8,3.4c2.4,5.3,2.4,11.4,0.2,16.8
		c-1,2.9-4,4.6-7,4.1c-2.8-0.1-5.3-2.1-6-4.9C110.7,212,110.4,209.5,109.9,206.9z M123,207.1c-0.2-2.3-0.5-4.5-1-6.7
		c-0.4-1.9-2.2-3.3-4.1-3.2c-1.9-0.1-3.5,1.3-3.9,3.1c-1.2,4.3-1.2,8.9,0,13.2c0.4,1.9,2.1,3.3,4.1,3.2c2,0,3.7-1.4,4-3.4
		C122.6,211.3,122.9,209.2,123,207.1L123,207.1z"/>
	<path d="M192.8,206.9c-0.5,2.8-1.2,5.6-2,8.3c-1,2.8-3.8,4.5-6.7,4.1c-2.8,0-5.2-1.8-6-4.5c-1.9-5.1-1.9-10.7,0-15.9
		c0.9-2.6,3.3-4.4,6.1-4.4c3.1-0.1,5.5,1.1,6.6,3.9C191.6,201.3,192.3,204.1,192.8,206.9z M189.6,206.8c-0.2-2.2-0.6-4.4-1-6.6
		c-0.4-1.8-2.1-3.1-4-3c-1.9-0.1-3.5,1.2-3.9,3.1c-1.2,4.3-1.3,8.9-0.1,13.2c0.3,2,2.1,3.4,4,3.3c2.1,0,3.8-1.5,4.1-3.6
		C189.2,211.2,189.3,209.1,189.6,206.8L189.6,206.8z"/>
	<path d="M195,206.9c0.4-2.6,0.9-5.1,1.6-7.6c0.7-2.6,3.1-4.5,5.8-4.6c2.9-0.5,5.8,1.1,6.9,3.8c2.5,5.5,2.5,11.7,0,17.2
		c-1.1,2.6-3.9,4.2-6.7,3.7c-2.7,0-5.2-1.9-5.9-4.5C196,212.2,195.4,209.5,195,206.9z M198.1,207.4c0.4,2.2,0.4,4.5,1.2,6.5
		c0.7,1.4,2.1,2.4,3.7,2.7c1.4-0.1,3.7-1.7,3.9-2.8c0.4-4.5,0.4-9,0-13.4c-0.1-1.1-2.4-2.6-3.9-2.9c-2.1-0.5-3.5,1.2-4,3.2
		C198.6,202.7,198.4,205,198.1,207.4L198.1,207.4z"/>
	<path d="M157.9,207.1c0.4-2.6,0.9-5.3,1.6-7.9c0.7-2.6,3.1-4.5,5.8-4.6c2.9-0.5,5.8,1.1,6.9,3.8c2.4,5.4,2.4,11.5,0,16.9
		c-1.6,3.4-5.7,4.9-9.2,3.3c-1.6-0.8-2.9-2.2-3.6-3.9C158.8,212.3,158.3,209.7,157.9,207.1z M171,206.8c-0.3-2.1-0.2-4.5-1.1-6.4
		c-0.9-1.5-2.3-2.6-3.9-3c-1.8-0.5-3.3,0.9-3.8,2.6c-1.4,4.4-1.4,9.2-0.1,13.7c0.4,1.9,2.2,3.3,4.2,3.1c2-0.1,3.6-1.5,3.9-3.5
		C170.5,211.1,170.8,208.9,171,206.8L171,206.8z"/>
	<path d="M89.2,207.1c-0.5,2.8-1.2,5.6-2.1,8.3c-1,2.8-3.9,4.4-6.8,4c-2.8-0.1-5.3-2.1-6-4.8c-1.7-4.9-1.7-10.3,0-15.2
		c0.8-2.7,3.2-4.7,6.1-4.8c2.9-0.5,5.8,1.2,6.8,4C88,201.4,88.7,204.2,89.2,207.1z M85.9,207.1c-0.2-2.2-0.5-4.3-0.9-6.5
		c-0.3-1.9-2-3.4-4-3.4c-1.9-0.2-3.6,1.1-4,2.9c-1.3,4.4-1.3,9-0.1,13.4c0.4,2,2.1,3.3,4.1,3.2c2,0,3.7-1.5,4-3.5
		C85.5,211.3,85.8,209.2,85.9,207.1L85.9,207.1z"/>
	<path d="M107.5,195.3c-0.1,1-0.4,2-0.8,3c-4.8,5.8-7.7,12.9-8.6,20.4c-0.4,0.1-0.8,0.1-1.2,0.2c-0.4,0-0.8,0-1.5-0.1
		c0.4-7.7,3.4-14.1,8.1-20.4H92v-3.1L107.5,195.3z"/>
	<path d="M222,200.4l-5.6,3.2c-0.5-1.7-0.4-2.7,1.2-3.7c1.7-1.3,3.3-2.7,4.8-4.2c0.8-0.5,1.6-1,2.4-1.4v24.5l-2.8,0.2L222,200.4z"/>
</g>
</svg>
