<?xml version="1.0" encoding="utf-8"?>
<!-- Generator: Adobe Illustrator 22.0.1, SVG Export Plug-In . SVG Version: 6.00 Build 0)  -->
<svg version="1.1" id="Layer_1" xmlns="http://www.w3.org/2000/svg" xmlns:xlink="http://www.w3.org/1999/xlink" x="0px" y="0px"
	 viewBox="0 0 283.5 283.5" style="enable-background:new 0 0 283.5 283.5;" xml:space="preserve">
<title>Untitled-2</title>
<g>
	<path d="M172.5,64.7h9.7v123.3h-9.7V64.7z"/>
	<path d="M150,64.7h9.4v123.3H150V64.7z"/>
	<path d="M234,188.1h-6.5V64.7h6.5V188.1z"/>
	<path d="M224.2,188.1h-6.6V64.8h6.5L224.2,188.1z"/>
	<path d="M208.1,64.7h6.6v123.3h-6.6V64.7z"/>
	<path d="M201.7,188.1h-6.5V64.7h6.5V188.1z"/>
	<path d="M104.6,188.1h-6.3V64.8h6.3V188.1z"/>
	<path d="M127.1,188.1h-6.3V64.8h6.3V188.1z"/>
	<path d="M50.1,64.7h6v123.3h-6V64.7z"/>
	<path d="M88.4,188.1h-6V64.8h6V188.1z"/>
	<path d="M33.8,64.7h2.9v140.6h-2.9V64.7z"/>
	<path d="M246.9,64.7h2.9v140.6h-2.9V64.7z"/>
	<path d="M240.4,64.7h2.9v140.6h-2.9V64.7z"/>
	<path d="M40.2,205.4V64.8h3v140.6H40.2z"/>
	<path d="M143.6,64.7h2.9v140.6h-2.9V64.7z"/>
	<path d="M140,205.4h-2.9V64.7h2.9V205.4z"/>
	<path d="M111.1,188.1h-3.2V64.8h3.2V188.1z"/>
	<path d="M169.2,188.1H166V64.7h3.2V188.1z"/>
	<path d="M65.9,188.1H63V64.7h2.9L65.9,188.1z"/>
	<path d="M191.7,188.1h-2.9V64.7h2.9V188.1z"/>
	<path d="M133.6,188.1h-2.9V64.7h2.9V188.1z"/>
	<path d="M72.8,64.7h2.7V188h-2.7V64.7z"/>
	<path d="M107.6,206.8c-0.4,2.7-1.1,5.3-1.9,7.9c-1,2.9-3.9,4.6-7,4.1c-2.7,0-5.1-1.8-6-4.3c-1.4-3.8-1.7-7.9-1-11.9
		c0.1-2.4,1.1-4.7,2.8-6.5c2.8-2.7,7.2-2.6,9.9,0.2c0.3,0.3,0.5,0.6,0.7,0.9c0.9,1.8,1.6,3.7,2,5.7c0.2,1.2,0.3,2.5,0.2,3.7
		L107.6,206.8z M104.4,206.4c-0.3-1.8-0.5-4-1-6c-0.5-1.9-2.2-3.2-4.1-3.2c-1.9,0-3.5,1.2-4,3c-0.4,1.3-0.6,2.7-0.8,4
		c-0.3,2.8-0.1,5.7,0.7,8.4c0.5,2.1,2.5,3.6,4.7,3.3c1.9-0.4,3.4-1.9,3.7-3.9C104,210.3,104.1,208.5,104.4,206.4z"/>
	<path d="M192.2,205.3c-0.3,2.8-0.7,5.6-1.3,8.3c-1,3.8-4.9,6.1-8.7,5.1c-2.6-0.7-4.5-2.7-5.2-5.3c-1.3-4.5-1.3-9.2,0-13.7
		c0.9-3.8,4.7-6.2,8.5-5.3c0.2,0,0.4,0.1,0.6,0.2c1.5,0.4,2.9,1.4,3.7,2.8c1.4,2.4,2.1,5.1,2,7.9L192.2,205.3z M189.1,206.6
		c-0.3-2.2-0.5-4.2-1-6.2c-0.4-1.9-2-3.2-3.9-3.3c-2-0.2-3.8,1.1-4.2,3.1c-1.2,4.1-1.2,8.5,0,12.6c0.8,2.3,3.2,3.5,5.5,2.7
		c1.3-0.4,2.3-1.5,2.7-2.8C188.6,210.7,188.8,208.8,189.1,206.6z"/>
	<path d="M173.5,206.6c-0.5,2.7-1.1,5.3-1.8,7.9c-0.9,2.8-3.7,4.6-6.6,4.3c-2.9,0.1-5.4-1.6-6.5-4.3c-1.1-3-1.6-6.3-1.3-9.5
		c0-2.4,0.5-4.8,1.5-7c1.2-2.5,3.8-4,6.6-3.8c2.6,0,4.9,1.5,6,3.8c1.2,2.7,1.8,5.6,1.7,8.5H173.5z M170.3,206.4
		c-0.2-2-0.5-4.1-1-6.1c-0.5-2.2-2.8-3.6-5-3.1c-0.2,0-0.3,0.1-0.5,0.1c-1.6,0.6-2.7,2.1-2.9,3.8c-0.8,3.6-0.8,7.4,0,11
		c0.2,1.5,1.2,2.7,2.5,3.4c2.2,1,4.7,0.1,5.7-2.1c0.2-0.4,0.3-0.9,0.4-1.4C169.9,210.3,170,208.5,170.3,206.4z"/>
	<path d="M110,206.4c0.3-2.3,0.7-4.7,1.3-6.9c1-3.8,4.9-6.1,8.7-5.1c0.7,0.2,1.5,0.5,2.1,0.9c2,1.3,3.3,3.4,3.6,5.7
		c0.8,4.1,0.7,8.3-0.5,12.2c-0.6,3.1-3.3,5.4-6.5,5.6c-3.5,0.4-6.7-2-7.4-5.4C110.7,211.1,110.3,208.8,110,206.4z M123.2,207.2
		c-0.2-2.2-0.3-3.6-0.5-5.1c-0.1-0.6-0.2-1.1-0.4-1.6c-0.5-2-2.3-3.4-4.3-3.3c-2,0-3.7,1.4-4,3.3c-1.1,4-1.1,8.2,0,12.2
		c0.4,1.9,2.1,3.3,4.1,3.3c2,0.1,3.8-1.3,4.2-3.3C122.6,210.9,123,209.1,123.2,207.2L123.2,207.2z"/>
	<path d="M72.2,218.5c0-1.7,0.7-3.3,1.9-4.5c2.3-2.3,4.8-4.3,7.2-6.6c1.1-1.1,2.1-2.2,3-3.5c1.1-1.5,1.1-3.6,0-5.1
		c-1.2-1.5-3.2-2.1-5.1-1.6c-1.9,0.3-3.3,1.9-3.4,3.8c0,0.2,0,0.3,0,0.5l-2.9-0.3c0-3.8,3.1-6.9,6.9-6.9c0.1,0,0.1,0,0.2,0
		c2.1-0.2,4.1,0.3,5.8,1.6c2.9,2.3,3.4,6.4,1.2,9.3c-0.2,0.2-0.3,0.4-0.5,0.6c-2,2.2-4.2,4.2-6.5,6.2l-3.6,3.3l0.2,0.3h11.6v3
		L72.2,218.5z"/>
	<path d="M217.9,215.5h11.5v3h-15.9c0-1.6,0.6-3.2,1.7-4.3c1.8-1.9,3.8-3.6,5.7-5.4c1.7-1.6,3.3-3.2,4.7-5.1
		c1.3-1.7,1.1-4.1-0.6-5.5c-1.4-1.3-3.5-1.6-5.3-0.9c-1.6,0.5-2.7,1.9-2.8,3.5c0,0.2,0,0.3,0,0.6l-2.9-0.4c-0.1-2.4,1.2-4.6,3.2-5.7
		c2.7-1.6,6-1.7,8.7-0.2c3.2,1.7,4.4,5.6,2.7,8.7c-0.2,0.3-0.3,0.6-0.6,0.9c-2.1,2.4-4.3,4.7-6.7,6.7c-1.2,1.2-2.6,2.3-3.9,3.5
		L217.9,215.5z"/>
	<path d="M64.9,194v24.5H62V200l-5.7,3.3c-0.6-2.2-0.5-2.7,1.2-3.7c2.1-1.2,3.8-2.8,5.3-4.6C63.1,194.5,64,194.4,64.9,194z"/>
	<path d="M206.2,194.4v24.1h-2.9V200l-5.7,3.3c-0.8-1.9-0.4-2.6,1-3.6c1.8-1.3,3.4-2.7,4.9-4.3C204.1,194.5,205.1,194.1,206.2,194.4
		z"/>
</g>
</svg>
