<?xml version="1.0" encoding="utf-8"?>
<!-- Generator: Adobe Illustrator 22.0.1, SVG Export Plug-In . SVG Version: 6.00 Build 0)  -->
<svg version="1.1" id="Layer_1" xmlns="http://www.w3.org/2000/svg" xmlns:xlink="http://www.w3.org/1999/xlink" x="0px" y="0px"
	 viewBox="0 0 283.5 283.5" style="enable-background:new 0 0 283.5 283.5;" xml:space="preserve">
<title>Untitled-2</title>
<g>
	<path d="M69.4,64.7h9.9v123.1h-9.9V64.7z"/>
	<path d="M46.8,64.7h9.6v123.1h-9.6V64.7z"/>
	<path d="M182.3,187.9h-9.6V64.7h9.6V187.9z"/>
	<path d="M150.2,64.7h9.4v123.1h-9.4V64.7z"/>
	<path d="M59.7,64.7h6.4v123.1h-6.4V64.7z"/>
	<path d="M82.3,64.7h6.4v123.1h-6.4V64.7z"/>
	<path d="M237.2,187.8h-6.4V64.7h6.4V187.8z"/>
	<path d="M224.3,187.8h-6.4V64.7h6.4V187.8z"/>
	<path d="M214.8,187.8h-6.4V64.7h6.4V187.8z"/>
	<path d="M201.9,187.9h-6.4V64.7h6.4V187.9z"/>
	<path d="M111.4,187.9h-6.3V64.7h6.3V187.9z"/>
	<path d="M124.3,187.9h-6V64.7h6V187.9z"/>
	<path d="M34.2,64.7h2.9v140.4h-2.9V64.7z"/>
	<path d="M247,64.7h2.9v140.4H247L247,64.7z"/>
	<path d="M240.5,64.7h2.9v140.4h-2.9V64.7z"/>
	<path d="M43.6,205.1h-3V64.7h3V205.1z"/>
	<path d="M146.7,205.1h-3V64.7h3V205.1z"/>
	<path d="M140.3,205.1h-3V64.7h3V205.1z"/>
	<path d="M166.2,187.8V64.7h3.2v123.1H166.2z"/>
	<path d="M98.7,64.7h2.9v123.1h-2.9V64.7z"/>
	<path d="M188.9,64.7h2.9v123.1h-2.9V64.7z"/>
	<path d="M133.9,187.9h-2.7V64.7h2.7V187.9z"/>
	<path d="M92.1,212.9c0.6-0.2,1.3-0.3,2-0.4c0.4,0,0.8,0.2,1.1,0.5c0.9,2.3,3.4,3.4,5.7,2.6c0.9-0.4,1.7-1,2.2-1.9
		c1.2-1.9,1.8-4.2,1.7-6.4c-1.2,1-2.5,1.8-3.9,2.4c-3.6,1.1-7.4-0.9-8.5-4.5c0-0.1-0.1-0.2-0.1-0.3c-1.2-3.2-0.3-6.8,2.3-9.1
		c3.2-2.8,8-2.4,10.7,0.7c0.6,0.7,1.1,1.5,1.4,2.4c2,5.2,1.6,11-0.9,15.9c-2.4,4.7-9.7,5.2-12.5,1C92.8,214.9,92.4,213.9,92.1,212.9
		z M99.6,207.2c2.5,0.1,4.7-1.9,4.8-4.4c0-0.2,0-0.5,0-0.7c0.2-2.6-1.7-4.9-4.3-5.2c-0.1,0-0.2,0-0.3,0c-2.8,0.1-5.1,2.5-5,5.3
		c0,0,0,0.1,0,0.1c-0.1,2.6,2,4.8,4.6,4.9C99.4,207.2,99.5,207.2,99.6,207.2z"/>
	<path d="M192.4,205c-0.2,2.8-0.7,5.6-1.3,8.3c-1,3.8-5,6.1-8.8,5c-2.5-0.7-4.5-2.7-5.1-5.2c-1.3-4.5-1.3-9.2,0-13.7
		c0.9-3.8,4.7-6.2,8.5-5.3c0.2,0,0.4,0.1,0.6,0.2c1.5,0.4,2.9,1.4,3.7,2.8c1.4,2.4,2.1,5.1,2,7.9L192.4,205z M189.3,206.4
		c-0.3-2.1-0.5-4.3-1-6.2c-0.4-1.9-2.1-3.2-4-3.2c-2.3,0-3.9,1.5-4.5,4.3c-0.6,3.1-0.6,6.3-0.2,9.5c0.1,0.7,0.3,1.5,0.6,2.1
		c0.6,1.8,2.2,3,4.1,3c1.9,0,3.6-1.3,4-3.2C188.8,210.6,189,208.4,189.3,206.4z"/>
	<path d="M173.7,206.4c-0.5,2.7-1.1,5.3-1.8,7.9c-0.9,2.9-3.7,4.7-6.7,4.3c-2.8,0-5.3-1.7-6.3-4.3c-1.1-3-1.6-6.2-1.3-9.5
		c0-2.4,0.5-4.8,1.5-7c1.8-3.5,6.1-4.8,9.6-3c1.3,0.7,2.3,1.7,3,3c1.2,2.6,1.7,5.5,1.6,8.4L173.7,206.4z M170.4,206.3
		c-0.3-1.8-0.5-4-1-6.1c-0.5-1.8-2.2-3.1-4.1-3.1c-1.9,0-3.5,1.2-4,3.1c-1.2,4.1-1.2,8.5,0,12.6c0.5,1.9,2.3,3.3,4.3,3.2
		c2.1-0.2,3.7-1.8,4-3.9C170.1,210.1,170.2,208.4,170.4,206.3z"/>
	<path d="M54.3,194.4h15.5c0.3,1.3,0,2.6-0.9,3.7c-4.5,5.5-7.3,12.1-8.2,19.1c0,0.3-0.1,0.7-0.2,1.1h-3c0.6-7.6,3.5-14.8,8.4-20.7
		H54.3V194.4z"/>
	<path d="M84.9,197.5H73.2v-3.1h15.5c0.3,1.2,0,2.5-0.8,3.5c-4.8,5.8-7.7,12.9-8.4,20.4h-3.1C77.1,210.7,80,203.4,84.9,197.5z"/>
	<path d="M118.8,199.8l-5.9,3.4v-3.1c2.7-1.2,5.1-3.2,6.8-5.6c0.3-0.4,1.2-0.4,2-0.6v24.3h-2.9V199.8z"/>
	<path d="M206.3,218.3h-2.9v-18.5l-5.7,3.3c-0.7-2-0.4-2.6,1-3.6c1.8-1.3,3.4-2.7,4.9-4.3c0.8-0.9,1.4-1.4,2.6-1.1V218.3z"/>
	<path d="M222.2,199.8l-5.7,3.3c-0.6-2.3-0.5-2.7,1.2-3.7c2.1-1.2,3.9-2.9,5.3-4.8c0.3-0.5,1.2-0.5,2.1-0.8v24.4h-3V199.8z"/>
</g>
</svg>
