<?xml version="1.0" encoding="utf-8"?>
<!-- Generator: Adobe Illustrator 22.0.1, SVG Export Plug-In . SVG Version: 6.00 Build 0)  -->
<svg version="1.1" id="Layer_1" xmlns="http://www.w3.org/2000/svg" xmlns:xlink="http://www.w3.org/1999/xlink" x="0px" y="0px"
	 viewBox="0 0 283.5 283.5" style="enable-background:new 0 0 283.5 283.5;" xml:space="preserve">
<title>Untitled-2</title>
<g>
	<path d="M53.3,64.7H66v123.2H53.3V64.7z"/>
	<path d="M69.2,64.7h12.9V188H69.2V64.7z"/>
	<path d="M224.1,64.7h9.7V188h-9.7V64.7z"/>
	<path d="M182.2,188h-9.7V64.8h9.7L182.2,188z"/>
	<path d="M150.1,64.7h9.5V188h-9.5V64.7z"/>
	<path d="M208.2,64.7h6.5v123.2h-6.5V64.7z"/>
	<path d="M195.3,64.7h6.6v123.2h-6.6V64.7z"/>
	<path d="M104.7,188h-6.3V64.8h6.3V188z"/>
	<path d="M133.7,188h-6V64.7h6V188z"/>
	<path d="M36.9,205.3h-3V64.8h3V205.3z"/>
	<path d="M249.9,205.3H247V64.8h2.9V205.3z"/>
	<path d="M240.5,64.7h3v140.6h-2.9L240.5,64.7z"/>
	<path d="M43.4,205.3h-3V64.7h3V205.3z"/>
	<path d="M146.6,205.3h-3V64.8h3V205.3z"/>
	<path d="M140.2,205.3h-3V64.8h3V205.3z"/>
	<path d="M108,64.7h3.2V188H108V64.7z"/>
	<path d="M220.9,188h-3.3V64.8h3.2L220.9,188z"/>
	<path d="M169.3,188H166V64.8h3.2L169.3,188z"/>
	<path d="M188.8,64.7h3V188h-3V64.7z"/>
	<path d="M88.6,188h-3V64.7h3V188z"/>
	<path d="M49.8,188h-3V64.8h3V188z"/>
	<path d="M118.1,64.7h2.8V188h-2.8V64.7z"/>
	<path d="M69.2,200.4c-0.4,0-0.7,0-1.1,0.1c-1.2,0.5-1.8,0.2-2.3-1.1c-1.1-2.1-3.7-3-5.8-1.9c-0.3,0.1-0.6,0.3-0.8,0.5
		c-1.9,1.9-2.9,4.6-2.6,7.3c1.2-0.9,2.6-1.7,4-2.3c3.6-1.1,7.5,0.9,8.6,4.5c1.4,3.8-0.1,8.1-3.5,10.3c-3.8,2.1-8.5,0.7-10.5-3.1
		c-0.2-0.3-0.3-0.7-0.5-1c-1.7-4.8-1.6-10,0.3-14.8c1.6-4,6.2-5.9,10.2-4.3c0.4,0.1,0.7,0.3,1,0.5C68,196.4,69.1,198.3,69.2,200.4z
		 M61.9,205.6c-2.7,0-4.9,2.1-4.9,4.7c0,0,0,0.1,0,0.1c-0.2,2.9,2,5.3,4.9,5.5c0.1,0,0.1,0,0.2,0c2.6,0,4.7-2.2,4.6-4.8
		c0-0.2,0-0.3,0-0.5c0.2-2.5-1.6-4.7-4.1-5C62.4,205.6,62.2,205.6,61.9,205.6L61.9,205.6z"/>
	<path d="M107.3,206.4c0.1,2.8-0.4,5.6-1.4,8.2c-1.2,2.8-4.1,4.5-7.1,4.2c-2.7-0.1-5.1-1.9-6-4.5c-1.3-3.8-1.7-7.9-1-11.9
		c0.2-2.3,1.1-4.5,2.7-6.3c2.7-2.7,7.1-2.7,9.8,0c0.4,0.4,0.7,0.7,0.9,1.2c0.9,1.8,1.6,3.7,1.9,5.7
		C107.4,204.1,107.4,205.3,107.3,206.4z M104.4,206.9c-0.2-1.8-0.3-3.3-0.4-4.8c0-0.6-0.2-1.3-0.3-1.9c-0.6-1.9-2.3-3.1-4.3-3.1
		c-1.9-0.1-3.5,1.2-4,3c-0.4,1.4-0.6,2.7-0.7,4.2c-0.3,2.8-0.1,5.7,0.7,8.4c0.5,2.1,2.4,3.4,4.5,3.2c2-0.3,3.6-1.9,3.9-3.9
		C104.1,210.2,104.2,208.4,104.4,206.9L104.4,206.9z"/>
	<path d="M175.9,206.4c0.4-2.5,0.9-5,1.5-7.5c1.3-3.7,5.4-5.6,9-4.2c2,0.7,3.5,2.3,4.2,4.2c0.7,2.3,1.2,4.6,1.2,7
		c0.3,3-0.2,6-1.4,8.8c-1.7,3.6-5.9,5.1-9.5,3.4c-1.6-0.7-2.8-2.1-3.5-3.7c-1-2.6-1.4-5.3-1.3-8.1H175.9z M189.1,207.2
		c-0.2-2.2-0.2-3.5-0.4-4.9c-0.1-0.6-0.2-1.2-0.4-1.7c-0.4-1.9-2.1-3.3-4-3.4c-2-0.1-3.7,1.2-4.2,3.1c-1.2,4.1-1.2,8.4,0,12.4
		c0.7,2.3,3.1,3.5,5.4,2.8c1.4-0.4,2.4-1.5,2.8-2.9C188.7,210.6,188.8,208.6,189.1,207.2z"/>
	<path d="M157.4,206.7c-0.2-2.9,0.3-5.8,1.5-8.5c1.7-3.5,6-5,9.5-3.3c1.5,0.7,2.7,2,3.4,3.5c1,2.5,1.5,5.3,1.3,8
		c0.1,2.8-0.3,5.6-1.4,8.2c-1.6,3.6-5.9,5.2-9.5,3.5c-1.6-0.7-2.8-2-3.5-3.5C157.7,212.1,157.3,209.4,157.4,206.7z M170.3,206.7
		c-0.2-1.9-0.3-3.7-0.7-5.5c-0.2-2.4-2.3-4.1-4.7-4c-2,0-3.4,1.5-4,4c-0.8,3.6-0.8,7.4,0,11c0.3,1.5,1.2,2.7,2.5,3.4
		c2.2,1,4.7,0,5.7-2.1c0.2-0.4,0.3-0.8,0.4-1.3C169.9,210.3,170.2,208.5,170.3,206.7L170.3,206.7z"/>
	<path d="M113.5,201.5l-2.9-0.4c0.3-5.4,4.9-7.5,9.7-6.7c3.4,0.5,5.8,3.4,5.7,6.8c-0.1,1.9-0.9,3.7-2.3,5.1c-2.4,2.3-5,4.5-7.4,6.8
		c-0.7,0.7-1.4,1.4-2.3,2.3h11.9v3.1h-0.8h-15.1c0.1-2.2,1.2-4.3,2.9-5.8c2-1.9,4.2-3.6,6.2-5.4c1.1-1,2.1-2.1,3-3.4
		c1.2-1.4,1.3-3.4,0.2-4.9c-1.2-1.6-3.1-2.3-5-1.9c-1.9,0.3-3.4,1.8-3.6,3.6C113.6,201,113.6,201.2,113.5,201.5z"/>
	<path d="M226.4,209.8h3.2v3.1h-3.2v5.7h-3v-5.7H213c-0.3-1.6,0-3.2,0.9-4.6c3.1-4,6.1-8.1,9-12.3c0.6-1.3,2.2-1.9,3.6-1.4V209.8
		L226.4,209.8z M223.4,199.7h-0.3l-7.2,10h7.4L223.4,199.7z"/>
	<path d="M72.8,212.1l2.8-0.6c0.6,1.7,1.1,3.7,3.1,4.1c1.3,0.3,2.6,0.2,3.9-0.1c2.3-0.9,3.5-3.5,2.6-5.9c-0.7-2.4-3.2-3.5-6.5-2.8
		l0.2-2.5c1.1-0.2,2.2-0.4,3.2-0.7c1.6-0.4,2.5-2,2.2-3.6c-0.3-1.7-1.8-3-3.5-2.9c-2.5,0-3.6,0.7-4.9,3.9l-2.7-0.5
		c0.3-3.3,3-6,6.3-6.2c1.9-0.2,3.8,0.3,5.4,1.4c2.5,1.6,3.3,5,1.6,7.6c-0.5,0.8-1.2,1.4-2,1.9c0.8,0.4,1.5,0.9,2.2,1.4
		c2.3,2.3,2.6,5.9,0.8,8.6c-1.7,2.8-5,4.3-8.2,3.7c-3-0.2-5.5-2.3-6.3-5.2c0-0.3-0.2-0.5-0.2-0.8C72.7,212.5,72.7,212.3,72.8,212.1z
		"/>
	<path d="M203.3,200l-5.7,3.3c-0.6-2.2-0.5-2.7,1.2-3.7c2-1.2,3.8-2.8,5.2-4.6c0.4-0.5,1.3-0.6,2.2-1v24.4h-2.9V200z"/>
</g>
</svg>
