<?xml version="1.0" encoding="utf-8"?>
<!-- Generator: Adobe Illustrator 22.0.1, SVG Export Plug-In . SVG Version: 6.00 Build 0)  -->
<svg version="1.1" id="Layer_1" xmlns="http://www.w3.org/2000/svg" xmlns:xlink="http://www.w3.org/1999/xlink" x="0px" y="0px"
	 viewBox="0 0 283.5 283.5" style="enable-background:new 0 0 283.5 283.5;" xml:space="preserve">
<title>Untitled-2</title>
<g>
	<path d="M79.2,64.7v123.4H69.1V64.7H79.2z"/>
	<path d="M124.3,64.7v123.4h-10.1V64.7H124.3z"/>
	<path d="M56.4,64.7v123.4h-9.7V64.7H56.4z"/>
	<path d="M101.6,64.7v123.4h-9.7V64.7H101.6z"/>
	<path d="M182.4,64.7v123.4h-9.9V64.7H182.4z"/>
	<path d="M159.7,64.7v123.4h-9.5V64.7H159.7z"/>
	<path d="M237.4,64.7v123.4h-6.8V64.7H237.4z"/>
	<path d="M224.5,64.7v123.4h-6.8V64.7H224.5z"/>
	<path d="M215,64.7v123.4h-6.7V64.7H215z"/>
	<path d="M202.1,64.7v123.4h-6.7V64.7H202.1z"/>
	<path d="M133.8,64.7v123.4h-6.6V64.7H133.8z"/>
	<path d="M111.4,64.7v123.4h-6.7V64.7H111.4z"/>
	<path d="M88.7,64.7v123.4H82V64.7H88.7z"/>
	<path d="M66.3,64.7v123.4h-6.7V64.7H66.3z"/>
	<path d="M37,64.7v140.7h-3V64.7H37z"/>
	<path d="M250,64.7v140.7h-3.1V64.7H250z"/>
	<path d="M243.5,64.7v140.7h-3.1V64.7H243.5z"/>
	<path d="M43.5,64.7v140.7h-3V64.7H43.5z"/>
	<path d="M140.3,64.7v140.7h-3V64.7H140.3z"/>
	<path d="M146.7,64.7v140.7h-3V64.7H146.7z"/>
	<path d="M169.5,64.7v123.4h-3.4V64.7H169.5z"/>
	<path d="M191.9,64.7v123.4h-3V64.7H191.9z"/>
	<path d="M192.5,206.7c-0.5,2.7-1.1,5.4-1.9,8c-1,2.8-3.9,4.6-6.9,4.2c-2.7-0.1-5.1-1.8-6.1-4.3c-1.4-3.9-1.7-8.1-1-12.2
		c0.1-2.3,1.1-4.5,2.7-6.2c2.8-2.7,7.2-2.6,9.8,0.2c0.3,0.3,0.5,0.6,0.8,0.9c0.9,1.9,1.6,3.8,2,5.9c0.2,1.1,0.3,2.3,0.2,3.5
		L192.5,206.7z M189.3,206.7c-0.3-2.2-0.5-4.2-1-6.2c-0.4-1.9-2-3.2-3.9-3.3c-2-0.2-3.9,1.1-4.3,3.1c-1.2,4.1-1.2,8.4,0,12.5
		c0.8,2.2,3.2,3.5,5.5,2.7c1.3-0.4,2.3-1.5,2.7-2.8C188.7,210.7,189.1,208.7,189.3,206.7z"/>
	<path d="M173.4,208.1c-0.4,2.3-0.9,4.5-1.6,6.7c-1,2.8-3.8,4.5-6.7,4.1c-2.8,0-5.2-1.7-6.2-4.3c-1.2-3-1.7-6.3-1.4-9.5
		c0-2.4,0.5-4.7,1.5-6.9c1.2-2.6,3.9-4.2,6.8-3.9c2.6,0.1,4.9,1.6,6,4C173.2,201,173.2,203.9,173.4,208.1z M170.4,206.4
		c-0.2-2-0.5-4.1-1-6.1c-0.6-2.2-2.8-3.6-5.1-3c-0.1,0-0.3,0.1-0.4,0.1c-1.6,0.7-2.7,2.2-2.9,4c-0.7,3.5-0.7,7.2,0,10.8
		c0.3,1.5,1.2,2.7,2.5,3.4c2.1,1,4.7,0.1,5.7-2c0.2-0.4,0.3-0.9,0.4-1.4C170.1,210.4,170.2,208.5,170.4,206.4z"/>
	<path d="M117.1,218.6h-3c0.6-7.6,3.5-14.9,8.4-20.8h-11.8v-3h15.6c0.3,1.3-0.1,2.6-0.9,3.7c-4.5,5.5-7.4,12.3-8.2,19.4
		C117.2,218,117.1,218.3,117.1,218.6z"/>
	<path d="M54.2,194.6h14.6h0.9c0.2,1.3-0.1,2.7-0.9,3.7c-4.5,5.5-7.3,12.1-8.2,19.2c0,0.3,0,0.7-0.2,1.1h-3c0.6-7.7,3.5-15,8.4-20.9
		H54.2V194.6z"/>
	<path d="M84.9,197.7H73.1v-2.9h15.6c0.3,1.3-0.1,2.6-0.9,3.6c-4.6,5.5-7.4,12.2-8.2,19.4c0,0.3-0.1,0.6-0.2,0.9h-3
		c0.2-3.8,1-7.5,2.5-11C80.4,204,82.4,200.7,84.9,197.7z"/>
	<path d="M107.5,194.7c0.3,1.3-0.1,2.7-1,3.7c-4.7,5.8-7.5,12.8-8.2,20.1h-3c0.1-3.8,0.9-7.5,2.5-10.9c1.5-3.4,3.5-6.6,5.3-9.9H91.9
		v-3H107.5z"/>
	<path d="M206.4,194.5v24.1h-2.9V200l-5.7,3.3c-0.7-2.2-0.4-2.6,1.1-3.7c1.8-1.2,3.4-2.6,4.8-4.2
		C204.5,194.6,205.1,194.1,206.4,194.5z"/>
	<path d="M216.3,203.5v-3c2.7-1.3,5.1-3.2,6.9-5.7c0.3-0.4,1.2-0.4,2-0.6v24.3h-2.9V200L216.3,203.5z"/>
</g>
</svg>
