<?xml version="1.0" encoding="utf-8"?>
<!-- Generator: Adobe Illustrator 21.0.2, SVG Export Plug-In . SVG Version: 6.00 Build 0)  -->
<svg version="1.1" id="Layer_1" xmlns="http://www.w3.org/2000/svg" xmlns:xlink="http://www.w3.org/1999/xlink" x="0px" y="0px"
	 viewBox="0 0 283.5 283.5" style="enable-background:new 0 0 283.5 283.5;" xml:space="preserve">
<title>Untitled-2</title>
<path d="M111.5,64.7v123.2H98.6V64.7H111.5z"/>
<path d="M79.2,64.7v123.2H69.1V64.7H79.2z"/>
<path d="M56.5,64.7v123.2h-9.8V64.7H56.5z"/>
<path d="M182.4,64.7v123.2h-9.8V64.7H182.4z"/>
<path d="M237.1,64.7v123.2h-9.5V64.7H237.1z"/>
<path d="M204.9,64.7v123.2h-9.5V64.7H204.9z"/>
<path d="M159.7,64.7v123.2h-9.5V64.7H159.7z"/>
<path d="M66.3,64.7v123.2h-6.7V64.7H66.3z"/>
<path d="M88.8,64.7v123.2H82V64.7H88.8z"/>
<path d="M133.9,64.7v123.2h-6.5V64.7H133.9z"/>
<path d="M37.2,64.7v140.5h-3.1V64.7H37.2z"/>
<path d="M250,64.7v140.5h-3.1V64.7H250z"/>
<path d="M243.6,64.7v140.5h-3.1V64.7H243.6z"/>
<path d="M43.6,64.7v140.5h-3.1V64.7H43.6z"/>
<path d="M146.8,64.7v140.5h-3.1V64.7H146.8z"/>
<path d="M140.4,64.7v140.5h-3.1V64.7H140.4z"/>
<path d="M124.4,64.7v123.2H121V64.7H124.4z"/>
<path d="M169.5,64.7v123.2h-3.4V64.7H169.5z"/>
<path d="M221.1,64.7v123.2h-3.4V64.7H221.1z"/>
<path d="M214.7,64.7v123.2h-3.4V64.7H214.7z"/>
<path d="M192,64.7v123.2h-3.1V64.7H192z"/>
<path d="M95.2,64.7v123.2h-3.1V64.7H95.2z"/>
<path d="M107.1,200.3c-0.3,0-0.7,0-1,0.1c-1.2,0.5-1.8,0.2-2.3-1.1c-1-2.5-4.6-3.2-6.7-1.2c-2.2,2-2.5,4.6-2.2,7.6
	c0.4-0.5,0.8-1,1.2-1.4c3-2.4,7.3-2,9.8,1c0.1,0.2,0.3,0.3,0.4,0.5c2.1,3.4,1.8,7.8-0.9,10.8c-3,3-7.9,3-10.9,0
	c-0.8-0.8-1.4-1.8-1.8-2.8c-1.6-4.7-1.5-9.8,0.2-14.4c1.6-4.3,5.8-5.9,9.8-4.8C105.2,195.3,107,197.6,107.1,200.3z M99.9,205.5
	c-2.6-0.1-4.9,2-5,4.6c0,0.1,0,0.2,0,0.3c-0.2,2.8,2,5.3,4.9,5.4c0.1,0,0.2,0,0.2,0c2.7,0,4.6-2.2,4.6-5.4
	C104.6,207.5,102.7,205.5,99.9,205.5z"/>
<path d="M111,212.8c0.3,0,0.5,0,0.8-0.1c1.3-0.5,2.1-0.2,2.6,1.3c0.6,1.6,2.2,1.9,3.8,1.8c1.8,0,3.4-1.1,4-2.7
	c0.7-1.9,1.2-3.8,1.6-5.7l-0.4-0.2c-0.2,0.1-0.3,0.3-0.5,0.4c-1.5,2-4.1,2.9-6.5,2.4c-2.7-0.5-4.9-2.5-5.6-5.2
	c-1.1-4,0.5-8.3,3.8-9.9c3.9-1.9,8.6-0.3,10.5,3.6c0.3,0.6,0.5,1.2,0.6,1.8c1,4.1,0.9,8.3-0.3,12.4c-1.5,5.3-7.2,7.6-11.6,5
	C112.3,216.7,111.2,214.8,111,212.8z M118.4,207.3c3,0,4.8-1.9,4.8-5.1c0-3-1.9-5.2-4.6-5.2c-2.8,0.1-5.1,2.4-5,5.2
	c0,0.1,0,0.1,0,0.2c-0.1,2.6,1.9,4.8,4.5,4.9C118.2,207.3,118.3,207.3,118.4,207.3L118.4,207.3z"/>
<path d="M214.2,212.1l2.9-0.4c0.4,1.8,1.1,3.2,2.9,3.9c3.7,1.4,7.2-1.5,7-5.7c-0.1-2-0.8-3.7-2.8-4.4c-2.1-0.8-4.3-0.9-5.9,0.8
	c-1.3,1.3-2.3,0.8-3.7,0.4c0.8-4.1,1.5-8.1,2.3-12.2h11.9v3c-1.3,0-2.7,0-4.1,0c-1.3,0.1-2.6,0.1-3.9,0c-1.5-0.2-1.9,0.5-2.1,1.8
	c-0.2,1.4-0.5,2.8-0.8,4.3c4.7-2.1,7.8-1.7,10.3,1.2c2.2,2.6,2.4,7.1,0.4,10.2c-2,3.2-5.9,4.6-9.5,3.4
	C216.3,217.6,214.3,215,214.2,212.1z"/>
<path d="M173.7,206.5c-0.5,2.7-1.1,5.3-1.8,7.9c-1.1,3-3.6,4.4-6.8,4.2c-2.8,0.1-5.3-1.7-6.2-4.3c-1.9-5-1.9-10.6-0.1-15.6
	c0.9-2.9,3.7-4.8,6.8-4.5c2.9-0.1,5.6,1.7,6.5,4.6C172.7,201.3,173.3,203.9,173.7,206.5z M170.4,206.2c-0.2-2-0.5-4-1-6
	c-0.5-2-2.2-3.3-4.3-3.2c-2,0-3.6,1.4-4.1,3.9c-0.8,3.7-0.8,7.4,0,11.1c0.2,1.5,1.2,2.7,2.5,3.4c2.6,1.3,5.3-0.2,6.1-3.4
	C170,210.1,170.3,208.2,170.4,206.2L170.4,206.2z"/>
<path d="M192.5,206.5c-0.4,2.7-1.1,5.3-1.8,8c-1.1,3.1-3.6,4.4-6.9,4.2c-2.8,0-5.2-1.8-6.2-4.4c-1.6-3.8-1.4-7.8-1-11.8
	c0.1-2.3,1.1-4.6,2.7-6.3c3-3.1,8.5-2.6,10.7,1c0.9,1.7,1.6,3.6,1.9,5.5c0.2,1.2,0.3,2.5,0.3,3.7L192.5,206.5z M189.3,206.5
	c-0.3-2.2-0.5-4.3-1-6.3c-0.4-1.9-2.1-3.2-4-3.2c-2.2,0-3.9,1.4-4.4,4c-0.7,3.3-0.7,6.8-0.2,10.1c0.1,0.6,0.3,1.2,0.5,1.7
	c0.6,1.8,2.2,3,4.1,3c1.9,0,3.5-1.3,4-3.1C188.8,210.7,189,208.6,189.3,206.5L189.3,206.5z"/>
<path d="M211,207.6c-0.2,2-0.6,4-1.1,5.9c-0.6,2.7-2.9,4.8-5.7,5.1c-2.5,0.5-5.1-0.4-6.7-2.4c-1.2-1.7-2-3.6-2.1-5.7
	c-0.6-3.6-0.4-7.3,0.6-10.8c1.2-3.7,3.7-5.5,7.4-5.5c2.3,0,4.4,1.2,5.5,3.2C210.8,200.2,210.9,203.3,211,207.6z M208.1,207.1
	c-0.2-2.1-0.3-3.6-0.4-5.2c-0.1-0.6-0.2-1.1-0.4-1.6c-0.5-1.9-2.2-3.3-4.2-3.3c-2-0.1-3.7,1.3-4.1,3.3c-1.1,4-1.1,8.2,0,12.2
	c0.4,2,2.2,3.4,4.2,3.3c2,0,3.7-1.4,4.1-3.3C207.6,210.8,207.8,209,208.1,207.1L208.1,207.1z"/>
<path d="M60.6,218.4h-3c0.6-7.7,3.5-14.9,8.4-20.8H54.3v-3h15.5c0.3,1.2,0,2.5-0.8,3.5c-4.6,5.5-7.4,12.2-8.2,19.3
	C60.8,217.6,60.7,218,60.6,218.4z"/>
<path d="M84.9,197.5H73.1v-3h15.5c0.3,1.3-0.1,2.6-0.9,3.6c-4.7,5.7-7.6,12.8-8.3,20.2h-3C77,210.7,80,203.4,84.9,197.5z"/>
</svg>
