<?xml version="1.0" encoding="utf-8"?>
<!-- Generator: Adobe Illustrator 21.0.2, SVG Export Plug-In . SVG Version: 6.00 Build 0)  -->
<svg version="1.1" id="Layer_1" xmlns="http://www.w3.org/2000/svg" xmlns:xlink="http://www.w3.org/1999/xlink" x="0px" y="0px"
	 viewBox="0 0 283.5 283.5" style="enable-background:new 0 0 283.5 283.5;" xml:space="preserve">
<title>Untitled-2</title>
<path d="M182.2,187.9h-9.6V64.7h9.6V187.9z"/>
<path d="M204.7,187.9h-9.4V64.8h9.4V187.9z"/>
<path d="M159.5,187.9h-9.4V64.7h9.4V187.9z"/>
<path d="M230.6,187.9V64.7h6.6v123.2H230.6z"/>
<path d="M224.3,187.9h-6.5V64.7h6.5V187.9z"/>
<path d="M59.8,64.7h6.3v123.2h-6.3V64.7z"/>
<path d="M75.7,187.9h-6.3V64.8h6.3V187.9z"/>
<path d="M111.3,187.9H105V64.8h6.3L111.3,187.9z"/>
<path d="M121,64.7h6.3v123.2H121V64.7z"/>
<path d="M34,64.7H37v140.4H34V64.7z"/>
<path d="M246.9,64.7h2.9v140.5h-2.9L246.9,64.7z"/>
<path d="M243.4,205.2h-2.9V64.8h2.9V205.2z"/>
<path d="M40.5,64.7h2.9v140.5h-2.9V64.7z"/>
<path d="M146.6,205.2h-2.9V64.8h2.9V205.2z"/>
<path d="M140.2,205.2h-2.9V64.8h2.9V205.2z"/>
<path d="M214.5,187.9h-3.2V64.8h3.2V187.9z"/>
<path d="M169.3,187.9h-3.2V64.7h3.2V187.9z"/>
<path d="M46.9,64.7h2.9v123.2h-2.9V64.7z"/>
<path d="M85.6,64.7h2.9v123.2h-2.9V64.7z"/>
<path d="M191.8,187.9h-2.9V64.8h2.9V187.9z"/>
<path d="M130.8,64.7h2.9v123.2h-2.9V64.7z"/>
<path d="M92.1,64.7H95v123.2h-2.9V64.7z"/>
<path d="M87.6,194.4v3.1H78l-1.3,6.2c4.4-2.2,7.5-1.9,10.2,1c2.3,2.5,2.6,6.9,0.7,10.1c-2.1,3.4-5.7,4.6-9.7,3.6
	c-2.9-0.8-4.9-3.3-5-6.3l2.9-0.4c0.4,2,1.3,3.5,3.4,4c2.5,0.8,5.2-0.6,6.1-3.1c0.7-2.2,0.7-4.5-1.1-6.3c-2.1-1.9-5.2-1.8-7.2,0
	c-1.3,1.3-2.3,0.7-3.7,0.4c0.6-3.1,1.1-6.1,1.7-9.2c0.2-1,0.1-2.4,0.8-2.9c0.7-0.5,2-0.2,3.1-0.2C81.8,194.4,84.6,194.4,87.6,194.4z
	"/>
<path d="M173.6,206.5c-0.4,2.7-1,5.3-1.8,7.9c-1.1,3.1-3.6,4.5-6.8,4.3c-2.8,0.1-5.3-1.7-6.2-4.4c-1.9-5-1.9-10.6-0.1-15.6
	c0.9-2.8,3.6-4.7,6.5-4.5c3-0.2,5.7,1.6,6.6,4.5C172.6,201.2,173.1,203.8,173.6,206.5z M170.3,206.8c-0.2-1.9-0.3-3.4-0.4-4.9
	c-0.1-0.6-0.2-1.2-0.4-1.7c-0.6-2.2-2.9-3.5-5.1-3.1c-2,0.6-3,2.1-3.4,4c-0.7,3.5-0.7,7.2,0,10.7c0.2,1.6,1.2,2.9,2.6,3.6
	c2.6,1.2,5.3-0.3,6-3.4C169.9,210.3,170.1,208.6,170.3,206.8L170.3,206.8z"/>
<path d="M192.4,206.5c-0.5,2.7-1.1,5.3-1.9,7.9c-1.1,3.1-3.7,4.4-6.9,4.2c-2.8,0-5.2-1.8-6.1-4.5c-1.5-3.8-1.4-7.8-1-11.8
	c0.1-2.3,1.1-4.6,2.7-6.3c2.8-2.7,7.3-2.6,10,0.2c0.3,0.3,0.5,0.6,0.7,0.9c1.9,2.8,2,6.1,2.1,9.3L192.4,206.5z M189.2,206.4
	c-0.3-2.1-0.5-4.2-1-6.3c-0.4-1.9-2.1-3.2-4-3.2c-2.3,0-4.1,1.5-4.4,4.3c-0.3,3.1-0.2,6.3-0.2,9.5c0,0.6,0.2,1.2,0.4,1.7
	c0.5,1.9,2.2,3.2,4.1,3.3c2,0,3.7-1.4,4.2-3.4C188.7,210.5,188.9,208.5,189.2,206.4z"/>
<path d="M126.6,206.5c-0.5,2.7-1.1,5.3-1.8,7.9c-1.1,3-3.6,4.4-6.8,4.2c-2.8,0-5.3-1.7-6.2-4.3c-1.2-3-1.6-6.3-1.2-9.5
	c0.2-2.2,0.6-4.4,1.4-6.5c0.9-2.6,3.3-4.2,6-4.2c2.9-0.3,5.7,1.4,6.8,4.1c1.3,2.6,1.4,5.4,1.5,8.2L126.6,206.5z M123.4,206.3
	c-0.3-1.9-0.5-4.1-1.1-6.3c-0.5-1.8-2.2-3-4-3c-2.3,0-4.2,1.8-4.3,4.1c-0.3,3.2-0.4,6.4-0.2,9.6c0,1.9,1,3.7,2.6,4.6
	c2.5,1.4,5.4,0,6.2-3.2C122.9,210.2,123.2,208.2,123.4,206.3z"/>
<path d="M210.9,207.6c-0.2,2-0.6,4-1.1,5.9c-0.6,2.7-2.9,4.8-5.7,5.1c-2.5,0.5-5.1-0.4-6.7-2.4c-1.2-1.7-2-3.6-2.1-5.7
	c-0.6-3.6-0.4-7.3,0.6-10.8c1.2-3.7,3.7-5.5,7.4-5.4c2.2,0,4.3,1.2,5.5,3.1C210.6,200.1,210.7,203.2,210.9,207.6z M208,206.4
	c-0.3-2.1-0.5-4.2-1-6.3c-0.5-1.9-2.1-3.2-4.1-3.1c-1.9-0.1-3.6,1.2-4,3.1c-1.2,4.1-1.2,8.4-0.1,12.4c0.4,1.9,2.2,3.3,4.1,3.3
	c2,0,3.7-1.3,4.1-3.3C207.5,210.6,207.7,208.5,208,206.4L208,206.4z"/>
<path d="M90.7,212.8c-0.4-1.8,0-3.6,1.2-5c3-3.9,5.8-7.8,8.6-11.9c0.7-1.3,2.2-1.9,3.6-1.3v15.1h3.2v3h-3.2v5.7h-3v-5.6L90.7,212.8z
	 M101,199.2l-7.4,10.3h7.4V199.2z"/>
<path d="M66.5,194.6v15.1h3.2v3.1h-3.2v5.7h-3v-5.6H53.1c-0.4-1.6,0-3.3,1-4.7c3.1-4,6-8.1,8.9-12.2
	C63.6,194.6,65.1,194.1,66.5,194.6z M63.4,209.6v-10.4l-7.4,10.4H63.4z"/>
<path d="M225,218.4h-2.8v-18.6l-5.9,3.5v-3c2.7-1.3,5-3.2,6.8-5.5c0.3-0.4,1.2-0.5,2-0.8L225,218.4z"/>
</svg>
