<?xml version="1.0" encoding="utf-8"?>
<!-- Generator: Adobe Illustrator 21.0.2, SVG Export Plug-In . SVG Version: 6.00 Build 0)  -->
<svg version="1.1" id="Layer_1" xmlns="http://www.w3.org/2000/svg" xmlns:xlink="http://www.w3.org/1999/xlink" x="0px" y="0px"
	 viewBox="0 0 283.5 283.5" style="enable-background:new 0 0 283.5 283.5;" xml:space="preserve">
<title>Untitled-2</title>
<path d="M127.4,187.9h-12.7V64.7h12.7V187.9z"/>
<path d="M88.7,187.9H75.9V64.7h12.7V187.9z"/>
<path d="M224.3,64.7h9.7v123.2h-9.7V64.7z"/>
<path d="M172.7,64.7h9.7v123.2h-9.7L172.7,64.7z"/>
<path d="M150.2,64.7h9.4v123.2h-9.4V64.7z"/>
<path d="M204.8,187.9h-9.4V64.8h9.4V187.9z"/>
<path d="M66.2,187.9H60V64.8h6.3V187.9z"/>
<path d="M92.2,187.9V64.7h6.3v123.1H92.2z"/>
<path d="M249.9,205.2H247V64.8h2.9V205.2z"/>
<path d="M40.6,64.7h2.9v140.4h-2.9V64.7z"/>
<path d="M243.5,205.2h-2.9V64.7h2.9V205.2z"/>
<path d="M37.1,205.2h-2.9V64.8h2.9V205.2z"/>
<path d="M140.3,64.7v140.5h-3V64.7H140.3z"/>
<path d="M143.8,64.7h2.9v140.4h-2.9V64.7z"/>
<path d="M217.8,64.7h3.2v123.2h-3.2V64.7z"/>
<path d="M211.4,64.7h3.2v123.2h-3.2V64.7z"/>
<path d="M169.4,187.9h-3.2V64.7h3.2V187.9z"/>
<path d="M111.4,187.9h-3.2V64.7h3.2V187.9z"/>
<path d="M69.5,64.7h3.2v123.2h-3.2V64.7z"/>
<path d="M188.9,64.7h2.9v123.2h-2.9V64.7z"/>
<path d="M133.8,187.9h-2.9V64.8h2.9V187.9z"/>
<path d="M47,64.7H50v123.2H47V64.7z"/>
<path d="M88.6,200.2l-3.1,0.4c-1.3-2.9-2.3-3.7-4.6-3.6c-1.7,0.1-3.2,1.1-4,2.6c-1,1.9-1.4,4-1.2,6.1c2.2-3.2,6.6-4,9.8-1.8
	c1.5,1,2.5,2.6,2.9,4.3c1,4-0.9,8.3-4.3,9.8c-3.9,1.8-8.5,0-10.2-3.9c-0.1-0.2-0.2-0.4-0.2-0.5c-1.7-4.8-1.6-10.1,0.4-14.9
	c2.2-5.2,9.2-6.4,12.6-2.2C87.5,197.7,88.2,199,88.6,200.2z M81.1,205.5c-2.7-0.1-4.9,2-4.9,4.7c0,0,0,0.1,0,0.1
	c0,3.1,2.1,5.5,5,5.5c2.8,0,4.7-2.1,4.7-5.3C85.8,207.5,83.9,205.5,81.1,205.5z"/>
<path d="M92.3,206.7c0.8-4,1.5-7.8,2.2-11.7c0.1-0.3,0.3-0.5,0.6-0.6c3.8,0,7.5,0,11.4,0v3.1c-2,0-4,0-6,0c-1.2,0-2.7-0.3-3.5,0.3
	c-0.7,0.5-0.6,2.1-0.9,3.2c-0.2,0.8-0.3,1.7-0.5,2.6c4.8-2.1,7.9-1.7,10.4,1.3c2.2,2.6,2.3,7.3,0.2,10.3c-2.1,3.1-6.1,4.4-9.6,3
	c-2.8-0.8-4.7-3.3-4.7-6.2c0.9-0.1,1.8-0.2,2.8-0.4c0.1,0.3,0.2,0.4,0.2,0.6c0.4,2.2,2.4,3.8,4.7,3.5c2.2,0.1,4.2-1.4,4.7-3.6
	c0.5-2.2,0.5-4.3-1.2-6c-1.8-1.8-5.4-1.9-7.1,0C94.7,207.7,93.7,207,92.3,206.7z"/>
<path d="M173.3,206.4c-0.1,2.8-0.2,5.6-1.5,8.2c-1.2,2.7-4,4.4-6.9,4.1c-2.7,0-5.1-1.7-6-4.2c-1.9-5-2-10.6-0.2-15.6
	c1.3-3.7,5.4-5.5,9.1-4.2c1.9,0.7,3.5,2.2,4.2,4.2c0.7,2.5,1.3,5,1.7,7.6L173.3,206.4z M170.4,206.2c-0.2-2-0.6-4-1-6
	c-0.5-2-2.3-3.3-4.3-3.2c-2,0-3.6,1.4-4.1,3.9c-0.8,3.7-0.8,7.4,0,11.1c0.3,1.5,1.2,2.7,2.5,3.4c2.6,1.2,5.3-0.2,6.1-3.4
	C170,210.1,170.3,208.1,170.4,206.2z"/>
<path d="M192.5,206.4c-0.5,2.7-1.1,5.4-1.9,8.1c-1.1,3.1-3.7,4.4-6.9,4.2c-2.7-0.1-5.2-1.8-6.1-4.4c-1.6-3.9-1.4-7.9-1-11.9
	c0.1-2.3,1.1-4.6,2.7-6.3c3-3,8.4-2.6,10.6,1c0.9,1.8,1.6,3.7,2,5.6c0.2,1.2,0.3,2.4,0.3,3.6L192.5,206.4z M189.3,206.5
	c-0.3-2.1-0.5-4.3-1-6.3c-0.4-1.9-2.1-3.2-4-3.2c-2.3,0-4.1,1.5-4.4,4.3c-0.3,3.1-0.2,6.3-0.2,9.5c0.1,0.7,0.2,1.4,0.5,2
	c0.5,1.8,2.2,3,4,3.1c1.9,0,3.6-1.2,4.1-3.1C188.8,210.7,189,208.6,189.3,206.5L189.3,206.5z"/>
<path d="M211.1,207c-0.2,2.2-0.6,4.3-1.2,6.4c-1.7,5.7-7.3,6.3-10.8,4.2c-1.6-1-2.7-2.5-3.1-4.3c-1.3-4.5-1.3-9.2,0-13.7
	c0.9-3.8,4.8-6.2,8.6-5.3c0.9,0.2,1.8,0.6,2.5,1.1c1.8,1.4,3,3.6,3.3,5.9C210.8,203,210.9,204.7,211.1,207z M208.1,206.4
	c-0.3-2.1-0.5-4.2-1-6.3c-0.5-1.9-2.2-3.1-4.1-3.1c-1.9-0.1-3.5,1.2-4,3c-1.2,4.1-1.3,8.5-0.1,12.6c0.5,1.9,2.2,3.3,4.1,3.2
	c2,0,3.7-1.4,4.1-3.3C207.7,210.6,207.8,208.5,208.1,206.4z"/>
<path d="M226.5,218.4h-3v-5.6h-10.4c-0.4-1.6,0-3.3,1-4.7c3.1-4,6.1-8.1,8.9-12.3c0.7-1.2,2.2-1.7,3.5-1.3v15.1h3.2v3.1h-3.2
	L226.5,218.4z M223.4,199.2c-2.6,3.6-5,6.9-7.4,10.3h7.4V199.2z"/>
<path d="M66.6,194.6v15.1h3.2v3h-3.2v5.6h-3v-5.5H53.2c-0.4-1.6,0-3.3,1-4.7c3.1-4,6-8.1,8.9-12.2C63.7,194.6,65.2,194.1,66.6,194.6
	z M63.5,199.2c-2.6,3.6-5,7-7.4,10.4h7.4V199.2z"/>
<path d="M122.2,204.9c3.4,1.7,4.6,3.9,4.2,7.2c-0.5,3.1-2.9,5.6-5.9,6.3c-4.9,1.1-8.9-1.6-9.7-5.4c-0.1-0.2-0.1-0.5-0.1-0.9l2.8-0.6
	c0.6,1.7,1.1,3.6,3,4.1c1.3,0.3,2.6,0.3,3.9-0.1c2.3-0.7,3.5-3.4,2.8-5.8c-0.7-2.5-3.1-3.6-6.6-3l0.3-2.5c1-0.2,2-0.4,3-0.7
	c1.8-0.7,2.7-2,2.4-3.6c-0.3-1.7-1.8-2.9-3.6-2.9c-2.5-0.1-3.6,0.7-4.9,3.8l-2.7-0.5c0.4-4.4,4.5-6.9,8.6-6c3.8,0.8,5.8,3.3,5.5,6.6
	C125,202.8,123.8,203.9,122.2,204.9z"/>
</svg>
