<?xml version="1.0" encoding="utf-8"?>
<!-- Generator: Adobe Illustrator 21.0.2, SVG Export Plug-In . SVG Version: 6.00 Build 0)  -->
<svg version="1.1" id="Layer_1" xmlns="http://www.w3.org/2000/svg" xmlns:xlink="http://www.w3.org/1999/xlink" x="0px" y="0px"
	 viewBox="0 0 283.5 283.5" style="enable-background:new 0 0 283.5 283.5;" xml:space="preserve">
<title>Untitled-2</title>
<path d="M59.7,187.9H46.9V64.8h12.7V187.9z"/>
<path d="M217.7,64.7h9.6v123.2h-9.6V64.7z"/>
<path d="M182.2,187.9h-9.7V64.8h9.7V187.9z"/>
<path d="M204.7,187.9h-9.4V64.8h9.4V187.9z"/>
<path d="M150.1,64.7h9.4v123.2h-9.4V64.7z"/>
<path d="M98.5,64.7h6.3v123.2h-6.3V64.7z"/>
<path d="M121,64.7h6.3v123.2H121V64.7z"/>
<path d="M88.6,187.9h-6V64.8h6L88.6,187.9z"/>
<path d="M34,64.7H37v140.4H34V64.7z"/>
<path d="M249.8,205.2h-2.9V64.7h2.9L249.8,205.2z"/>
<path d="M240.4,64.7h2.9v140.4h-2.9V64.7z"/>
<path d="M43.4,205.2h-2.9V64.8h2.9V205.2z"/>
<path d="M140.2,205.2h-2.9V64.7h2.9V205.2z"/>
<path d="M146.6,205.2h-2.9V64.7h2.9V205.2z"/>
<path d="M66.1,187.9h-3.2V64.7h3.2V187.9z"/>
<path d="M230.6,64.7h3.2v123.2h-3.2V64.7z"/>
<path d="M111.3,187.9h-3.2V64.8h3.2V187.9z"/>
<path d="M166.1,64.7h3.2v123.2h-3.2V64.7z"/>
<path d="M211.3,64.7h3.2v123.2h-3.2V64.7z"/>
<path d="M191.8,187.9h-3V64.8h3V187.9z"/>
<path d="M130.8,64.7h2.9v123.2h-2.9V64.7z"/>
<path d="M73,64.7h2.7v123.2H73V64.7z"/>
<path d="M214.2,213c0.7-0.2,1.4-0.4,2.1-0.4c0.4,0,0.8,0.2,1.1,0.5c1.6,3.4,5.6,3.9,7.8,0.9c1.3-1.9,1.9-4.2,1.8-6.5
	c-1.2,0.9-2.5,1.8-3.8,2.4c-3.3,1.1-7-0.5-8.4-3.8c-1.8-3.9-0.5-8.8,2.9-10.8c3.6-2.2,8.3-1.1,10.5,2.5c0.3,0.5,0.5,0.9,0.7,1.4
	c1.9,5.1,1.6,10.7-0.8,15.5c-2.3,4.6-9.2,5.4-12.1,1.7C215.2,215.3,214.6,214.2,214.2,213z M221.8,207.3c2.9,0,4.7-2,4.7-5.1
	c0-3.1-2-5.3-4.8-5.2c-2.8,0.1-5,2.5-4.9,5.4c-0.1,2.6,1.9,4.8,4.5,4.9C221.6,207.3,221.7,207.3,221.8,207.3z"/>
<path d="M173.3,208.1c-0.4,2.1-0.9,4.3-1.6,6.3c-1.1,3-3.6,4.3-6.8,4.2c-2.7,0-5.2-1.7-6.1-4.3c-1.9-5-2-10.6-0.1-15.6
	c0.8-2.8,3.4-4.6,6.3-4.6c3.3-0.1,5.6,1.5,6.9,4.5C173.1,201.3,173.1,204.1,173.3,208.1z M170.3,206.3c-0.2-2-0.6-4.1-1-6.1
	c-0.5-2-2.3-3.3-4.3-3.2c-2,0.1-3.5,1.4-4.1,3.9c-0.8,3.7-0.8,7.4,0,11.1c0.3,1.5,1.2,2.7,2.5,3.4c2.6,1.2,5.3-0.2,6.1-3.4
	C169.9,210.1,170.2,208.2,170.3,206.3L170.3,206.3z"/>
<path d="M192.4,206.4c-0.5,2.7-1.1,5.4-1.9,8.1c-1.1,3.1-3.7,4.4-6.9,4.2c-2.7-0.1-5.2-1.8-6.1-4.4c-1.6-3.9-1.4-7.9-1-11.9
	c0.1-2.3,1.1-4.6,2.7-6.3c3-3,8.4-2.6,10.6,1c0.9,1.8,1.6,3.7,2,5.6c0.2,1.2,0.3,2.4,0.3,3.6L192.4,206.4z M189.2,206.4
	c-0.3-2.1-0.5-4.2-1-6.2c-0.4-1.9-2.1-3.2-4-3.2c-2.3,0-3.9,1.4-4.5,4.1c-0.6,3.2-0.7,6.6-0.2,9.9c0.1,0.6,0.2,1.1,0.4,1.6
	c0.5,1.9,2.2,3.2,4.2,3.2c2,0,3.7-1.4,4.1-3.3C188.7,210.6,188.9,208.5,189.2,206.4L189.2,206.4z"/>
<path d="M107.8,206.5c-0.5,2.7-1.1,5.3-1.9,7.9c-1.1,3.1-3.7,4.4-6.9,4.2c-2.8,0-5.3-1.8-6.1-4.5c-1.9-5.2-1.8-10.9,0.2-16
	c1.7-3.5,5.9-5,9.4-3.3c1.5,0.7,2.6,1.9,3.3,3.3c0.6,1.5,1,3,1.3,4.5c0.2,1.2,0.2,2.5,0.2,3.7L107.8,206.5z M104.6,206.7
	c-0.4-2.4-0.5-4.4-1-6.4c-0.4-1.9-2.1-3.3-4-3.3c-2.3,0-3.9,1.4-4.4,4.2c-0.6,3.2-0.7,6.6-0.2,9.9c0.1,0.8,0.3,1.5,0.7,2.2
	c0.6,1.6,2.1,2.6,3.8,2.6c1.7,0.1,3.3-0.9,3.9-2.6C103.9,211.1,104.3,208.9,104.6,206.7z"/>
<path d="M126.2,206.5c-0.1,2.7-0.2,5.5-1.5,8.1c-1.1,2.7-3.9,4.4-6.9,4.1c-2.7,0-5.2-1.7-6.1-4.3c-1.2-3-1.6-6.3-1.2-9.5
	c0.2-2.2,0.6-4.4,1.3-6.5c0.9-2.6,3.3-4.3,6-4.2c2.9-0.3,5.7,1.4,6.8,4C126,200.8,126.1,203.6,126.2,206.5z M123.4,206.3
	c-0.3-1.9-0.5-4.1-1.1-6.3c-0.5-1.8-2.2-3-4-3c-2.3,0-4.2,1.8-4.3,4.1c-0.3,3.2-0.4,6.4-0.2,9.6c0,1.9,1,3.7,2.6,4.6
	c2.5,1.4,5.4,0,6.2-3.2C122.9,210.2,123.2,208.2,123.4,206.3z"/>
<path d="M211,207c-0.2,2.2-0.6,4.3-1.2,6.4c-1.7,5.7-7.3,6.3-10.8,4.2c-1.6-1-2.7-2.5-3.1-4.3c-1.3-4.5-1.3-9.2,0-13.7
	c0.9-3.9,4.8-6.2,8.6-5.3c0.9,0.2,1.8,0.6,2.5,1.1c1.8,1.4,3,3.6,3.3,5.9C210.7,203,210.8,204.7,211,207z M208,206.4
	c-0.3-2.1-0.5-4.2-1-6.3c-0.5-1.9-2.1-3.2-4.1-3.1c-1.9-0.1-3.6,1.2-4,3.1c-1.2,4.1-1.2,8.4-0.1,12.4c0.4,1.9,2.2,3.3,4.1,3.3
	c2,0,3.7-1.3,4.1-3.3C207.5,210.6,207.7,208.5,208,206.4z"/>
<path d="M75.9,201.4L73,201c0-2.4,1.3-4.7,3.5-5.9c2.2-1.2,4.9-1.4,7.3-0.6c3.4,0.9,5.4,4.5,4.4,7.9c-0.2,0.7-0.5,1.3-0.9,1.9
	c-1.5,2-3.2,3.8-5.1,5.4c-1.2,1.2-2.6,2.2-3.8,3.3c-0.7,0.6-1.2,1.3-2,2.2h11.9v3H72.2c0.2-1.1,0.6-2.1,1.2-3.1
	c1.6-1.9,3.3-3.7,5.1-5.4c2.2-2,4.8-3.7,6.3-6.4c1.2-2,0.7-4.5-1.3-5.8c-0.7-0.5-1.6-0.7-2.5-0.6C77.9,197,76.5,198.2,75.9,201.4z"
	/>
<path d="M59.9,206.7l0.3-2.5c1.1-0.2,2.1-0.4,3.1-0.8c1.5-0.4,2.5-1.9,2.3-3.4c-0.3-1.7-1.7-2.9-3.3-3c-2.2-0.4-4.4,1-4.9,3.2
	c-0.1,0.2-0.1,0.4-0.2,0.6l-2.8-0.6c0.5-2.6,1.8-4.6,4.3-5.6c2.6-1.1,5.6-0.7,7.8,1.1c2.2,1.6,2.8,4.5,1.6,6.8
	c-0.6,0.9-1.4,1.7-2.2,2.4c3.5,2,4.7,4.5,3.8,8c-1,3.4-4.2,5.7-7.7,5.6c-4.4,0-7.5-2.7-7.8-6.6l2.8-0.6c0.6,1.7,1.1,3.6,3.1,4.1
	c1.3,0.3,2.6,0.2,3.8-0.1c2.3-0.9,3.5-3.4,2.7-5.7C65.8,207.2,63.4,206.1,59.9,206.7z"/>
</svg>
