<?xml version="1.0" encoding="utf-8"?>
<!-- Generator: Adobe Illustrator 21.0.2, SVG Export Plug-In . SVG Version: 6.00 Build 0)  -->
<svg version="1.1" id="Layer_1" xmlns="http://www.w3.org/2000/svg" xmlns:xlink="http://www.w3.org/1999/xlink" x="0px" y="0px"
	 viewBox="0 0 283.5 283.5" style="enable-background:new 0 0 283.5 283.5;" xml:space="preserve">
<title>Untitled-2</title>
<path d="M82.2,64.7v123.2H69.3V64.7H82.2z"/>
<path d="M127.3,64.7v123.2h-12.9V64.7H127.3z"/>
<path d="M111.3,64.7v123.2h-10.1V64.7H111.3z"/>
<path d="M233.9,64.7v123.2h-9.8V64.7H233.9z"/>
<path d="M182.3,64.7v123.2h-9.8V64.7H182.3z"/>
<path d="M204.7,64.7v123.2h-9.5V64.7H204.7z"/>
<path d="M159.6,64.7v123.2H150V64.7H159.6z"/>
<path d="M98.4,64.7v123.2h-6.7V64.7H98.4z"/>
<path d="M66.2,64.7v123.2H60V64.7H66.2z"/>
<path d="M37,64.7v140.5h-3.1V64.7H37z"/>
<path d="M249.9,64.7v140.5h-3.1V64.7H249.9z"/>
<path d="M243.4,64.7v140.5h-3.1V64.7H243.4z"/>
<path d="M43.5,64.7v140.5h-3.1V64.7H43.5z"/>
<path d="M146.7,64.7v140.5h-3.1V64.7H146.7z"/>
<path d="M140.2,64.7v140.5h-3.1V64.7H140.2z"/>
<path d="M221,64.7v123.2h-3.4V64.7H221z"/>
<path d="M169.4,64.7v123.2H166V64.7H169.4z"/>
<path d="M214.5,64.7v123.2h-3.4V64.7H214.5z"/>
<path d="M53.3,64.7v123.2h-3.1V64.7H53.3z"/>
<path d="M191.8,64.7v123.2h-3.1V64.7H191.8z"/>
<path d="M133.8,64.7v123.2h-3.1V64.7H133.8z"/>
<path d="M88.6,64.7v123.2h-3.1V64.7H88.6z"/>
<path d="M96.1,205.1c-1.5-0.5-2.7-1.7-3.3-3.2c-0.8-2.7,0.4-5.6,2.9-6.9c2.5-1.3,5.5-1.2,7.9,0.2c3,1.7,4.7,7.2-0.4,9.8
	c0.8,0.4,1.6,1,2.3,1.5c1.9,1.8,2.5,4.5,1.6,6.9c-0.6,2.5-2.7,4.4-5.2,4.9c-3.4,0.8-6.5,0.2-8.9-2.7C90.8,213,90.6,206.8,96.1,205.1
	z M99.5,206.6c-2.6-0.1-4.8,1.8-4.9,4.4c0,0.1,0,0.2,0,0.3c0,2.7,2.1,4.7,5.1,4.7c2.5,0.2,4.6-1.7,4.8-4.2c0-0.1,0-0.3,0-0.4
	c0-2.6-2-4.7-4.6-4.7C99.7,206.6,99.6,206.6,99.5,206.6L99.5,206.6z M99.6,203.8c2.2,0,3.9-1.4,3.9-3.3c0-1.8-1.8-3.4-4-3.4
	c-2.3,0-4,1.4-4,3.3C95.6,202.4,97.2,203.8,99.6,203.8z"/>
<path d="M173.3,205.1c-0.2,4.1-0.3,6.9-1.5,9.5c-1.1,2.7-3.9,4.4-6.9,4.2c-2.7,0-5.2-1.7-6.1-4.3c-1.9-5-2-10.6-0.1-15.6
	c0.9-2.8,3.5-4.7,6.5-4.6c3-0.3,5.8,1.6,6.7,4.5C172.5,200.8,172.9,202.9,173.3,205.1z M170.3,206.1c-0.2-2.1-0.6-4.1-1.1-6.1
	c-0.5-1.8-2.2-3-4-3c-1.9-0.1-3.5,1.2-4,3c-1.2,4.1-1.3,8.4-0.1,12.6c0.5,2.1,2.5,3.5,4.7,3.2c2-0.4,3.5-1.9,3.8-3.9
	C170,210.2,170.1,208.3,170.3,206.1z"/>
<path d="M192.4,206.5c-0.4,2.7-1,5.3-1.8,8c-1.1,3.1-3.7,4.5-7,4.3c-2.8-0.1-5.2-1.9-6.1-4.5c-1.5-3.8-1.4-7.8-0.9-11.8
	c0.1-2.3,1.1-4.6,2.7-6.3c3-3,8.4-2.6,10.6,1.1c0.9,1.8,1.6,3.7,2,5.6c0.2,1.2,0.3,2.4,0.3,3.6L192.4,206.5z M189.2,206.5
	c-0.3-2.1-0.5-4.3-1-6.3c-0.5-1.9-2.1-3.2-4-3.1c-2.2,0-3.8,1.4-4.3,4c-0.7,3.4-0.8,7-0.1,10.5c0.1,0.5,0.2,0.9,0.4,1.4
	c0.6,1.8,2.2,3,4,3c1.9,0,3.6-1.3,4.1-3.1C188.7,210.7,188.9,208.6,189.2,206.5L189.2,206.5z"/>
<path d="M211,207.1c-0.2,2.2-0.6,4.3-1.2,6.4c-1.7,5.7-7.3,6.3-10.8,4.2c-1.5-1-2.7-2.5-3.1-4.3c-1.3-4.5-1.3-9.2,0-13.7
	c0.9-3.8,4.8-6.2,8.6-5.3c0.9,0.2,1.8,0.6,2.5,1.1c1.8,1.5,3,3.6,3.3,5.9C210.7,203.1,210.8,204.8,211,207.1z M208,206.5
	c-0.3-2.1-0.5-4.2-1-6.2c-0.4-1.9-2.1-3.3-4.1-3.2c-1.9-0.1-3.6,1.2-4,3.1c-1.2,4.1-1.2,8.4-0.1,12.4c0.4,1.9,2.2,3.3,4.1,3.2
	c2,0,3.7-1.4,4.1-3.3C207.5,210.6,207.7,208.6,208,206.5z"/>
<path d="M57.1,201.5l-2.8-0.4c-0.1-3.8,2.6-6.6,6.8-6.8c1.3-0.1,2.6,0.1,3.8,0.4c3.4,0.9,5.4,4.4,4.5,7.8c-0.2,0.7-0.5,1.4-1,2
	c-1.5,2-3.3,3.8-5.2,5.5c-1.8,1.7-3.7,3.3-5.5,4.9l0.2,0.4h11.6v3.1H53.6c0-1.6,0.6-3.1,1.7-4.2c2.3-2.3,4.8-4.4,7.1-6.7
	c1.2-1.1,2.3-2.4,3.3-3.7c1.1-1.4,1.2-3.4,0.1-4.8c-1.2-1.6-3.1-2.3-5-1.8c-1.8,0.2-3.3,1.7-3.6,3.5
	C57.2,200.9,57.1,201.1,57.1,201.5z"/>
<path d="M226.4,209.7h3.2v3h-3.2v2.9v2.8h-3v-5.6H213c-0.2-1.7-0.3-3.1,0.8-4.5c3.1-4.1,6.1-8.2,9-12.4c0.9-1.3,1.9-1.9,3.6-1.4
	c0,2.4,0,4.9,0,7.4C226.4,204.6,226.4,207,226.4,209.7z M223.3,209.7v-10.4l-7.4,10.4H223.3z"/>
<path d="M122,205c2,0.5,3.5,2.1,4,4.1c1.1,4.1-1.4,8.3-5.5,9.3c-0.5,0.1-1,0.2-1.5,0.2c-4.3,0.4-7.6-1.9-8.5-5.6
	c-0.1-0.3-0.1-0.6-0.1-1c0.9-0.2,1.8-0.4,2.8-0.6c0.7,1.8,1.2,3.9,3.6,4.2c1.2,0.2,2.5,0,3.7-0.4c2.2-0.8,3.1-3.6,2.3-5.9
	c-0.8-2.3-3.4-3.3-6.5-2.6l0.2-2.6c1-0.2,2.1-0.4,3.1-0.7c1.8-0.6,2.6-1.9,2.4-3.5c-0.3-1.7-1.8-3-3.5-3c-2.6-0.1-3.9,0.8-4.9,3.9
	l-2.8-0.5c0.3-2.8,2.2-5.1,4.9-5.8c2.9-0.9,6.1-0.1,8.2,2.2c1.9,2.2,1.6,5.6-0.6,7.5c-0.1,0.1-0.3,0.2-0.4,0.3
	C122.6,204.7,122.4,204.8,122,205z"/>
<path d="M78.7,206.7l0.3-2.5c1.1-0.2,2.1-0.4,3.1-0.7c1.8-0.7,2.6-2,2.3-3.5c-0.3-1.7-1.7-2.9-3.4-2.9c-2.6-0.2-3.8,0.7-5,3.8
	l-2.7-0.5c0.3-3.3,3-6,6.3-6.2c2-0.2,3.9,0.3,5.5,1.5c3.3,2.6,3.1,6.6-0.6,9.2c0.7,0.4,1.5,0.8,2.1,1.3c2.1,1.9,2.3,4.3,1.7,6.9
	c-0.8,3.4-4.1,5.6-8.4,5.6c-3.4-0.1-6.3-2.4-7-5.7c-0.1-0.3-0.1-0.7-0.1-1l2.8-0.6c0.6,1.7,1.1,3.6,3,4.1c1.3,0.3,2.6,0.3,3.8-0.1
	c2.4-0.9,3.6-3.5,2.7-5.9C84.6,207.2,82.2,206.1,78.7,206.7z"/>
</svg>
