<?xml version="1.0" encoding="utf-8"?>
<!-- Generator: Adobe Illustrator 21.0.2, SVG Export Plug-In . SVG Version: 6.00 Build 0)  -->
<svg version="1.1" id="Layer_1" xmlns="http://www.w3.org/2000/svg" xmlns:xlink="http://www.w3.org/1999/xlink" x="0px" y="0px"
	 viewBox="0 0 283.5 283.5" style="enable-background:new 0 0 283.5 283.5;" xml:space="preserve">
<title>Untitled-2</title>
<path d="M127.5,64.7v123.2h-12.9V64.7H127.5z"/>
<path d="M111.5,64.7v123.2h-10.1V64.7H111.5z"/>
<path d="M182.4,64.7v123.2h-9.8V64.7H182.4z"/>
<path d="M204.9,64.7v123.2h-9.5V64.7H204.9z"/>
<path d="M159.7,64.7v123.2h-9.5V64.7H159.7z"/>
<path d="M98.6,64.7v123.2h-6.7V64.7H98.6z"/>
<path d="M88.8,64.7v123.2h-6.5V64.7H88.8z"/>
<path d="M66.3,64.7v123.2h-6.2V64.7H66.3z"/>
<path d="M37.2,64.7v140.5h-3.1V64.7H37.2z"/>
<path d="M250,64.7v140.5h-3.1V64.7H250z"/>
<path d="M243.6,64.7v140.5h-3.1V64.7H243.6z"/>
<path d="M43.6,64.7v140.5h-3.1V64.7H43.6z"/>
<path d="M140.4,64.7v140.5h-3.1V64.7H140.4z"/>
<path d="M146.8,64.7v140.5h-3.1V64.7H146.8z"/>
<path d="M72.8,64.7v123.2h-3.4V64.7H72.8z"/>
<path d="M221.1,64.7v123.2h-3.4V64.7H221.1z"/>
<path d="M169.5,64.7v123.2h-3.4V64.7H169.5z"/>
<path d="M214.7,64.7v123.2h-3.4V64.7H214.7z"/>
<path d="M53.4,64.7v123.2h-3.1V64.7H53.4z"/>
<path d="M133.9,64.7v123.2h-3.1V64.7H133.9z"/>
<path d="M237.1,64.7v123.2H234V64.7H237.1z"/>
<path d="M192,64.7v123.2h-3.1V64.7H192z"/>
<path d="M103.2,205c3.6,2.1,4.8,4.2,4.3,7.4c-0.5,3.5-3.4,6.2-6.9,6.3c-2.8,0.4-5.7-0.7-7.4-2.9c-2.2-2.7-2-7.2,0.5-9.4
	c0.7-0.5,1.4-1,2.2-1.3c0,0,0-0.1-0.1-0.1c-2.2-0.8-3.5-3-3.1-5.3c0.2-2.4,1.9-4.4,4.3-5c2.7-1,5.7-0.4,7.9,1.5
	c2.5,2.2,2.7,7.2-1.2,8.7C103.5,204.9,103.4,204.9,103.2,205z M99.6,215.9c2.9,0,4.9-1.8,4.9-4.6c0-2.6-2-4.7-4.6-4.7
	c-0.1,0-0.2,0-0.2,0c-2.9,0-5,1.9-5,4.5c0,2.6,2,4.7,4.6,4.8C99.4,215.9,99.5,215.9,99.6,215.9z M99.6,203.7c2.3,0,4-1.5,4-3.4
	c0-1.8-1.8-3.3-4-3.3c-2.2,0-3.9,1.4-3.9,3.2C95.7,202.3,97.3,203.7,99.6,203.7L99.6,203.7z"/>
<path d="M173.7,206.5c-0.5,2.7-1.1,5.4-1.9,8c-1.1,3-3.6,4.3-6.8,4.2c-2.8,0.1-5.3-1.7-6.2-4.4c-1.9-5-1.9-10.6-0.1-15.6
	c0.9-2.8,3.5-4.6,6.4-4.5c3.3-0.1,5.7,1.4,6.8,4.5C172.7,201.2,173.3,203.9,173.7,206.5z M170.5,206.3c-0.2-2-0.6-4.1-1-6.1
	c-0.6-2.2-2.8-3.6-5.1-3c-2,0.6-2.9,2.1-3.3,4c-0.7,3.5-0.7,7.2,0,10.7c0.2,1.5,1.2,2.8,2.5,3.5c2.6,1.3,5.3-0.1,6.1-3.3
	C170,210.2,170.3,208.2,170.5,206.3L170.5,206.3z"/>
<path d="M192.5,206.5c-0.4,2.7-1,5.3-1.7,7.8c-1.1,3.1-3.6,4.5-6.9,4.4c-2.8,0-5.3-1.9-6.2-4.5c-1.5-3.8-1.4-7.8-0.9-11.8
	c0.1-2.3,1.1-4.5,2.6-6.2c3-3.1,8.6-2.7,10.8,1.1c0.9,1.7,1.5,3.6,1.9,5.5c0.2,1.2,0.3,2.4,0.3,3.6L192.5,206.5z M189.3,206.5
	c-0.3-2.2-0.5-4.3-1-6.3c-0.4-1.9-2.1-3.2-4-3.2c-2.3,0-3.9,1.5-4.5,4.1c-0.6,3.2-0.7,6.5-0.2,9.7c0.1,0.7,0.3,1.3,0.6,2
	c0.6,1.8,2.2,3,4.1,3c1.9,0,3.5-1.3,4-3.1C188.8,210.8,189,208.6,189.3,206.5L189.3,206.5z"/>
<path d="M211.1,207c-0.2,2.2-0.6,4.3-1.2,6.4c-1.7,5.7-7.3,6.3-10.8,4.2c-1.6-1-2.7-2.5-3.1-4.3c-1.3-4.5-1.3-9.2,0-13.7
	c0.9-3.8,4.8-6.2,8.6-5.3c0.9,0.2,1.8,0.6,2.5,1.1c1.8,1.4,3,3.6,3.3,5.9C210.8,203,210.9,204.8,211.1,207z M208.2,206.3
	c-0.3-2.2-0.7-4.5-1.3-6.6c-0.5-1.7-2.2-2.8-4-2.6c-1.7,0-3.2,1.1-3.7,2.7c-0.5,1.4-0.8,3-0.9,4.5c0,2.8,0.2,5.5,0.6,8.3
	c0.4,2,2.1,3.4,4.2,3.3c2,0,3.7-1.4,4.1-3.3C207.7,210.6,207.8,208.6,208.2,206.3z"/>
<path d="M57.7,215.3h11.9v3H53.7c-0.1-1.5,0.5-2.9,1.5-4c1.4-1.6,3-3.1,4.5-4.5c1.7-1.6,3.4-3.1,5.1-4.7c0.6-0.6,1-1.3,1.4-2
	c0.8-1.5,0.6-3.3-0.5-4.6c-1.3-1.4-3.2-1.9-4.9-1.4c-2.1,0.4-3.5,2.2-3.5,4.3l-2.9-0.4c0.2-2.5,1.1-4.6,3.4-5.8
	c2.6-1.5,5.8-1.5,8.5-0.2c3.2,1.6,4.5,5.4,2.9,8.5c-0.1,0.3-0.3,0.6-0.5,0.8c-1.5,2-3.2,3.8-5.1,5.4c-1.2,1.1-2.5,2.1-3.7,3.2
	C59.1,213.7,58.5,214.4,57.7,215.3z"/>
<path d="M85.4,194.6v15.1h3.3v3.1h-3.2v5.6h-3v-5.6H72c-0.4-1.6,0-3.2,0.9-4.6c3.1-4.1,6.1-8.2,9-12.4
	C82.6,194.6,84.1,194.1,85.4,194.6z M82.3,209.6v-10.3l-7.4,10.3L82.3,209.6z"/>
<path d="M113.8,200.9l-2.8-0.6c0.3-2.7,2.2-5,4.9-5.8c2.9-0.9,6.1-0.1,8.2,2.2c1.9,2.2,1.6,5.6-0.6,7.5c-0.1,0.1-0.3,0.2-0.4,0.3
	c-0.2,0.1-0.4,0.3-0.8,0.5c2,0.6,3.5,2.1,4,4.1c1.1,4.1-1.4,8.3-5.4,9.3c-0.5,0.1-1,0.2-1.5,0.2c-4.3,0.4-7.6-1.9-8.5-5.6
	c-0.1-0.3-0.1-0.6-0.1-1l2.8-0.6c0.7,1.8,1.2,3.9,3.6,4.2c1.2,0.2,2.5,0,3.7-0.4c2.2-0.8,3.1-3.6,2.3-5.9c-0.8-2.3-3.4-3.4-6.5-2.6
	l0.2-2.6c1-0.2,2-0.4,3.1-0.7c1.8-0.6,2.6-1.9,2.4-3.5c-0.3-1.7-1.8-3-3.5-3C116.1,196.9,114.8,197.9,113.8,200.9z"/>
<path d="M217.2,200.9c-1-0.2-1.9-0.4-2.8-0.6c0.6-2.9,2-5,4.8-5.8c2.8-1,6-0.2,8,1.9c2.5,2.5,1.8,6.1-1.4,8.4c0,0.1,0,0.2,0.1,0.2
	c3.4,1.6,4.7,4.1,3.8,7.8c-0.9,3.3-3.8,5.6-7.2,5.7c-4.8,0.3-7.4-2.6-8.1-5.3c-0.1-0.4-0.2-0.8-0.3-1.3l2.9-0.6
	c0.6,1.7,1.1,3.6,3.1,4.1c1.3,0.3,2.6,0.3,3.8-0.1c2.3-0.7,3.4-3.6,2.6-6c-0.8-2.4-3.3-3.4-6.5-2.7c0.1-0.9,0.2-1.8,0.2-2.5
	c1-0.2,2.1-0.4,3.1-0.7c1.6-0.4,2.6-1.9,2.3-3.5c-0.3-1.7-1.7-2.9-3.4-3C219.7,196.8,218.3,197.9,217.2,200.9z"/>
</svg>
