<?xml version="1.0" encoding="utf-8"?>
<!-- Generator: Adobe Illustrator 21.0.2, SVG Export Plug-In . SVG Version: 6.00 Build 0)  -->
<svg version="1.1" id="Layer_1" xmlns="http://www.w3.org/2000/svg" xmlns:xlink="http://www.w3.org/1999/xlink" x="0px" y="0px"
	 viewBox="0 0 283.5 283.5" style="enable-background:new 0 0 283.5 283.5;" xml:space="preserve">
<title>Untitled-2</title>
<path d="M133.7,187.9H121V64.8h12.8L133.7,187.9z"/>
<path d="M101.4,64.7h9.9v123.2h-9.9V64.7z"/>
<path d="M182.2,187.9h-9.6V64.7h9.6V187.9z"/>
<path d="M195.3,64.7h9.4v123.2h-9.4V64.7z"/>
<path d="M150.1,64.7h9.4v123.2h-9.4L150.1,64.7z"/>
<path d="M91.8,64.7h6.6v123.2h-6.6V64.7z"/>
<path d="M79,187.9h-6V64.8h6L79,187.9z"/>
<path d="M50.3,64.7h6v123.2h-6V64.7z"/>
<path d="M246.9,64.7h2.9v140.5h-2.9V64.7z"/>
<path d="M240.4,64.7h2.9v140.5h-2.9L240.4,64.7z"/>
<path d="M137.2,64.7h2.9v140.4h-2.9V64.7z"/>
<path d="M146.6,205.2h-2.9V64.8h2.9V205.2z"/>
<path d="M43.4,205.2h-2.9V64.8h2.9L43.4,205.2z"/>
<path d="M34,64.7H37v140.5H34V64.7z"/>
<path d="M227.4,187.9h-3.2V64.7h3.2V187.9z"/>
<path d="M220.9,187.9h-3.2V64.8h3.2L220.9,187.9z"/>
<path d="M211.3,64.7h3.2v123.2h-3.2L211.3,64.7z"/>
<path d="M166.1,64.7h3.2v123.2h-3.2V64.7z"/>
<path d="M114.5,64.7h3.2v123.2h-3.2V64.7z"/>
<path d="M188.8,64.7h2.9v123.2h-2.9V64.7z"/>
<path d="M66.1,187.9h-2.9V64.8h2.9V187.9z"/>
<path d="M88.6,187.9h-2.7V64.7h2.7V187.9z"/>
<path d="M103.2,205.1c3.3,1.5,4.6,3.8,4.2,7.1c-0.3,3.2-2.8,5.7-5.9,6.2c-4.2,0.9-7.9-0.8-9.4-4.2c-1.7-3.8-0.1-7.7,3.7-9.1
	c-0.1-0.1-0.2-0.3-0.3-0.3c-3.5-1.3-4.3-6.5-0.6-9.3c2.7-1.8,6.2-1.8,8.9-0.1C107.5,198,107.3,202.4,103.2,205.1z M99.6,215.8
	c2.5,0.2,4.6-1.7,4.8-4.1c0-0.1,0-0.3,0-0.4c0.2-2.7-1.8-5.1-4.5-5.3c-2.7-0.2-5.1,1.8-5.3,4.5c-0.2,2.7,1.8,5.1,4.5,5.3
	C99.3,215.8,99.5,215.9,99.6,215.8z M99.5,203.7c2.3,0,4-1.4,4-3.4c0-1.8-1.8-3.3-4-3.3c-2.2,0-3.9,1.4-3.9,3.2
	C95.5,202.3,97.2,203.7,99.5,203.7z"/>
<path d="M229.3,200.3c-0.4,0-0.8,0-1.2,0.1c-1.1,0.5-1.6,0.2-2.1-1c-0.9-2.6-4.5-3.3-6.7-1.4c-2.3,2-2.6,4.7-2.6,7.3
	c1.2-0.9,2.4-1.7,3.8-2.3c3.6-1.2,7.5,0.7,8.7,4.3c0,0,0,0,0,0c1.4,3.8-0.1,8.4-3.2,10.2c-3.7,2.2-8.4,1-10.6-2.7
	c-0.2-0.4-0.4-0.8-0.6-1.2c-1.8-4.9-1.6-10.2,0.4-15c1.6-3.8,5.9-5.7,9.8-4.2C227.5,195.5,229.2,197.7,229.3,200.3z M222.1,205.5
	c-2.6-0.1-4.9,1.9-5,4.6c0,0.1,0,0.2,0,0.3c0,3.1,2.2,5.4,5,5.4c2.9,0,4.7-2.1,4.7-5.4C226.8,207.5,224.9,205.5,222.1,205.5
	L222.1,205.5z"/>
<path d="M125.8,200.3l-2.5,0.4c-0.5-1-1.1-1.9-1.8-2.7c-1.9-1.5-4.7-1.3-6.2,0.6c-1.7,2-2,4.4-2,7.1c0.3-0.3,0.5-0.4,0.6-0.6
	c2.5-2.9,6.9-3.2,9.8-0.7c0.7,0.6,1.2,1.3,1.6,2.1c2.3,4.3,0.5,11.1-5.1,12.1c-3.8,0.8-7.5-1.2-8.9-4.8c-1.7-4.8-1.6-10,0.3-14.6
	c1.5-3.9,5.8-5.9,9.8-4.6C124,195.4,125.7,197.7,125.8,200.3z M118.6,215.8c2.9,0,4.8-2.1,4.7-5.4c0-3-1.9-5-4.8-5
	c-2.6,0-4.8,2.1-4.9,4.7c0,0.1,0,0.1,0,0.2C113.7,213.5,115.9,215.9,118.6,215.8L118.6,215.8z"/>
<path d="M173.6,206.5c-0.5,2.7-1.1,5.3-1.8,7.9c-1.1,3-3.6,4.4-6.8,4.2c-2.8,0.1-5.3-1.7-6.2-4.3c-1.9-5-1.9-10.6-0.1-15.6
	c0.9-2.9,3.7-4.8,6.8-4.5c2.9-0.1,5.6,1.7,6.4,4.6C172.6,201.3,173.2,203.9,173.6,206.5z M170.3,206.2c-0.2-2-0.6-4.1-1-6.1
	c-0.6-2.2-2.8-3.6-5.1-3.1c-2,0.5-3,2.1-3.4,4c-0.7,3.5-0.7,7.2,0,10.7c0.2,1.6,1.2,2.9,2.6,3.6c2.6,1.2,5.3-0.3,6-3.4
	C170,210.2,170.1,208.4,170.3,206.2L170.3,206.2z"/>
<path d="M192.4,206.5c-0.4,2.6-1,5.3-1.8,7.8c-1.1,3.1-3.7,4.5-7,4.3c-2.8-0.1-5.2-1.8-6.1-4.5c-1.5-3.8-1.4-7.8-1-11.8
	c0.1-2.3,1.1-4.6,2.7-6.3c3-3,8.4-2.6,10.6,1c0.9,1.8,1.6,3.7,2,5.6c0.2,1.2,0.3,2.5,0.3,3.7L192.4,206.5z M189.2,206.5
	c-0.3-2.1-0.5-4.3-1-6.3c-0.4-1.9-2.1-3.2-4-3.2c-2.3,0-4.1,1.5-4.4,4.3c-0.2,3.2-0.3,6.3-0.2,9.5c0.1,0.7,0.3,1.4,0.6,2.1
	c0.6,1.8,2.2,3,4.1,3c1.9,0,3.5-1.3,4-3.1C188.7,210.8,188.9,208.6,189.2,206.5L189.2,206.5z"/>
<path d="M211,207c-0.2,2.2-0.6,4.3-1.2,6.4c-1.7,5.7-7.3,6.3-10.8,4.2c-1.5-1-2.7-2.5-3.1-4.3c-1.3-4.5-1.3-9.2,0-13.7
	c0.9-3.8,4.8-6.2,8.6-5.3c0.9,0.2,1.8,0.6,2.5,1.1c1.8,1.5,3,3.6,3.3,5.9C210.7,203,210.8,204.8,211,207z M208,206.4
	c-0.3-2.1-0.5-4.2-1-6.3c-0.5-1.9-2.1-3.2-4.1-3.1c-1.9-0.1-3.6,1.2-4,3.1c-1.2,4.1-1.2,8.4-0.1,12.4c0.4,1.9,2.2,3.3,4.1,3.3
	c2,0,3.7-1.4,4.1-3.3C207.5,210.6,207.7,208.5,208,206.4L208,206.4z"/>
<path d="M81,199.8l-5.8,3.3c-0.5-2.6-0.4-2.6,1.4-3.8c1.7-1.2,3.3-2.6,4.7-4.1c0.5-0.8,1.6-1.2,2.5-0.9v24.1H81V199.8z"/>
<path d="M62.2,199.8l-5.9,3.4v-3c2.7-1.2,5-3.2,6.7-5.5c0.3-0.4,1.2-0.5,2-0.8v24.4h-2.8L62.2,199.8z"/>
</svg>
